<?xml version="1.0" encoding="UTF-8" standalone="no"?>
<!DOCTYPE svg PUBLIC "-//W3C//DTD SVG 1.1//EN" "http://www.w3.org/Graphics/SVG/1.1/DTD/svg11.dtd">
<svg version="1.1" xmlns="http://www.w3.org/2000/svg" xmlns:xlink="http://www.w3.org/1999/xlink" preserveAspectRatio="xMidYMid meet" viewBox="0 0 300 300" width="300" height="300"><defs><path d="M216.08 278.71C202.83 269.31 202.27 233.43 217.9 218.15C235.07 201.4 263.87 198.6 280.48 214.09C266.96 243.52 244.81 264.48 216.08 278.71Z" id="c2Rmrn9so"></path><path d="M83.2 217.1C99.6 233.57 101.35 259.92 86.7 278.78C57.41 264.76 35.96 242.96 21.31 213.6C40.38 198.95 66.87 200.7 83.2 217.1Z" id="e2pJiz27sg"></path><path d="M11.64 109.59C13.04 104.55 15.29 102.44 21.24 104.27C39.75 109.87 53.69 126.41 54.53 145.12C55.59 167.69 44.51 185.49 24.54 192.99C21.38 194.18 18.09 195.02 14.1 196.22C3.86 166.92 3.65 138.4 11.64 109.59Z" id="b12MEUoQa"></path><path d="M83.27 81.42C66.24 98.31 39.61 99.99 21.6 85.06C35.68 56.05 57.76 34.88 86.7 19.95C101.63 38.11 99.88 64.95 83.27 81.42Z" id="b1ufQlcX5t"></path><path d="M110.25 288.87C105.13 287.4 104.36 285.78 105.63 280.81C110.32 261.67 128.47 246.61 148.52 245.91C169.47 245.14 189.23 258.38 194.84 277.3C195.75 280.39 195.47 283.82 195.75 287.47C166.67 296.72 138.56 296.86 110.25 288.87Z" id="bZ5pDtTJN"></path><path d="M280 86.36C263.67 101.07 237.11 99.11 219.1 83.06C203.33 68.98 201.86 35.2 215.1 21.46C239.14 30.85 271.52 63.44 280 86.36Z" id="b5OvCDEPPm"></path><path d="M94.55 149.82C94.2 157.25 87.47 163.21 79.83 162.79C72.76 162.37 66.87 155.85 67.15 148.7C67.36 141.13 73.74 135.59 81.73 136.01C89.09 136.36 94.9 142.6 94.55 149.82Z" id="aak8jqlPD"></path><path d="M220.84 135.94C229.11 136.08 234.37 141.76 233.95 150.03C233.6 157.53 227.43 163.14 219.93 162.79C212.36 162.44 207.04 156.62 207.32 148.77C207.53 140.71 212.71 135.8 220.84 135.94Z" id="ee2XSFmpC"></path><path d="M214.47 97.68C214.96 105.6 209.28 111.97 201.64 112.19C193.86 112.4 187.62 106.44 187.55 98.66C187.48 91.65 193.58 85.06 200.59 84.78C207.81 84.5 213.97 90.25 214.47 97.68Z" id="b2Pw9ikGcX"></path><path d="M100.23 185.84C107.66 185.84 113.83 191.8 113.97 199.09C114.11 206.8 107.73 213.18 100.16 212.97C92.73 212.76 87.19 206.94 87.19 199.3C87.19 191.45 92.73 185.84 100.23 185.84Z" id="d2lQSVXkG5"></path><path d="M187.76 199.86C187.62 191.94 193.79 185.77 201.5 185.98C208.93 186.12 214.61 192.08 214.61 199.72C214.61 207.36 208.93 213.11 201.29 212.97C193.51 212.9 187.9 207.43 187.76 199.86Z" id="a2zIGSaJdf"></path><path d="M164.22 219.48C164.22 227.05 158.54 232.94 151.11 233.08C143.68 233.22 137.09 226.63 137.3 219.2C137.51 211.42 142.98 206.31 150.97 206.38C158.96 206.45 164.22 211.56 164.22 219.48Z" id="dZ11WMma4"></path><path d="M100.51 112.61C93.29 112.61 87.33 106.65 87.19 99.15C87.05 91.02 92.8 84.85 100.44 84.99C108.22 85.2 112.49 90.04 112.49 98.73C112.49 107.28 107.94 112.61 100.51 112.61Z" id="c1REWNFg2q"></path><path d="M151.18 92.7C142.98 92.84 137.3 87.38 137.23 79.39C137.23 72.38 143.47 66 150.55 65.79C158.4 65.65 162.6 70.27 162.74 79.18C162.88 88.92 159.73 92.56 151.18 92.7Z" id="b1BFpJSGxW"></path><path d="M134.29 6.29L167.23 6.29" id="c3cGVvUhtB"></path><path d="M197.2 14.24C199.65 30.29 174.14 55.59 152.28 54.89C128.24 54.19 106.23 35.34 105.95 12.63C136.58 1.98 166.99 3.45 197.2 14.24Z" id="bVg6JGq6B"></path><path d="M287.13 193.87C265.16 193.15 247.38 173.32 245.53 149.26C243.94 128.18 266.31 102.82 285.37 102.11C296.18 125.55 296.91 171.48 287.13 193.87Z" id="ar2Go2Ahe"></path></defs><g><g><g><use xlink:href="#c2Rmrn9so" opacity="1" fill="#ffc100" fill-opacity="1"></use><g><use xlink:href="#c2Rmrn9so" opacity="1" fill-opacity="0" stroke="#ffc100" stroke-width="1" stroke-opacity="1"></use></g></g><g><use xlink:href="#e2pJiz27sg" opacity="1" fill="#ffc100" fill-opacity="1"></use><g><use xlink:href="#e2pJiz27sg" opacity="1" fill-opacity="0" stroke="#ffc100" stroke-width="1" stroke-opacity="1"></use></g></g><g><use xlink:href="#b12MEUoQa" opacity="1" fill="#ffc100" fill-opacity="1"></use><g><use xlink:href="#b12MEUoQa" opacity="1" fill-opacity="0" stroke="#ffc100" stroke-width="1" stroke-opacity="1"></use></g></g><g><use xlink:href="#b1ufQlcX5t" opacity="1" fill="#ffc100" fill-opacity="1"></use><g><use xlink:href="#b1ufQlcX5t" opacity="1" fill-opacity="0" stroke="#ffc100" stroke-width="1" stroke-opacity="1"></use></g></g><g><use xlink:href="#bZ5pDtTJN" opacity="1" fill="#ffc100" fill-opacity="1"></use><g><use xlink:href="#bZ5pDtTJN" opacity="1" fill-opacity="0" stroke="#ffc100" stroke-width="1" stroke-opacity="1"></use></g></g><g><use xlink:href="#b5OvCDEPPm" opacity="1" fill="#ffc100" fill-opacity="1"></use><g><use xlink:href="#b5OvCDEPPm" opacity="1" fill-opacity="0" stroke="#ffc100" stroke-width="1" stroke-opacity="1"></use></g></g><g><use xlink:href="#aak8jqlPD" opacity="1" fill="#ffc100" fill-opacity="1"></use><g><use xlink:href="#aak8jqlPD" opacity="1" fill-opacity="0" stroke="#ffc100" stroke-width="1" stroke-opacity="1"></use></g></g><g><use xlink:href="#ee2XSFmpC" opacity="1" fill="#ffc100" fill-opacity="1"></use><g><use xlink:href="#ee2XSFmpC" opacity="1" fill-opacity="0" stroke="#ffc100" stroke-width="1" stroke-opacity="1"></use></g></g><g><use xlink:href="#b2Pw9ikGcX" opacity="1" fill="#ffc100" fill-opacity="1"></use><g><use xlink:href="#b2Pw9ikGcX" opacity="1" fill-opacity="0" stroke="#ffc100" stroke-width="1" stroke-opacity="1"></use></g></g><g><use xlink:href="#d2lQSVXkG5" opacity="1" fill="#ffc100" fill-opacity="1"></use><g><use xlink:href="#d2lQSVXkG5" opacity="1" fill-opacity="0" stroke="#ffc100" stroke-width="1" stroke-opacity="1"></use></g></g><g><use xlink:href="#a2zIGSaJdf" opacity="1" fill="#ffc100" fill-opacity="1"></use><g><use xlink:href="#a2zIGSaJdf" opacity="1" fill-opacity="0" stroke="#ffc100" stroke-width="1" stroke-opacity="1"></use></g></g><g><use xlink:href="#dZ11WMma4" opacity="1" fill="#ffc100" fill-opacity="1"></use><g><use xlink:href="#dZ11WMma4" opacity="1" fill-opacity="0" stroke="#ffc100" stroke-width="1" stroke-opacity="1"></use></g></g><g><use xlink:href="#c1REWNFg2q" opacity="1" fill="#ffc100" fill-opacity="1"></use><g><use xlink:href="#c1REWNFg2q" opacity="1" fill-opacity="0" stroke="#ffc100" stroke-width="1" stroke-opacity="1"></use></g></g><g><use xlink:href="#b1BFpJSGxW" opacity="1" fill="#ffc100" fill-opacity="1"></use><g><use xlink:href="#b1BFpJSGxW" opacity="1" fill-opacity="0" stroke="#ffc100" stroke-width="1" stroke-opacity="1"></use></g></g><g><use xlink:href="#c3cGVvUhtB" opacity="1" fill="#ffc100" fill-opacity="1"></use><g><use xlink:href="#c3cGVvUhtB" opacity="1" fill-opacity="0" stroke="#ffc100" stroke-width="1" stroke-opacity="1"></use></g></g><g><use xlink:href="#bVg6JGq6B" opacity="1" fill="#ffc100" fill-opacity="1"></use><g><use xlink:href="#bVg6JGq6B" opacity="1" fill-opacity="0" stroke="#ffc100" stroke-width="1" stroke-opacity="1"></use></g></g><g><use xlink:href="#ar2Go2Ahe" opacity="1" fill="#ffc100" fill-opacity="1"></use><g><use xlink:href="#ar2Go2Ahe" opacity="1" fill-opacity="0" stroke="#ffc100" stroke-width="1" stroke-opacity="1"></use></g></g></g></g></svg>