<?xml version="1.0" encoding="UTF-8" standalone="no"?>
<!DOCTYPE svg PUBLIC "-//W3C//DTD SVG 1.1//EN" "http://www.w3.org/Graphics/SVG/1.1/DTD/svg11.dtd">
<svg version="1.1" xmlns="http://www.w3.org/2000/svg" xmlns:xlink="http://www.w3.org/1999/xlink" preserveAspectRatio="xMidYMid meet" viewBox="4.999999999999993 2.1463356079401334 291.99999999999994 293.2900552486188" width="288" height="289.29"><defs><path d="M216.08 19.09C202.83 28.48 202.27 64.36 217.9 79.64C235.07 96.39 263.87 99.19 280.48 83.7C266.96 54.27 244.81 33.31 216.08 19.09Z" id="c11Y96iFCG"></path><path d="M83.2 80.69C99.6 64.22 101.35 37.87 86.7 19.02C57.41 33.03 35.96 54.83 21.31 84.19C40.38 98.84 66.87 97.09 83.2 80.69Z" id="a4pwPXwqX"></path><path d="M11.64 188.2C13.04 193.25 15.29 195.35 21.24 193.53C39.75 187.92 53.69 171.38 54.53 152.67C55.59 130.1 44.51 112.3 24.54 104.8C21.38 103.61 18.09 102.77 14.1 101.58C3.86 130.87 3.65 159.39 11.64 188.2Z" id="a8bnnkazU"></path><path d="M83.27 216.37C66.24 199.48 39.61 197.8 21.6 212.73C35.68 241.74 57.76 262.91 86.7 277.84C101.63 259.69 99.88 232.84 83.27 216.37Z" id="d2pOFqttOP"></path><path d="M110.25 8.92C105.13 10.4 104.36 12.01 105.63 16.98C110.32 36.12 128.47 51.18 148.52 51.89C169.47 52.66 189.23 39.41 194.84 20.49C195.75 17.4 195.47 13.97 195.75 10.33C166.67 1.07 138.56 0.93 110.25 8.92Z" id="b15XjoU0Td"></path><path d="M280 211.43C263.67 196.72 237.11 198.68 219.1 214.73C203.33 228.82 201.86 262.6 215.1 276.33C239.14 266.94 271.52 234.35 280 211.43Z" id="a1YSKjH0g8"></path><path d="M94.55 147.97C94.2 140.54 87.47 134.58 79.83 135.01C72.76 135.43 66.87 141.94 67.15 149.09C67.36 156.66 73.74 162.2 81.73 161.78C89.09 161.43 94.9 155.19 94.55 147.97Z" id="e1dlnyVcnU"></path><path d="M220.84 161.85C229.11 161.71 234.37 156.03 233.95 147.76C233.6 140.26 227.43 134.65 219.93 135.01C212.36 135.36 207.04 141.17 207.32 149.02C207.53 157.08 212.71 161.99 220.84 161.85Z" id="f34FljQkO"></path><path d="M214.47 200.11C214.96 192.19 209.28 185.82 201.64 185.61C193.86 185.4 187.62 191.35 187.55 199.13C187.48 206.14 193.58 212.73 200.59 213.01C207.81 213.29 213.97 207.54 214.47 200.11Z" id="d6i35lVaC"></path><path d="M100.23 111.95C107.66 111.95 113.83 105.99 113.97 98.7C114.11 90.99 107.73 84.61 100.16 84.83C92.73 85.04 87.19 90.85 87.19 98.49C87.19 106.34 92.73 111.95 100.23 111.95Z" id="aJH3tdYtR"></path><path d="M187.76 97.93C187.62 105.85 193.79 112.02 201.5 111.81C208.93 111.67 214.61 105.71 214.61 98.07C214.61 90.43 208.93 84.68 201.29 84.83C193.51 84.9 187.9 90.36 187.76 97.93Z" id="a17TAHLQ9F"></path><path d="M164.22 78.31C164.22 70.74 158.54 64.85 151.11 64.71C143.68 64.57 137.09 71.16 137.3 78.59C137.51 86.37 142.98 91.48 150.97 91.41C158.96 91.34 164.22 86.23 164.22 78.31Z" id="a18XVWRzaj"></path><path d="M100.51 185.19C93.29 185.19 87.33 191.14 87.19 198.64C87.05 206.77 92.8 212.94 100.44 212.8C108.22 212.59 112.49 207.75 112.49 199.06C112.49 190.51 107.94 185.19 100.51 185.19Z" id="c60COT5g6"></path><path d="M151.18 205.09C142.98 204.95 137.3 210.42 137.23 218.41C137.23 225.41 143.47 231.79 150.55 232C158.4 232.14 162.6 227.52 162.74 218.62C162.88 208.87 159.73 205.23 151.18 205.09Z" id="gdFmo8A8T"></path><path d="M197.2 283.55C199.65 267.5 174.14 242.2 152.28 242.9C128.24 243.6 106.23 262.45 105.95 285.16C136.58 295.81 166.99 294.34 197.2 283.55Z" id="f2jzSkMChl"></path><path d="M287.13 103.92C265.16 104.64 247.38 124.47 245.53 148.53C243.94 169.61 266.31 194.97 285.37 195.68C296.18 172.24 296.91 126.31 287.13 103.92Z" id="a2BRMcGVUE"></path></defs><g><g><use xlink:href="#c11Y96iFCG" opacity="1" fill="#e84232" fill-opacity="1"></use><g><use xlink:href="#c11Y96iFCG" opacity="1" fill-opacity="0" stroke="#e84232" stroke-width="1" stroke-opacity="1"></use></g></g><g><use xlink:href="#a4pwPXwqX" opacity="1" fill="#e84232" fill-opacity="1"></use><g><use xlink:href="#a4pwPXwqX" opacity="1" fill-opacity="0" stroke="#e84232" stroke-width="1" stroke-opacity="1"></use></g></g><g><use xlink:href="#a8bnnkazU" opacity="1" fill="#e84232" fill-opacity="1"></use><g><use xlink:href="#a8bnnkazU" opacity="1" fill-opacity="0" stroke="#e84232" stroke-width="1" stroke-opacity="1"></use></g></g><g><use xlink:href="#d2pOFqttOP" opacity="1" fill="#e84232" fill-opacity="1"></use><g><use xlink:href="#d2pOFqttOP" opacity="1" fill-opacity="0" stroke="#e84232" stroke-width="1" stroke-opacity="1"></use></g></g><g><use xlink:href="#b15XjoU0Td" opacity="1" fill="#e84232" fill-opacity="1"></use><g><use xlink:href="#b15XjoU0Td" opacity="1" fill-opacity="0" stroke="#e84232" stroke-width="1" stroke-opacity="1"></use></g></g><g><use xlink:href="#a1YSKjH0g8" opacity="1" fill="#e84232" fill-opacity="1"></use><g><use xlink:href="#a1YSKjH0g8" opacity="1" fill-opacity="0" stroke="#e84232" stroke-width="1" stroke-opacity="1"></use></g></g><g><use xlink:href="#e1dlnyVcnU" opacity="1" fill="#e84232" fill-opacity="1"></use><g><use xlink:href="#e1dlnyVcnU" opacity="1" fill-opacity="0" stroke="#e84232" stroke-width="1" stroke-opacity="1"></use></g></g><g><use xlink:href="#f34FljQkO" opacity="1" fill="#e84232" fill-opacity="1"></use><g><use xlink:href="#f34FljQkO" opacity="1" fill-opacity="0" stroke="#e84232" stroke-width="1" stroke-opacity="1"></use></g></g><g><use xlink:href="#d6i35lVaC" opacity="1" fill="#e84232" fill-opacity="1"></use><g><use xlink:href="#d6i35lVaC" opacity="1" fill-opacity="0" stroke="#e84232" stroke-width="1" stroke-opacity="1"></use></g></g><g><use xlink:href="#aJH3tdYtR" opacity="1" fill="#e84232" fill-opacity="1"></use><g><use xlink:href="#aJH3tdYtR" opacity="1" fill-opacity="0" stroke="#e84232" stroke-width="1" stroke-opacity="1"></use></g></g><g><use xlink:href="#a17TAHLQ9F" opacity="1" fill="#e84232" fill-opacity="1"></use><g><use xlink:href="#a17TAHLQ9F" opacity="1" fill-opacity="0" stroke="#e84232" stroke-width="1" stroke-opacity="1"></use></g></g><g><use xlink:href="#a18XVWRzaj" opacity="1" fill="#e84232" fill-opacity="1"></use><g><use xlink:href="#a18XVWRzaj" opacity="1" fill-opacity="0" stroke="#e84232" stroke-width="1" stroke-opacity="1"></use></g></g><g><use xlink:href="#c60COT5g6" opacity="1" fill="#e84232" fill-opacity="1"></use><g><use xlink:href="#c60COT5g6" opacity="1" fill-opacity="0" stroke="#e84232" stroke-width="1" stroke-opacity="1"></use></g></g><g><use xlink:href="#gdFmo8A8T" opacity="1" fill="#e84232" fill-opacity="1"></use><g><use xlink:href="#gdFmo8A8T" opacity="1" fill-opacity="0" stroke="#e84232" stroke-width="1" stroke-opacity="1"></use></g></g><g><use xlink:href="#f2jzSkMChl" opacity="1" fill="#e84232" fill-opacity="1"></use><g><use xlink:href="#f2jzSkMChl" opacity="1" fill-opacity="0" stroke="#e84232" stroke-width="1" stroke-opacity="1"></use></g></g><g><use xlink:href="#a2BRMcGVUE" opacity="1" fill="#e84232" fill-opacity="1"></use><g><use xlink:href="#a2BRMcGVUE" opacity="1" fill-opacity="0" stroke="#e84232" stroke-width="1" stroke-opacity="1"></use></g></g></g></svg>