<?xml version="1.0" encoding="utf-8"?>
<!-- Generator: Adobe Illustrator 22.0.0, SVG Export Plug-In . SVG Version: 6.00 Build 0)  -->
<svg version="1.1" id="Layer_1" xmlns="http://www.w3.org/2000/svg" xmlns:xlink="http://www.w3.org/1999/xlink" viewBox="0 8 612 49" >
<style type="text/css">
	.st0{fill:#FDFDFD;}
	.st1{fill:#2C5A2E;}
</style>
<g>
	<g>
		<path class="st0" d="M4.1,50.9c0-13.5,0-27,0-40.5c201.5,0,402.9,0,604.4,0c0,13.5,0,27,0,40.5C407,50.9,205.6,50.9,4.1,50.9z
			 M300.5,41.8c1.1,1.9,3.6,3,4.6,2.4c-1.3-0.8-2.8-1.8-4.3-2.7c-0.1-0.5-0.2-0.9-0.2-1.4c0-1.1-0.2-2.1,0.1-3.2
			c0.4-1.8,2-2.5,3.7-3.2c-1.5-0.6-2.8-1.2-3.2-2.8c-0.8-3,0.7-5.7,3.8-6c3.9-0.3,7.8-0.1,11.8-0.1c0,1,0,2.1,0,3.4
			c-2.8,0-5.5,0-8.2,0c-1.6,0-2.2,0.7-2.2,2.1c0,1.5,0.6,2,2.1,2.1c0.9,0,1.8,0,2.7,0c0,0.6,0,1.1,0,1.6c0,0.5,0,0.9-0.1,1.4
			c-0.6,0.1-1,0.1-1.5,0.1c-0.5,0.1-1,0.3-1.5,0.2c-1.4-0.1-2.1,0.3-2.3,1.5c-0.2,1.3,0.3,2.5,1.5,2.6c2.3,0.2,4.5,0,6.9,0
			c0-2.5,0-5,0-7.6c2.8,0,5.4,0,8,0c0-0.1,0-0.2,0-0.4c-2.9,0-5.7,0-8.7,0c0,2.5,0,5,0,7.6c-1.7,0-3.2,0-4.7,0
			c-1.8-0.1-2.5-0.6-2.4-1.7c0-1.1,0.8-1.6,2.5-1.6c0.9,0,1.9,0,2.9,0c0-1.5,0-2.8,0-4.3c-1.2,0-2.3,0-3.4,0c-1.1,0-1.5-0.7-1.5-1.4
			c0-0.5,0.6-1.1,1.2-1.5c0.3-0.2,0.9-0.1,1.4-0.1c2.7,0,5.3,0,7.9,0c0-1.7,0-3.3,0-4.8c-4,0-8-0.2-11.9,0.1c-3.5,0.2-5.4,2.6-5,6
			c0.2,1.3,1,2.6,1.6,3.9C299.1,35.8,299,39.4,300.5,41.8z M347,24.2c-3.3,0-6.5-0.2-9.6,0c-5.2,0.3-8.2,2.8-9,7.5
			c-0.3,1.5-0.2,3-0.1,4.5c0.5,4.7,3.4,7.5,8,7.9c2.1,0.2,4.3,0.1,6.5,0.2c1.8,0,3.6,0,5.4,0c0-4,0-7.7,0-11.5c-3.2,0-6.3,0-9.4,0
			c0,1.3,0,2.4,0,3.8c1.3,0,2.5,0,3.7,0c0,1.2,0,2.3,0,3.4c-1.4,0-2.8,0.1-4.1,0c-2.1-0.1-3.4-1.2-3.6-3.2c-0.2-1.5-0.2-3.1,0-4.6
			c0.2-2.1,1.4-3.2,3.5-3.4c1.9-0.2,3.7-0.1,5.6-0.1c1.1,0,2.1,0,3.2,0C347,27,347,25.7,347,24.2z M20.3,32.2c-3.1,0-6.1,0-9.1,0
			c0-1.2,0-2.3,0-3.6c3.5,0,7,0,10.4,0c0-1.6,0-3,0-4.4c-5.7,0-11.2,0-16.8,0c0,6.7,0,13.3,0,19.9c5.7,0,11.4,0,17.1,0
			c0-1.5,0-2.8,0-4.3c-3.6,0-7.2,0-10.8,0c0-1.3,0-2.5,0-3.8c3.1,0,6,0,9.1,0C20.3,34.7,20.3,33.6,20.3,32.2z M444.7,44.2
			c0-1.5,0-2.8,0-4.4c-3.7,0-7.2,0-10.8,0c0-1.3,0-2.5,0-3.8c3.1,0,6.1,0,9.1,0c0-1.3,0-2.5,0-3.8c-3.1,0-6.1,0-9.1,0
			c0-1.3,0-2.4,0-3.6c3.5,0,7,0,10.5,0c0-1.5,0-2.9,0-4.4c-5.6,0-11.2,0-16.8,0c0,6.7,0,13.3,0,19.9C433.4,44.2,439,44.2,444.7,44.2
			z M149.8,24.2c0,6.7,0,13.3,0,19.9c5.7,0,11.3,0,17,0c0-1.5,0-2.8,0-4.4c-3.6,0-7.2,0-10.8,0c0-1.3,0-2.5,0-3.8c3.1,0,6.1,0,9.1,0
			c0-1.3,0-2.5,0-3.8c-3.1,0-6.1,0-9.1,0c0-1.3,0-2.3,0-3.6c3.5,0,7,0,10.5,0c0-1.5,0-2.9,0-4.4C160.9,24.2,155.4,24.2,149.8,24.2z
			 M545.2,34.2c0,3.4,0,6.6,0,10c1.7,0,3.3,0,5.1,0c0-3.4,0-6.6,0-9.9c2.8-0.4,3.4,0,3.4,2.6c0,0.9,0,1.8,0,2.7c0,1.5,0,3,0,4.5
			c2.1,0,3.9,0,5.8,0c0-0.6,0-1,0-1.5c0-2.4,0.1-4.8-0.1-7.2c-0.2-3.3-2.2-5.3-5.4-5.4c-4.2-0.1-8.4-0.1-12.7,0
			c-2.7,0.1-4.9,1.6-5.1,4c-0.3,3.3-0.1,6.7-0.1,10.1c1.7,0,3.6,0,5.5,0c0-2.4,0-4.7,0-7C541.7,34.4,542.2,34,545.2,34.2z
			 M501.7,49.9c3,0,5.9,0.2,8.7-0.1c3.9-0.4,5.6-2.5,5.6-6.5c0-2.7,0-5.3,0-8c0-1.7,0-3.4,0-5.2c-3.7,0-7.3-0.1-10.8,0
			c-1,0-2,0.5-2.9,1c-2.5,1.7-2.9,4.3-2.5,7.1c0.5,3.3,2.5,5.2,5.7,5.5c1.5,0.1,3,0,4.5,0c-0.1,1.8-0.6,2.2-2.3,2.2
			c-2,0-4.1,0-6.2,0C501.7,47.5,501.7,48.7,501.7,49.9z M480.6,30.1c-3.4,0-6.6,0-9.8,0c-3.8,0-6.1,2.2-6.5,6
			c-0.4,4.7,2.1,7.7,6.9,7.9c1.2,0,2.3,0,3.5,0c0,1.6-0.9,2.1-2.2,2.1c-2.1,0-4.1,0-6.2,0c0,1.3,0,2.6,0,3.9c2.8,0,5.6,0.1,8.4,0
			c4-0.3,5.9-2.5,6-6.5c0-2.5,0-5,0-7.5C480.6,34,480.6,32.1,480.6,30.1z M377.8,44.2c3.3,0,6.5,0.2,9.7,0c4.4-0.3,6.8-3.1,6.6-7.5
			c-0.2-4.5-2.6-6.7-7.3-6.7c-1.1,0-2.1,0-3.3,0c0-2.3,0-4.4,0-6.4c-2,0-3.8,0-5.7,0C377.8,30.5,377.8,37.3,377.8,44.2z M105.7,44.1
			c0-6.8,0-13.6,0-20.4c-2,0-3.8,0-5.8,0c0,2.2,0,4.2,0,6.4c-1.5,0-2.8,0-4.1,0c-3,0.1-5.4,1.7-5.9,4.4c-0.3,1.3-0.3,2.8-0.2,4.2
			c0.4,3.2,2.4,5.2,5.6,5.4C98.7,44.3,102.1,44.1,105.7,44.1z M178.6,30.1c-1.5,0-2.9-0.2-4.2,0c-1.3,0.2-2.7,0.5-3.8,1.2
			c-2.5,1.5-3.3,5.7-2,8.9c0.8,1.9,2,3.3,4,3.5c3.8,0.4,7.7,0.5,11.6,0.7c0-7.1,0-14,0-20.8c-1.9,0-3.7,0-5.7,0
			C178.6,25.8,178.6,27.8,178.6,30.1z M141.5,23.7c-2,0-3.8,0-5.6,0c0,1.1,0,2.2,0,3.2c0,1.1,0,2.1,0,3.2c-1.4,0-2.7,0-3.9,0
			c-4,0-6.3,2.3-6.6,6.3c-0.3,4.3,1.8,7.4,5.7,7.7c3.4,0.3,6.9,0.1,10.4,0.1C141.5,37.3,141.5,30.5,141.5,23.7z M267,29.7
			c-1.1,0.1-2.1,0.2-3.1,0.4c-3.5,0.7-5.6,3.1-5.7,6.7c-0.2,3.6,1.6,6.3,4.9,7.3c2.5,0.8,5.1,0.8,7.6,0c3.4-1.1,4.9-3.5,4.8-7.6
			c-0.1-3-2-5.4-5.1-6.2C269.2,29.9,268.1,29.8,267,29.7z M283.2,34.3c3.8-0.4,4.2-0.1,4.2,3.5c0,2.1,0,4.2,0,6.3c2,0,3.9,0,5.8,0
			c0-2.8,0.1-5.4,0-8.1c-0.2-3.6-1.7-5.6-4.8-5.8c-3.6-0.3-7.3-0.1-10.9-0.1c0,4.7,0,9.4,0,14c2,0,3.8,0,5.8,0
			C283.2,40.8,283.2,37.5,283.2,34.3z M87.8,44.2c0-3,0.1-5.8,0-8.7c-0.2-3.5-2.3-5.4-5.9-5.4c-3,0-5.9,0-8.9,0
			c-0.4,0-0.7,0.1-1,0.1c0,4.7,0,9.4,0,14c2,0,3.8,0,5.8,0c0-3.4,0-6.7,0-10c0.7,0,1.2,0,1.7,0c1.8,0,2.3,0.5,2.4,2.3
			c0,0.6,0,1.2,0,1.8c0,2,0,3.9,0,5.9C84,44.2,85.8,44.2,87.8,44.2z M483.8,33.7c2.3,0,4.5,0,6.8,0c1.2,0,2,0.5,1.9,2
			c-0.5,0-1,0-1.5,0c-1.6,0-3.2,0-4.8,0.1c-1.6,0.1-3,0.8-3.6,2.5c-1.2,3.5,0.6,6,4.5,6c3.3,0.1,6.7,0,10,0c0.4,0,0.7-0.1,1-0.1
			c0-3.3,0.1-6.5,0-9.6c-0.1-2.4-1.7-4.1-4.1-4.3c-3.3-0.2-6.7-0.1-10.1-0.1C483.8,31.4,483.8,32.5,483.8,33.7z M595.3,44.2
			c0-0.3,0.1-0.5,0.1-0.6c0-2.7,0-5.3-0.1-8c-0.1-3.1-1.7-5.1-4.7-5.3c-3.6-0.3-7.3-0.1-11-0.1c0,0.4-0.1,0.8-0.1,1.2
			c0,4.3,0,8.5,0,12.9c2,0,3.8,0,5.8,0c0-3.3,0-6.6,0-10c0.7,0,1.3,0,1.9,0c1.7,0,2.1,0.4,2.3,2c0.1,0.6,0.1,1.1,0.1,1.7
			c0,2.1,0,4.2,0,6.4C591.5,44.2,593.3,44.2,595.3,44.2z M405.4,35.8c-2.3,0-4.5-0.1-6.7,0c-2.3,0.2-3.4,1.6-3.4,4
			c0,2.6,1,4.1,3.3,4.2c4.1,0.2,8.2,0.1,12.4,0.1c0-3.1,0.2-6.3-0.1-9.4c-0.2-2.8-1.8-4.4-4.3-4.6c-3.3-0.2-6.5,0-9.8,0
			c0,1.3,0,2.4,0,3.6c2.3,0,4.5,0,6.7,0C404.7,33.7,405.5,34.2,405.4,35.8z M229.9,35.7c-1.1,0-2.2,0-3.2,0c-1.1,0-2.3,0-3.4,0.1
			c-2.3,0.3-3.5,1.6-3.5,4c-0.1,3.1,1.3,4.5,4.7,4.5c3.2,0.1,6.5,0,9.7,0c0.4,0,0.9,0,1.4,0c0-3.1,0.1-5.9,0-8.8
			c-0.2-3.2-1.8-5.2-4.5-5.3c-3.2-0.2-6.4,0-9.7,0c0,1.2,0,2.4,0,3.6c2.3,0,4.5,0,6.7,0C229.2,33.7,229.9,34.2,229.9,35.7z
			 M367.6,44.7c1.2-0.3,2.7-0.5,4.1-1c2.7-1,4.1-3.3,4.1-6.5c0-3.4-1.3-5.5-4.1-6.7c-2.3-1-4.6-1-7-0.6c-3.7,0.6-5.9,2.9-6.1,6.6
			c-0.2,4.1,1.6,6.7,5.4,7.7C365.1,44.5,366.1,44.5,367.6,44.7z M452.6,44.2c0-1.6,0-3.2,0-4.9c0-1.7,0-3.4,0-5
			c3.6-0.6,4.3-0.1,4.3,3.4c0,0.3,0,0.6,0,0.8c0,1.9,0,3.7,0,5.6c2,0,3.8,0,5.7,0c0-3.1,0.1-6.1,0-9.1c-0.2-2.8-1.7-4.6-4.6-4.8
			c-3.7-0.3-7.4-0.1-11.1-0.1c0,4.7,0,9.3,0,14C448.7,44.2,450.5,44.2,452.6,44.2z M567.2,38.3c3.5,0,6.8,0,10.2,0
			c0-0.7,0-1.3,0-1.8c-0.2-4-2.1-6.1-6-6.6c-1-0.1-2-0.2-2.9-0.1c-5.9,0.3-8.3,4.1-7,9.8c0.5,2.2,2,3.8,4.1,4.1
			c3.5,0.5,7,0.5,10.6,0.7c0-1.5,0-2.7,0-3.9c-2.2,0-4.3,0-6.4,0C568.5,40.5,567.5,40.1,567.2,38.3z M69.8,38.4c0-1.2,0.1-2.1,0-3.1
			c-0.4-3-2.1-4.9-5.1-5.3c-1.5-0.2-3.1-0.3-4.6-0.1c-5.5,0.7-8.2,5.8-5.8,10.8c0.7,1.5,1.9,2.5,3.4,3c3.6,1.1,7.3,0.4,11,0.6
			c0-1.3,0-2.5,0-3.7c-0.5,0-1,0-1.4,0c-1.8,0-3.6,0-5.3,0c-1.3,0-2.1-0.6-2.1-2.1C63.2,38.4,66.4,38.4,69.8,38.4z M123.8,38.4
			c0-1.1,0.1-2.1,0-3.1c-0.3-2.5-1.6-4.3-4.1-5c-2.8-0.8-5.7-0.8-8.4,0.3c-1.8,0.7-3.1,2-3.3,3.9c-0.2,1.7-0.3,3.5,0,5.3
			c0.4,2.1,1.9,3.7,3.9,4c3.5,0.5,7.1,0.5,10.7,0.8c0-1.5,0-2.7,0-3.9c-2.2,0-4.3,0-6.4,0c-1.4,0-2.3-0.6-2.5-2.1
			C117.1,38.4,120.4,38.4,123.8,38.4z M534.1,38.4c0-1,0.1-1.9,0-2.8c-0.3-3-2-5.1-5-5.6c-1.7-0.3-3.6-0.3-5.3-0.1
			c-3.6,0.4-5.5,2.5-5.9,6.1c-0.4,3.7,1,6.6,4,7.6c3.6,1.2,7.4,0.4,11.1,0.7c0-1.4,0-2.5,0-3.7c-0.5,0-1,0-1.4,0c-1.7,0-3.5,0-5.2,0
			c-1.5,0-2.1-0.6-2.2-2.1C527.4,38.4,530.7,38.4,534.1,38.4z M202.3,30.2c-2,0-3.8,0-5.7,0c0,2.7,0.1,5.3,0,8
			c0,1.6-0.7,2.2-2.2,2.1c-1.5,0-2-0.5-2.1-2.2c-0.1-1.4,0-2.7,0-4.1c0-1.3,0-2.6,0-3.9c-2,0-3.8,0-5.7,0c0,3.2-0.2,6.3,0,9.5
			c0.2,2.4,1.7,4,4.1,4.6c2.6,0.6,5.2,0.6,7.8-0.1c2.2-0.6,3.6-2.2,3.7-4.4C202.5,36.5,202.3,33.3,202.3,30.2z M22.8,44.3
			c1.7,0,3.1,0,4.5,0c0.8,0,1.4-0.2,1.9-0.9c0.6-1,1.4-1.9,2.1-2.9c0.8,1.1,1.5,2.1,2.2,3.1c0.2,0.3,0.6,0.7,0.9,0.7
			c2,0.1,4,0,6.2,0c-1.7-2.4-3.3-4.6-4.9-6.7c-0.5-0.6-0.5-1.1,0-1.7c1.1-1.4,2.2-2.8,3.2-4.2c0.3-0.4,0.7-0.9,1-1.4
			c-3.4-0.3-6.6-0.8-7.7,3.5c-0.8-1.1-1.3-1.9-1.9-2.7c-0.3-0.4-0.6-0.9-1-0.9c-2-0.1-4.1,0-6.3,0c1.8,2.4,3.5,4.6,5.1,6.8
			C26.4,39.3,24.7,41.6,22.8,44.3z M48.7,33.7c1.4,0,2.6,0,3.8,0c0-1.3,0-2.4,0-3.6c-1.3,0-2.5,0-3.9,0c0-1.5,0-2.9,0-4.2
			c-2,0-3.9,0-5.8,0c0,1.4,0,2.8,0,4.2c-0.8,0.1-1.5,0.1-2.2,0.1c0,1.2,0,2.4,0,3.5c0.8,0,1.4,0.1,2.2,0.1c0,2-0.1,3.9,0,5.8
			c0.1,2.5,1.2,4.1,3.4,4.4c1.9,0.3,3.9,0.3,5.9,0.4c0-1.5,0-2.7,0-4c-0.5,0-1,0-1.4,0c-1.3,0-2-0.6-2-1.9
			C48.7,36.9,48.7,35.4,48.7,33.7z M248.5,30c-1.4,0-2.6,0-3.8,0c0-1.5,0-2.8,0-4.2c-2,0-3.8,0-5.8,0c0,1.4,0,2.8,0,4.2
			c-0.8,0-1.4,0.1-2.1,0.1c0,1.2,0,2.4,0,3.5c0.8,0,1.4,0.1,2.2,0.1c0,0.6,0,1.2,0,1.7c0,1.5,0,3.1,0.2,4.6c0.2,1.9,1.1,3.4,3.1,3.7
			c2,0.3,4,0.4,6.1,0.5c0-1.5,0-2.7,0-4c-0.7,0-1.4,0.1-2-0.2c-0.5-0.2-1.3-0.8-1.3-1.3c-0.2-1.7-0.1-3.4-0.1-5.3c1.3,0,2.5,0,3.7,0
			C248.5,32.4,248.5,31.3,248.5,30z M604.3,30.1c0-1.5,0-2.9,0-4.3c-1.9,0-3.8,0-5.7,0c0,1.4,0,2.8,0,4.2c-0.8,0-1.5,0.1-2.2,0.1
			c0,1.3,0,2.4,0,3.7c0.8,0,1.5,0,2.2,0c0,2.1-0.1,4,0,5.9c0.1,2.4,1.3,4,3.5,4.3c1.9,0.3,3.8,0.2,5.7,0.3c0-1.5,0-2.7,0-4
			c-0.5,0-0.9,0-1.2,0c-1.7,0-2.2-0.4-2.3-2.1c-0.1-1.5,0-3,0-4.6c1.4,0,2.6,0,3.9,0c0-1.2,0-2.3,0-3.6
			C606.9,30.1,605.7,30.1,604.3,30.1z M218.3,40.4c-1.9,0-3.8,0.1-5.6,0c-2-0.1-2.6-1.1-2.5-3.6c0.1-2,0.9-2.8,2.7-2.8
			c1.8,0,3.5,0,5.4,0c0-1.3,0-2.5,0-3.8c-2.8,0-5.5-0.2-8.2,0c-2.8,0.2-5,1.7-5.6,4.5c-0.7,2.9-0.7,5.8,1.9,8c0.5,0.4,1,0.7,1.6,0.9
			c3.4,1.2,6.9,0.4,10.4,0.7C218.3,42.9,218.3,41.7,218.3,40.4z M419.3,44.2c0-6.9,0-13.7,0-20.5c-2,0-3.8,0-5.7,0
			c0,6.9,0,13.7,0,20.5C415.5,44.2,417.3,44.2,419.3,44.2z M350.9,23.6c0,6.9,0,13.7,0,20.6c1.9,0,3.8,0,5.7,0c0-6.9,0-13.7,0-20.6
			C354.6,23.6,352.8,23.6,350.9,23.6z M250.5,30.1c0,4.7,0,9.4,0,14c2,0,3.9,0,5.8,0c0-4.7,0-9.4,0-14
			C254.3,30.1,252.4,30.1,250.5,30.1z M20.3,22.1c3.9,0,5.9-1.9,6-5.6c0-3.7-2-5.8-5.8-5.8c-3.8,0-5.9,1.9-5.9,5.5
			C14.5,20.2,16.4,22.1,20.3,22.1z M89.8,22.1c3.8,0,5.8-1.9,5.8-5.6c0-3.8-1.9-5.8-5.8-5.8c-3.8,0-5.9,2-5.9,5.7
			C83.9,20.2,86,22.2,89.8,22.1z M65.8,19.6c-0.4,0-0.9,0-1.3,0c-2.3,0-2.9-0.7-2.9-3.1c0-2.3,0.7-3.1,3-3.1c1.2,0,2.5,0,3.7,0
			c0-0.9,0-1.6,0-2.4c-1.8,0-3.6-0.1-5.4,0c-2.9,0.2-4.4,1.8-4.8,4.7c-0.4,2.8,0.8,5.3,3.1,5.8c2.6,0.5,5.2,0.5,7.9,0.6
			c0-2.4,0-4.4,0-6.4c-1.8,0-3.5,0-5.1,0c0,0.7,0,1.3,0,1.9c0.7,0.1,1.3,0.1,1.9,0.1C65.8,18.4,65.8,18.9,65.8,19.6z M70.8,11
			c0,3.7,0,7.3,0,10.9c3.2,0,6.2,0,9.3,0c0-0.8,0-1.6,0-2.4c-2,0-3.9,0-5.8,0c0-0.8,0-1.4,0-2.1c1.7,0,3.2,0,4.8,0
			c0-0.7,0-1.4,0-2.1c-1.7,0-3.2,0-4.8,0c0-0.7,0-1.2,0-1.9c1.9,0,3.7,0,5.5,0c0-0.8,0-1.6,0-2.4C76.8,11,73.9,11,70.8,11z
			 M51.3,13.4c1.9,0,3.7,0,5.6,0c0-0.8,0-1.6,0-2.3c-3.1,0-6.1,0-9.1,0c0,3.7,0,7.3,0,10.9c3.1,0,6.1,0,9.2,0c0-0.8,0-1.5,0-2.4
			c-1.9,0-3.8,0-5.7,0c0-0.8,0-1.3,0-2.1c1.7,0,3.2,0,4.8,0c0-0.8,0-1.4,0-2.1c-1.6,0-3.2,0-4.8,0C51.3,14.6,51.3,14.1,51.3,13.4z
			 M97.3,11c0,3.7,0,7.3,0,10.9c1.2,0,2.2,0,3.4,0c0-1.4,0-2.7,0-4.2c1.7,0,3.3,0,5,0c0-0.7,0-1.4,0-2.1c-1.7,0-3.3,0-4.9,0
			c0-0.8,0-1.5,0-2.3c1.9,0,3.7,0,5.5,0c0-0.9,0-1.6,0-2.4C103.2,11,100.3,11,97.3,11z M13.6,10.9c-1.7,0-3.2-0.1-4.6,0
			c-2.5,0.2-4.2,1.9-4.5,4.4c-0.4,3.3,0.7,5.6,3.2,6.3c1.9,0.5,3.9,0.3,5.9,0.5c0-1.1,0-1.8,0-2.6c-1,0-2,0-2.9,0
			c-2-0.1-2.7-0.8-2.7-3.1c0-2.2,0.7-3,2.7-3.1c1,0,1.9,0,2.9,0C13.6,12.5,13.6,11.8,13.6,10.9z M46.2,19.5c-1.7,0-3.3,0-5,0
			c0-2.9,0-5.7,0-8.5c-1.2,0-2.2,0-3.3,0c0,3.7,0,7.3,0,10.9c2.8,0,5.6,0,8.4,0C46.2,21.1,46.2,20.4,46.2,19.5z M31.2,19.5
			c0-2.9,0-5.7,0-8.5c-1.2,0-2.3,0-3.4,0c0,3.7,0,7.3,0,10.9c2.8,0,5.6,0,8.3,0c0-0.8,0-1.5,0-2.4C34.5,19.5,32.9,19.5,31.2,19.5z
			 M256.3,28c0-1.5,0-2.9,0-4.3c-2.1,0-4,0-6,0c0,1.5,0,2.9,0,4.3C252.3,28,254.3,28,256.3,28z M319.9,50.2c0-4.8,0-9.4,0-14
			c-0.1,0-0.3,0-0.4,0c0,0.5-0.1,1-0.1,1.4c0,3.6,0,7.2,0,10.8c0,0.4-0.5,1.1-0.7,1.1c-1.5,0.1-3,0.1-4.6,0.1c0-2,0-3.9,0-5.6
			c-3,0-5.7,0-8.5,0c0,0.2,0,0.3,0,0.5c2.6,0,5.2,0,7.9,0c0,2.1,0,3.9,0,5.8C315.7,50.2,317.7,50.2,319.9,50.2z"/>
		<path class="st1" d="M347,24.2c0,1.5,0,2.8,0,4.4c-1.1,0-2.1,0-3.2,0c-1.9,0-3.8,0-5.6,0.1c-2.1,0.2-3.3,1.3-3.5,3.4
			c-0.2,1.5-0.2,3.1,0,4.6c0.2,2.1,1.5,3.1,3.6,3.2c1.3,0.1,2.7,0,4.1,0c0-1.2,0-2.2,0-3.4c-1.2,0-2.4,0-3.7,0c0-1.3,0-2.5,0-3.8
			c3.1,0,6.2,0,9.4,0c0,3.8,0,7.5,0,11.5c-1.8,0-3.6,0-5.4,0c-2.2,0-4.3,0-6.5-0.2c-4.7-0.4-7.5-3.3-8-7.9c-0.2-1.5-0.2-3,0.1-4.5
			c0.8-4.6,3.8-7.2,9-7.5C340.5,24.1,343.7,24.2,347,24.2z"/>
		<path class="st1" d="M20.3,32.2c0,1.4,0,2.5,0,3.8c-3.1,0-6,0-9.1,0c0,1.3,0,2.5,0,3.8c3.6,0,7.1,0,10.8,0c0,1.5,0,2.9,0,4.3
			c-5.7,0-11.4,0-17.1,0c0-6.6,0-13.2,0-19.9c5.6,0,11.1,0,16.8,0c0,1.4,0,2.8,0,4.4c-3.5,0-6.9,0-10.4,0c0,1.2,0,2.3,0,3.6
			C14.2,32.2,17.2,32.2,20.3,32.2z"/>
		<path class="st1" d="M444.7,44.2c-5.7,0-11.4,0-17.1,0c0-6.6,0-13.2,0-19.9c5.6,0,11.1,0,16.8,0c0,1.4,0,2.8,0,4.4
			c-3.5,0-6.9,0-10.5,0c0,1.2,0,2.3,0,3.6c3,0,6.1,0,9.1,0c0,1.3,0,2.5,0,3.8c-3,0-6.1,0-9.1,0c0,1.3,0,2.5,0,3.8
			c3.6,0,7.2,0,10.8,0C444.7,41.3,444.7,42.7,444.7,44.2z"/>
		<path class="st1" d="M149.8,24.2c5.6,0,11.1,0,16.7,0c0,1.4,0,2.8,0,4.4c-3.5,0-6.9,0-10.5,0c0,1.2,0,2.3,0,3.6c3,0,6,0,9.1,0
			c0,1.3,0,2.5,0,3.8c-3.1,0-6,0-9.1,0c0,1.3,0,2.4,0,3.8c3.5,0,7.1,0,10.8,0c0,1.6,0,2.9,0,4.4c-5.7,0-11.3,0-17,0
			C149.8,37.6,149.8,31,149.8,24.2z"/>
		<path class="st1" d="M545.2,34.2c-3-0.2-3.4,0.2-3.4,3c0,2.3,0,4.6,0,7c-1.9,0-3.8,0-5.5,0c0-3.4-0.2-6.8,0.1-10.1
			c0.2-2.4,2.4-3.9,5.1-4c4.2-0.1,8.4-0.1,12.7,0c3.2,0.1,5.2,2.1,5.4,5.4c0.1,2.4,0,4.8,0.1,7.2c0,0.5,0,0.9,0,1.5
			c-1.9,0-3.8,0-5.8,0c0-1.5,0-3,0-4.5c0-0.9,0-1.8,0-2.7c0-2.6-0.6-3.1-3.4-2.6c0,3.2,0,6.5,0,9.9c-1.7,0-3.3,0-5.1,0
			C545.2,40.8,545.2,37.6,545.2,34.2z"/>
		<path class="st1" d="M501.7,49.9c0-1.3,0-2.5,0-3.8c2.1,0,4.1,0,6.2,0c1.7,0,2.1-0.5,2.3-2.2c-1.5,0-3,0.1-4.5,0
			c-3.3-0.3-5.3-2.2-5.7-5.5c-0.4-2.8,0-5.4,2.5-7.1c0.8-0.6,1.9-1,2.9-1c3.5-0.1,7.1,0,10.8,0c0,1.8,0,3.5,0,5.2c0,2.7,0,5.3,0,8
			c0,4-1.7,6.1-5.6,6.5C507.6,50.2,504.7,49.9,501.7,49.9z M510.3,33.9c-1.5,0.3-3.2-0.6-4,1.1c-0.7,1.5-0.8,3.2,0.2,4.6
			c0.9,1.3,2.5,0.6,3.8,0.7C510.3,38.1,510.3,36.1,510.3,33.9z"/>
		<path class="st1" d="M480.6,30.1c0,2.1,0,4,0,5.9c0,2.5,0,5,0,7.5c0,4-2,6.3-6,6.5c-2.7,0.2-5.5,0-8.4,0c0-1.3,0-2.5,0-3.9
			c2.1,0,4.2,0,6.2,0c1.3,0,2.2-0.5,2.2-2.1c-1.2,0-2.4,0-3.5,0c-4.7-0.2-7.3-3.1-6.9-7.9c0.3-3.8,2.7-6,6.5-6
			C474,30,477.2,30.1,480.6,30.1z M474.7,33.9c-1.4,0.2-3.1-0.6-3.9,1c-0.8,1.5-0.8,3.2,0.1,4.6c0.9,1.4,2.4,0.7,3.8,0.8
			C474.7,38.1,474.7,36.1,474.7,33.9z"/>
		<path class="st1" d="M377.8,44.2c0-7,0-13.7,0-20.6c1.9,0,3.7,0,5.7,0c0,2.1,0,4.2,0,6.4c1.2,0,2.3,0,3.3,0c4.7,0,7.1,2.2,7.3,6.7
			c0.2,4.3-2.2,7.2-6.6,7.5C384.3,44.4,381.1,44.2,377.8,44.2z M383.5,40.6c1.4-0.2,3.1,0.5,3.9-1c0.8-1.5,0.9-3.2,0-4.7
			c-0.9-1.6-2.5-0.9-4-0.9C383.5,36.2,383.5,38.2,383.5,40.6z"/>
		<path class="st1" d="M105.7,44.1c-3.6,0-7.1,0.2-10.5-0.1c-3.2-0.2-5.1-2.2-5.6-5.4c-0.2-1.4-0.1-2.8,0.2-4.2
			c0.6-2.7,2.9-4.4,5.9-4.4c1.3,0,2.7,0,4.1,0c0-2.2,0-4.2,0-6.4c2,0,3.9,0,5.8,0C105.7,30.5,105.7,37.3,105.7,44.1z M99.8,40.5
			c0-2.2,0-4.3,0-6.5c-3.4-0.3-4.2,0.2-4.3,2.8C95.5,40.1,96.2,40.7,99.8,40.5z"/>
		<path class="st1" d="M178.6,30.1c0-2.2,0-4.3,0-6.4c2,0,3.8,0,5.7,0c0,6.9,0,13.7,0,20.8c-3.9-0.2-7.8-0.3-11.6-0.7
			c-2-0.2-3.3-1.7-4-3.5c-1.3-3.2-0.5-7.4,2-8.9c1.1-0.7,2.5-1,3.8-1.2C175.7,29.9,177.1,30.1,178.6,30.1z M178.5,40.6
			c0-2.3,0-4.4,0-6.6c-1.4,0.2-3.1-0.6-3.9,1c-0.8,1.5-0.8,3.2,0,4.7C175.4,41.1,177,40.4,178.5,40.6z"/>
		<path class="st1" d="M141.5,23.7c0,6.8,0,13.7,0,20.4c-3.5,0-7,0.2-10.4-0.1c-3.9-0.3-6-3.4-5.7-7.7c0.3-4,2.7-6.2,6.6-6.3
			c1.2,0,2.4,0,3.9,0c0-1.1,0-2.2,0-3.2c0-1,0-2.1,0-3.2C137.7,23.7,139.5,23.7,141.5,23.7z M135.8,40.5c0-2.3,0-4.4,0-6.6
			c-1.5,0.2-3.4-0.6-3.9,1.1c-0.5,1.4-0.4,3.2,0.1,4.6C132.5,41.1,134.3,40.4,135.8,40.5z"/>
		<path class="st1" d="M267,29.7c1,0.1,2.2,0.2,3.3,0.5c3.1,0.8,5.1,3.2,5.1,6.2c0.1,4.1-1.3,6.5-4.8,7.6c-2.5,0.8-5.1,0.8-7.6,0
			c-3.3-1-5.1-3.7-4.9-7.3c0.2-3.7,2.2-6.1,5.7-6.7C264.9,29.8,265.9,29.8,267,29.7z M269.5,37.1c0-2.7-0.8-3.7-3-3.6
			c-1.5,0.1-2.2,0.9-2.3,2.6c-0.2,3,0.3,4.2,1.9,4.5C268.5,41.1,269.5,40,269.5,37.1z"/>
		<path class="st1" d="M283.2,34.3c0,3.2,0,6.5,0,9.9c-2,0-3.8,0-5.8,0c0-4.6,0-9.3,0-14c3.7,0,7.3-0.2,10.9,0.1
			c3.2,0.2,4.7,2.2,4.8,5.8c0.1,2.7,0,5.3,0,8.1c-1.9,0-3.8,0-5.8,0c0-2.1,0-4.2,0-6.3C287.4,34.2,287,33.8,283.2,34.3z"/>
		<path class="st1" d="M87.8,44.2c-2,0-3.8,0-5.8,0c0-2,0-4,0-5.9c0-0.6,0-1.2,0-1.8c-0.1-1.8-0.6-2.3-2.4-2.3c-0.5,0-1,0-1.7,0
			c0,3.3,0,6.6,0,10c-2,0-3.9,0-5.8,0c0-4.6,0-9.2,0-14c0.3,0,0.7-0.1,1-0.1c3,0,5.9,0,8.9,0c3.5,0,5.7,1.9,5.9,5.4
			C87.9,38.4,87.8,41.2,87.8,44.2z"/>
		<path class="st1" d="M483.8,33.7c0-1.3,0-2.4,0-3.5c3.4,0,6.8-0.2,10.1,0.1c2.4,0.2,3.9,1.9,4.1,4.3c0.2,3.2,0,6.3,0,9.6
			c-0.3,0-0.6,0.1-1,0.1c-3.3,0-6.7,0.1-10,0c-3.9-0.1-5.7-2.6-4.5-6c0.6-1.7,1.9-2.4,3.6-2.5c1.6-0.1,3.2-0.1,4.8-0.1
			c0.5,0,1,0,1.5,0c0.1-1.5-0.7-1.9-1.9-2C488.4,33.7,486.1,33.7,483.8,33.7z M492.6,38.5c-1.2,0-2.4-0.1-3.5,0.1
			c-0.4,0.1-0.9,0.7-1,1.2c-0.1,0.3,0.6,1,1,1c1.1,0.1,2.3,0,3.5,0C492.6,40,492.6,39.3,492.6,38.5z"/>
		<path class="st1" d="M595.3,44.2c-1.9,0-3.8,0-5.7,0c0-2.2,0-4.3,0-6.4c0-0.6,0-1.1-0.1-1.7c-0.2-1.6-0.7-2-2.3-2
			c-0.6,0-1.2,0-1.9,0c0,3.4,0,6.7,0,10c-2,0-3.8,0-5.8,0c0-4.3,0-8.6,0-12.9c0-0.4,0-0.7,0.1-1.2c3.7,0,7.4-0.2,11,0.1
			c3.1,0.2,4.6,2.2,4.7,5.3c0.1,2.7,0.1,5.3,0.1,8C595.4,43.7,595.3,43.9,595.3,44.2z"/>
		<path class="st1" d="M405.4,35.8c0.1-1.6-0.7-2.1-1.9-2.1c-2.2,0-4.4,0-6.7,0c0-1.2,0-2.3,0-3.6c3.3,0,6.6-0.1,9.8,0
			c2.5,0.1,4.1,1.8,4.3,4.6c0.2,3.1,0.1,6.3,0.1,9.4c-4.2,0-8.3,0.1-12.4-0.1c-2.4-0.1-3.3-1.6-3.3-4.2c0-2.4,1.1-3.8,3.4-4
			C400.9,35.6,403.1,35.8,405.4,35.8z M405.4,38.5c-1.3,0-2.4-0.1-3.5,0.1c-0.4,0.1-0.9,0.7-1,1.2c0,0.3,0.6,0.9,1.1,1
			c1.1,0.1,2.3,0,3.4,0C405.4,39.9,405.4,39.3,405.4,38.5z"/>
		<path class="st1" d="M229.9,35.7c0.1-1.5-0.7-1.9-1.9-2c-2.2,0-4.4,0-6.7,0c0-1.2,0-2.4,0-3.6c3.3,0,6.5-0.1,9.7,0
			c2.8,0.2,4.4,2.1,4.5,5.3c0.1,2.9,0,5.7,0,8.8c-0.5,0-0.9,0-1.4,0c-3.2,0-6.5,0-9.7,0c-3.4-0.1-4.8-1.4-4.7-4.5
			c0-2.3,1.2-3.7,3.5-4c1.1-0.1,2.2-0.1,3.4-0.1C227.7,35.7,228.8,35.7,229.9,35.7z M229.9,38.5c-1.2,0-2.4-0.1-3.4,0.1
			c-0.4,0.1-1,0.7-1.1,1.1c0,0.4,0.6,1,1,1.1c1.1,0.2,2.3,0.1,3.5,0.1C229.9,40,229.9,39.3,229.9,38.5z"/>
		<path class="st1" d="M367.6,44.7c-1.5-0.2-2.5-0.2-3.6-0.5c-3.8-1-5.7-3.6-5.4-7.7c0.2-3.6,2.4-6,6.1-6.6c2.4-0.4,4.7-0.4,7,0.6
			c2.8,1.2,4.1,3.2,4.1,6.7c0,3.2-1.4,5.5-4.1,6.5C370.3,44.2,368.8,44.4,367.6,44.7z M364.5,37.2C364.6,37.2,364.6,37.2,364.5,37.2
			c0.1,0.3,0.1,0.6,0.1,0.8c0.1,1.9,0.9,2.7,2.5,2.7c1.6,0,2.6-0.7,2.7-2.5c0.1-1,0-2-0.2-2.9c-0.3-1.4-1.3-1.8-2.6-1.8
			c-1.3,0-2,0.6-2.3,1.8C364.6,36,364.6,36.6,364.5,37.2z"/>
		<path class="st1" d="M452.6,44.2c-2,0-3.9,0-5.7,0c0-4.7,0-9.3,0-14c3.7,0,7.4-0.2,11.1,0.1c2.9,0.2,4.4,2,4.6,4.8
			c0.2,3,0,6,0,9.1c-1.8,0-3.7,0-5.7,0c0-1.9,0-3.8,0-5.6c0-0.3,0-0.6,0-0.8c0-3.4-0.7-4-4.3-3.4c0,1.6,0,3.3,0,5
			C452.6,40.9,452.6,42.6,452.6,44.2z"/>
		<path class="st1" d="M567.2,38.3c0.3,1.8,1.2,2.2,2.5,2.2c2.1,0,4.2,0,6.4,0c0,1.2,0,2.4,0,3.9c-3.6-0.2-7.1-0.3-10.6-0.7
			c-2.2-0.3-3.6-1.9-4.1-4.1c-1.3-5.7,1.1-9.6,7-9.8c1,0,2,0,2.9,0.1c4,0.5,5.9,2.6,6,6.6c0,0.6,0,1.1,0,1.8
			C574.1,38.3,570.7,38.3,567.2,38.3z M571.8,35.6c-0.1-1.9-0.6-2.5-2.2-2.6c-1.6,0-2.2,0.6-2.5,2.6
			C568.7,35.6,570.2,35.6,571.8,35.6z"/>
		<path class="st1" d="M69.8,38.4c-3.4,0-6.7,0-10,0c0,1.5,0.9,2.1,2.1,2.1c1.8,0.1,3.6,0,5.3,0c0.5,0,0.9,0,1.4,0
			c0,1.3,0,2.4,0,3.7c-3.7-0.2-7.4,0.5-11-0.6c-1.5-0.5-2.7-1.5-3.4-3c-2.4-5,0.3-10.2,5.8-10.8c1.5-0.2,3.1-0.1,4.6,0.1
			c3,0.4,4.7,2.3,5.1,5.3C69.9,36.3,69.8,37.3,69.8,38.4z M64.3,35.6c0-1.9-0.6-2.5-2.2-2.6c-1.7,0-2.3,0.6-2.4,2.6
			C61.3,35.6,62.8,35.6,64.3,35.6z"/>
		<path class="st1" d="M123.8,38.4c-3.4,0-6.7,0-10.1,0c0.2,1.6,1.1,2.1,2.5,2.1c2.1,0,4.2,0,6.4,0c0,1.2,0,2.4,0,3.9
			c-3.6-0.2-7.2-0.3-10.7-0.8c-2.1-0.3-3.6-1.9-3.9-4c-0.3-1.7-0.3-3.5,0-5.3c0.3-1.9,1.6-3.2,3.3-3.9c2.8-1.1,5.6-1.1,8.4-0.3
			c2.5,0.7,3.8,2.5,4.1,5C123.9,36.3,123.8,37.3,123.8,38.4z M118.4,35.7c-0.2-2.1-0.8-2.7-2.6-2.6c-1.4,0.1-2,0.9-2,2.6
			C115.3,35.7,116.8,35.7,118.4,35.7z"/>
		<path class="st1" d="M534.1,38.4c-3.4,0-6.7,0-10,0c0.1,1.5,0.6,2.1,2.2,2.1c1.7,0.1,3.5,0,5.2,0c0.5,0,0.9,0,1.4,0
			c0,1.3,0,2.4,0,3.7c-3.7-0.2-7.5,0.6-11.1-0.7c-2.9-1-4.4-3.9-4-7.6c0.4-3.6,2.3-5.6,5.9-6.1c1.7-0.2,3.6-0.2,5.3,0.1
			c3,0.5,4.8,2.5,5,5.6C534.2,36.5,534.1,37.4,534.1,38.4z M528.7,35.6c-0.3-2.1-0.8-2.6-2.5-2.6c-1.5,0.1-2.1,0.7-2.2,2.6
			C525.5,35.6,527.1,35.6,528.7,35.6z"/>
		<path class="st1" d="M202.3,30.2c0,3.2,0.1,6.3,0,9.4c-0.1,2.3-1.5,3.8-3.7,4.4c-2.6,0.7-5.2,0.7-7.8,0.1
			c-2.4-0.6-3.9-2.1-4.1-4.6c-0.2-3.1,0-6.3,0-9.5c1.9,0,3.7,0,5.7,0c0,1.3,0,2.6,0,3.9c0,1.4,0,2.7,0,4.1c0.1,1.7,0.6,2.2,2.1,2.2
			c1.5,0,2.1-0.5,2.2-2.1c0.1-2.6,0-5.2,0-8C198.6,30.2,200.4,30.2,202.3,30.2z"/>
		<path class="st1" d="M22.8,44.3c1.9-2.6,3.7-4.9,5.5-7.3c-1.7-2.2-3.3-4.4-5.1-6.8c2.3,0,4.3,0,6.3,0c0.3,0,0.7,0.5,1,0.9
			c0.6,0.8,1.1,1.6,1.9,2.7c1.1-4.3,4.3-3.8,7.7-3.5c-0.4,0.5-0.7,1-1,1.4c-1.1,1.4-2.1,2.9-3.2,4.2c-0.5,0.6-0.5,1.1,0,1.7
			c1.6,2.1,3.1,4.3,4.9,6.7c-2.2,0-4.2,0-6.2,0c-0.3,0-0.7-0.4-0.9-0.7c-0.7-1-1.4-2-2.2-3.1c-0.7,1-1.5,1.9-2.1,2.9
			c-0.5,0.7-1,1-1.9,0.9C25.9,44.2,24.5,44.3,22.8,44.3z"/>
		<path class="st1" d="M48.7,33.7c0,1.7,0,3.2,0,4.8c0,1.3,0.7,2,2,1.9c0.5,0,0.9,0,1.4,0c0,1.3,0,2.5,0,4c-2-0.1-4-0.1-5.9-0.4
			c-2.1-0.4-3.3-1.9-3.4-4.4c-0.1-1.9,0-3.8,0-5.8c-0.8,0-1.5-0.1-2.2-0.1c0-1.2,0-2.3,0-3.5c0.7,0,1.4-0.1,2.2-0.1
			c0-1.4,0-2.7,0-4.2c2,0,3.8,0,5.8,0c0,1.4,0,2.7,0,4.2c1.4,0,2.6,0,3.9,0c0,1.2,0,2.3,0,3.6C51.3,33.7,50.1,33.7,48.7,33.7z"/>
		<path class="st1" d="M248.5,30c0,1.3,0,2.4,0,3.7c-1.2,0-2.4,0-3.7,0c0,1.8-0.1,3.6,0.1,5.3c0,0.5,0.8,1.1,1.3,1.3
			c0.6,0.2,1.3,0.1,2,0.2c0,1.2,0,2.4,0,4c-2.1-0.2-4.1-0.2-6.1-0.5c-2-0.3-2.8-1.9-3.1-3.7c-0.2-1.5-0.1-3.1-0.2-4.6
			c0-0.6,0-1.1,0-1.7c-0.8,0-1.4-0.1-2.2-0.1c0-1.2,0-2.3,0-3.5c0.7,0,1.3-0.1,2.1-0.1c0-1.4,0-2.8,0-4.2c2,0,3.9,0,5.8,0
			c0,1.4,0,2.7,0,4.2C246,30,247.2,30,248.5,30z"/>
		<path class="st1" d="M604.3,30.1c1.4,0,2.6,0,4,0c0,1.2,0,2.3,0,3.6c-1.3,0-2.5,0-3.9,0c0,1.6-0.1,3.1,0,4.6
			c0.1,1.7,0.5,2.1,2.3,2.1c0.4,0,0.7,0,1.2,0c0,1.3,0,2.5,0,4c-1.9-0.1-3.9-0.1-5.7-0.3c-2.1-0.3-3.4-1.9-3.5-4.3
			c-0.1-1.9,0-3.8,0-5.9c-0.8,0-1.4,0-2.2,0c0-1.3,0-2.4,0-3.7c0.7,0,1.4-0.1,2.2-0.1c0-1.4,0-2.8,0-4.2c2,0,3.8,0,5.7,0
			C604.3,27.2,604.3,28.6,604.3,30.1z"/>
		<path class="st1" d="M218.3,40.4c0,1.3,0,2.5,0,3.9c-3.5-0.3-7,0.5-10.4-0.7c-0.6-0.2-1.1-0.5-1.6-0.9c-2.6-2.2-2.6-5.1-1.9-8
			c0.7-2.9,2.9-4.3,5.6-4.5c2.7-0.2,5.4,0,8.2,0c0,1.3,0,2.5,0,3.8c-1.8,0-3.6,0-5.4,0c-1.9,0-2.6,0.8-2.7,2.8
			c-0.1,2.5,0.5,3.5,2.5,3.6C214.5,40.5,216.4,40.4,218.3,40.4z"/>
		<path class="st1" d="M419.3,44.2c-2,0-3.8,0-5.7,0c0-6.9,0-13.7,0-20.5c1.9,0,3.8,0,5.7,0C419.3,30.4,419.3,37.2,419.3,44.2z"/>
		<path class="st1" d="M350.9,23.6c1.9,0,3.8,0,5.7,0c0,6.9,0,13.7,0,20.6c-1.9,0-3.7,0-5.7,0C350.9,37.3,350.9,30.5,350.9,23.6z"/>
		<path class="st1" d="M250.5,30.1c1.9,0,3.8,0,5.8,0c0,4.7,0,9.3,0,14c-1.9,0-3.8,0-5.8,0C250.5,39.5,250.5,34.8,250.5,30.1z"/>
		<path class="st1" d="M20.3,22.1c-3.9,0-5.8-1.9-5.8-5.9c0-3.6,2.1-5.5,5.9-5.5c3.8,0,5.9,2,5.8,5.8C26.2,20.2,24.2,22.2,20.3,22.1
			z M22.7,16.5c0-2.3-0.6-3.2-2.1-3.4c-1.4-0.1-2.2,0.5-2.5,1.9c-0.5,2.4,0.1,4.2,1.4,4.5c0.1,0,0.2,0,0.3,0.1
			C21.8,20,22.7,19.1,22.7,16.5z"/>
		<path class="st1" d="M89.8,22.1c-3.9,0-5.9-1.9-5.9-5.7c0-3.7,2.1-5.7,5.9-5.7c3.9,0,5.8,1.9,5.8,5.8
			C95.6,20.2,93.7,22.1,89.8,22.1z M92.2,16.4c0-2.3-0.7-3.3-2.3-3.3c-1.4,0-2.2,0.7-2.4,2.2c-0.3,2.2,0.2,3.9,1.4,4.3
			c0.1,0,0.2,0,0.3,0.1C91.2,20,92.2,19,92.2,16.4z"/>
		<path class="st1" d="M65.8,19.6c0-0.7,0-1.2,0-1.8c-0.6,0-1.2-0.1-1.9-0.1c0-0.6,0-1.2,0-1.9c1.6,0,3.3,0,5.1,0c0,2,0,4,0,6.4
			c-2.6-0.2-5.3-0.1-7.9-0.6c-2.3-0.5-3.4-3-3.1-5.8c0.4-2.9,1.9-4.5,4.8-4.7c1.8-0.1,3.5,0,5.4,0c0,0.8,0,1.5,0,2.4
			c-1.2,0-2.5,0-3.7,0c-2.2,0-3,0.8-3,3.1c0,2.4,0.7,3.1,2.9,3.1C64.9,19.6,65.3,19.6,65.8,19.6z"/>
		<path class="st1" d="M70.8,11c3.1,0,6,0,9,0c0,0.8,0,1.5,0,2.4c-1.8,0-3.6,0-5.5,0c0,0.7,0,1.3,0,1.9c1.6,0,3.1,0,4.8,0
			c0,0.7,0,1.3,0,2.1c-1.5,0-3.1,0-4.8,0c0,0.8,0,1.4,0,2.1c1.9,0,3.8,0,5.8,0c0,0.9,0,1.6,0,2.4c-3.1,0-6.1,0-9.3,0
			C70.8,18.3,70.8,14.7,70.8,11z"/>
		<path class="st1" d="M51.3,13.4c0,0.7,0,1.3,0,1.9c1.6,0,3.2,0,4.8,0c0,0.7,0,1.4,0,2.1c-1.5,0-3.1,0-4.8,0c0,0.7,0,1.3,0,2.1
			c1.9,0,3.8,0,5.7,0c0,0.9,0,1.6,0,2.4c-3.1,0-6.1,0-9.2,0c0-3.6,0-7.2,0-10.9c3,0,6,0,9.1,0c0,0.8,0,1.5,0,2.3
			C55,13.4,53.2,13.4,51.3,13.4z"/>
		<path class="st1" d="M97.3,11c3,0,5.9,0,8.9,0c0,0.8,0,1.5,0,2.4c-1.8,0-3.6,0-5.5,0c0,0.8,0,1.5,0,2.3c1.7,0,3.3,0,4.9,0
			c0,0.8,0,1.4,0,2.1c-1.6,0-3.2,0-5,0c0,1.4,0,2.7,0,4.2c-1.2,0-2.3,0-3.4,0C97.3,18.3,97.3,14.7,97.3,11z"/>
		<path class="st1" d="M13.6,10.9c0,0.9,0,1.5,0,2.4c-1,0-1.9,0-2.9,0c-2,0.1-2.7,0.8-2.7,3.1c0,2.3,0.7,3,2.7,3.1
			c0.9,0,1.9,0,2.9,0c0,0.8,0,1.5,0,2.6c-2-0.1-4,0-5.9-0.5c-2.5-0.6-3.6-3-3.2-6.3c0.3-2.5,2-4.2,4.5-4.4
			C10.4,10.8,11.9,10.9,13.6,10.9z"/>
		<path class="st1" d="M300.5,41.8c-1.4-2.4-1.3-6,1.4-7.7c-0.6-1.4-1.4-2.6-1.6-3.9c-0.4-3.3,1.6-5.8,5-6c3.9-0.2,7.9-0.1,11.9-0.1
			c0,1.5,0,3,0,4.8c-2.6,0-5.3,0-7.9,0c-0.5,0-1.1-0.1-1.4,0.1c-0.5,0.4-1.2,1-1.2,1.5c0,0.7,0.5,1.5,1.5,1.4c1.1-0.1,2.2,0,3.4,0
			c0,1.5,0,2.8,0,4.3c-1,0-1.9,0-2.9,0c-1.7,0-2.5,0.5-2.5,1.6c0,1.1,0.6,1.6,2.4,1.7c1.5,0.1,3,0,4.7,0c0-2.5,0-5,0-7.6
			c3,0,5.9,0,8.7,0c0,0.1,0,0.2,0,0.4c-2.6,0-5.2,0-8,0c0,2.7,0,5.1,0,7.6c-2.4,0-4.7,0.1-6.9,0c-1.2-0.1-1.7-1.2-1.5-2.6
			c0.2-1.2,0.9-1.6,2.3-1.5c0.5,0,1-0.2,1.5-0.2c0.5-0.1,0.9-0.1,1.5-0.1c0-0.5,0-0.9,0.1-1.4c0-0.5,0-0.9,0-1.6c-1,0-1.8,0-2.7,0
			c-1.6-0.1-2.1-0.7-2.1-2.1c0-1.4,0.6-2.1,2.2-2.1c2.7,0,5.4,0,8.2,0c0-1.3,0-2.4,0-3.4c-3.9,0-7.9-0.3-11.8,0.1
			c-3.1,0.3-4.6,3-3.8,6c0.4,1.6,1.7,2.3,3.2,2.8c-1.7,0.7-3.3,1.3-3.7,3.2c-0.2,1-0.1,2.1-0.1,3.2c0,0.5,0.2,0.9,0.2,1.4
			C300.6,41.6,300.5,41.7,300.5,41.8z"/>
		<path class="st1" d="M46.2,19.5c0,0.9,0,1.6,0,2.4c-2.8,0-5.5,0-8.4,0c0-3.6,0-7.2,0-10.9c1.1,0,2.1,0,3.3,0c0,2.8,0,5.6,0,8.5
			C42.9,19.5,44.6,19.5,46.2,19.5z"/>
		<path class="st1" d="M31.2,19.5c1.7,0,3.3,0,4.9,0c0,0.9,0,1.6,0,2.4c-2.7,0-5.5,0-8.3,0c0-3.6,0-7.2,0-10.9c1.1,0,2.1,0,3.4,0
			C31.2,13.8,31.2,16.6,31.2,19.5z"/>
		<path class="st1" d="M256.3,28c-2,0-4,0-6,0c0-1.4,0-2.8,0-4.3c2,0,3.9,0,6,0C256.3,25,256.3,26.4,256.3,28z"/>
		<path class="st1" d="M319.9,50.2c-2.2,0-4.3,0-6.5,0c0-1.9,0-3.7,0-5.8c-2.7,0-5.3,0-7.9,0c0-0.2,0-0.3,0-0.5c2.8,0,5.5,0,8.5,0
			c0,1.7,0,3.6,0,5.6c1.6,0,3.1,0.1,4.6-0.1c0.3,0,0.7-0.7,0.7-1.1c0.1-3.6,0-7.2,0-10.8c0-0.5,0-1,0.1-1.4c0.1,0,0.3,0,0.4,0
			C319.9,40.8,319.9,45.5,319.9,50.2z"/>
		<path class="st1" d="M300.7,41.5c1.5,0.9,3,1.9,4.3,2.7c-1,0.6-3.5-0.6-4.6-2.4C300.5,41.7,300.6,41.6,300.7,41.5z"/>
		<path class="st0" d="M510.3,33.9c0,2.3,0,4.2,0,6.4c-1.3-0.1-2.8,0.6-3.8-0.7c-1-1.4-0.9-3.1-0.2-4.6
			C507.1,33.2,508.8,34.2,510.3,33.9z"/>
		<path class="st0" d="M474.7,33.9c0,2.2,0,4.2,0,6.3c-1.4-0.1-2.9,0.6-3.8-0.8c-0.9-1.4-0.9-3.1-0.1-4.6
			C471.6,33.3,473.3,34.1,474.7,33.9z"/>
		<path class="st0" d="M383.5,40.6c0-2.4,0-4.4,0-6.6c1.4,0.1,3.1-0.6,4,0.9c0.8,1.5,0.8,3.2,0,4.7C386.6,41.1,385,40.4,383.5,40.6z
			"/>
		<path class="st0" d="M99.8,40.5c-3.7,0.2-4.4-0.4-4.3-3.7c0.1-2.6,0.9-3.1,4.3-2.8C99.8,36.1,99.8,38.3,99.8,40.5z"/>
		<path class="st0" d="M178.5,40.6c-1.4-0.1-3.1,0.6-3.9-1c-0.8-1.5-0.9-3.2,0-4.7c0.9-1.6,2.5-0.8,3.9-1
			C178.5,36.1,178.5,38.2,178.5,40.6z"/>
		<path class="st0" d="M135.8,40.5c-1.4-0.1-3.3,0.6-3.9-1c-0.5-1.4-0.6-3.2-0.1-4.6c0.6-1.7,2.5-0.9,3.9-1.1
			C135.8,36.1,135.8,38.2,135.8,40.5z"/>
		<path class="st0" d="M269.5,37.1c0,2.8-1.1,4-3.3,3.6c-1.6-0.3-2.1-1.6-1.9-4.5c0.1-1.8,0.8-2.6,2.3-2.6
			C268.7,33.5,269.5,34.4,269.5,37.1z"/>
		<path class="st0" d="M492.6,38.5c0,0.8,0,1.5,0,2.3c-1.2,0-2.4,0.1-3.5,0c-0.4,0-1-0.7-1-1c0.1-0.5,0.6-1.1,1-1.2
			C490.2,38.4,491.3,38.5,492.6,38.5z"/>
		<path class="st0" d="M405.4,38.5c0,0.8,0,1.4,0,2.3c-1.1,0-2.3,0.1-3.4,0c-0.4,0-1.1-0.7-1.1-1c0.1-0.5,0.6-1.1,1-1.2
			C403,38.4,404.1,38.5,405.4,38.5z"/>
		<path class="st0" d="M229.9,38.5c0,0.8,0,1.5,0,2.3c-1.2,0-2.3,0.1-3.5-0.1c-0.4-0.1-1.1-0.7-1-1.1c0-0.4,0.6-1,1.1-1.1
			C227.6,38.4,228.7,38.5,229.9,38.5z"/>
		<path class="st0" d="M364.5,37.2c0.1-0.6,0.1-1.2,0.2-1.8c0.3-1.2,1-1.8,2.3-1.8c1.3,0,2.4,0.4,2.6,1.8c0.2,1,0.3,2,0.2,2.9
			c-0.2,1.8-1.1,2.6-2.7,2.5c-1.6,0-2.4-0.9-2.5-2.7C364.6,37.8,364.6,37.5,364.5,37.2C364.6,37.2,364.6,37.2,364.5,37.2z"/>
		<path class="st0" d="M571.8,35.6c-1.6,0-3.1,0-4.7,0c0.2-2,0.9-2.6,2.5-2.6C571.2,33.1,571.7,33.7,571.8,35.6z"/>
		<path class="st0" d="M64.3,35.6c-1.5,0-3,0-4.5,0c0.1-1.9,0.7-2.6,2.4-2.6C63.7,33.1,64.3,33.8,64.3,35.6z"/>
		<path class="st0" d="M118.4,35.7c-1.6,0-3.1,0-4.7,0c0-1.7,0.6-2.5,2-2.6C117.5,33,118.1,33.5,118.4,35.7z"/>
		<path class="st0" d="M528.7,35.6c-1.6,0-3.2,0-4.7,0c0.1-1.9,0.7-2.5,2.2-2.6C527.9,33,528.4,33.5,528.7,35.6z"/>
		<path class="st0" d="M22.7,16.5c0,2.6-0.9,3.5-2.9,3.2c-0.1,0-0.2,0-0.3-0.1c-1.3-0.4-1.8-2.1-1.4-4.5c0.3-1.4,1.1-2,2.5-1.9
			C22.1,13.3,22.7,14.2,22.7,16.5z"/>
		<path class="st0" d="M92.2,16.4c0,2.6-1,3.6-3,3.2c-0.1,0-0.2,0-0.3-0.1c-1.2-0.4-1.8-2.1-1.4-4.3c0.2-1.5,1-2.2,2.4-2.2
			C91.5,13.2,92.2,14.2,92.2,16.4z"/>
	</g>
</g>
</svg>
