<svg id="Layer_1" data-name="Layer 1" xmlns="http://www.w3.org/2000/svg" viewBox="0 0 612.04 64.22"><defs><style>.cls-1{fill:#fefefe;}.cls-2{fill:#28572a;}.cls-3{fill:#b8baba;}</style></defs><title>ceege-one-line-HSU copy</title><path class="cls-1" d="M612.21,467.51c0,7.65,0,15.3,0,22.95,0,.72-.13.87-.87.87q-26.93,0-53.86,0-278.14,0-556.28,0c-.87,0-1-.18-1-1q0-31.12,0-62.26c0-.76.15-.92.92-.92q305.13,0,610.25,0c.74,0,.88.15.87.87,0,7.58,0,15.16,0,22.74l-1.48,0H2.38a4.7,4.7,0,0,1-.75,0c-.91-.13-1.25.15-1.23,1.17.06,4.82,0,9.63,0,14.45,0,.88.14,1.17,1.13,1.17Q306.87,467.5,612.21,467.51Z" transform="translate(-0.19 -427.12)"/><path class="cls-2" d="M612.21,467.51q-305.34,0-610.68,0c-1,0-1.13-.29-1.13-1.17,0-4.82.06-9.63,0-14.45,0-1,.32-1.3,1.23-1.17a4.7,4.7,0,0,0,.75,0H610.73l1.48,0ZM204.56,457.36h-.29a7.82,7.82,0,0,1-1.16-2.66c0-1-.43-.87-1-.87-2.69,0-5.38,0-8.07,0-2.44,0-2.44,0-2.34,2.49,0,.06.06.11.16.28.53-.87,1.36-.55,2.11-.61.36,0,.5.15.5.51,0,2.19-.06,4.38,0,6.58,0,.54-.92.91-.34,1.32.38.27,1.09.08,1.66.09h.32c.76,0,1.84.25.9-1.13a1.29,1.29,0,0,1-.08-.63c0-1.77-.08-3.53-.08-5.3,0-.46-.3-1.16.23-1.34a2.61,2.61,0,0,1,2.06.1c.16.08.18.44.59.16v-2.28c1.07,1.48,1.71,3,2.59,4.35s.89,3.13.87,4.79c0,.49-.92.8-.33,1.21.36.25,1,.06,1.55.07h1.07c.5,0,.94,0,.43-.68a2.46,2.46,0,0,1-.33-1.31,6.82,6.82,0,0,1,1.09-4.53c.85-1.3,1.59-2.68,2.44-4.13-1,0-1.77,0-2.58,0-.25,0-.61-.12-.61.36C205.89,455.46,205,456.29,204.56,457.36ZM28.48,460.3c.66,1.08,1.34,2.15,2,3.24.38.64.66.75,1.08,0,.66-1.14,1.37-2.25,2.18-3.55.11,1.35.48,2.54.21,3.56s.13.93.77.9h.75c1.42,0,1.42,0,1.09-1.3-.08-.3-.14-.62-.19-.93-.36-2.59-.71-5.18-1.08-7.77,0-.25.15-.65-.27-.68s-.33.3-.45.52c-1.06,2-2.45,3.77-3.47,6.07-.91-2.33-2.38-4.08-3.37-6.11-.11-.22-.19-.5-.49-.46s-.22.31-.24.51c-.15,1.13-.25,2.26-.45,3.37-.39,2.1-.26,4.3-1.23,6.29-.13.25-.06.51.31.49a17.55,17.55,0,0,0,2.87-.1C27.55,463,28.36,461.65,28.48,460.3ZM8.36,453.9H5.07A3.83,3.83,0,0,1,5.53,456c0,2.12,0,4.25,0,6.37a2,2,0,0,1-.38,1.59c-.26.27-.16.53.26.54H8.06c.33,0,.54-.21.34-.43-.75-.82-.33-1.82-.49-2.72S8,460.1,9,460.12c3,.06,2.94,0,2.57,3-.06.47-.93.89-.24,1.3.39.23,1,.06,1.57.05s1.11.13,1.44-.11-.37-.66-.31-1.1a1.15,1.15,0,0,0,0-.32c-.09-2.55-.09-5.09,0-7.64a3.25,3.25,0,0,1,.41-1.41H11.1a4.82,4.82,0,0,1,.27.61,4.69,4.69,0,0,1,.1,3.21c-.33.64-1.62.13-2.48.23-.17,0-.35,0-.53,0-.46.05-.64-.13-.58-.6C8,456.22,7.72,455,8.36,453.9Zm42.88-.22c-2.64-.23-5.38,2.69-5.38,5.5a5.63,5.63,0,0,0,5.34,5.42A5.62,5.62,0,0,0,56.5,459C56.5,456.2,53.89,453.46,51.24,453.68Zm13.27.21a3.47,3.47,0,0,1,.63,2.16c0,2,0,4.09,0,6.14a2.38,2.38,0,0,1-.22,1.45c-.53.71-.1.67.44.72a12.54,12.54,0,0,0,4-.2,5.25,5.25,0,0,0-.41-10.35C67.47,453.7,66.08,453.91,64.51,453.89Zm77,5.18c.3.33.59.68.92,1,1.44,1.3,2.89,2.6,4.36,3.88.22.19.27.71.66.56s.2-.63.21-1c0-1.8,0-3.61,0-5.41,0-1.3-.25-2.63.27-3.89.12-.28,0-.41-.22-.41a9.59,9.59,0,0,0-2.68.1c.64,1.8.33,3.59.4,5.53l-.81-.88c-1.47-1.62-3.32-2.85-4.73-4.54a.62.62,0,0,0-.45-.23c-.28,0-.23.31-.23.51,0,1.52,0,3,0,4.57a39.18,39.18,0,0,1-.12,4.34c-.14,1.29-.26,1.28,1.15,1.28h1.17c.36,0,.58-.13.38-.51C140.94,462.42,141.55,460.75,141.49,459.07Zm-7.26-5.27c.8,2.31.51,4.54.37,6.73a1.58,1.58,0,0,1-1.81,1.53,1.6,1.6,0,0,1-1.68-1.68,21.09,21.09,0,0,1,.07-5.39c.33-1.49-.34-1.22-1.15-1.2h-.43c-1.29,0-1.29,0-1.08,1.3a4.36,4.36,0,0,1,0,.63c0,1.52,0,3,0,4.56a4.18,4.18,0,0,0,8.26,1.08,15.06,15.06,0,0,0,.23-2.21c.08-1.65-.3-3.33.29-4.94.16-.43-.1-.41-.35-.41Zm40.58,6.78a17.59,17.59,0,0,1,1.45,2.32c.69,1.57,1.94,1.76,3.4,1.6.17,0,.37,0,.44-.19s0-.32-.19-.45a26.26,26.26,0,0,1-2.33-3c-.35-.46-.45-.73,0-1.3,2-2.27.87-4.9-1.21-5.6-1.29-.43-2.67-.13-4-.14-.3,0-.5.09-.4.52.62,2.83.22,5.69.31,8.55,0,.55-.74,1.14-.23,1.51s1.16.09,1.76.11h.53c.48,0,.6-.16.45-.65A5.29,5.29,0,0,1,174.81,460.58ZM15.66,453.89a3.81,3.81,0,0,1,.49,2.25,42.86,42.86,0,0,0,.17,5.19c.34,2.34,3.68,4.06,5.77,2.84a4.8,4.8,0,0,0,2.54-4.4c.09-1.95-.24-3.93.33-5.85H21.8a5.56,5.56,0,0,1,.5,3.17,31.91,31.91,0,0,1-.07,3.39,1.65,1.65,0,0,1-1.67,1.61,1.58,1.58,0,0,1-1.82-1.28,19.89,19.89,0,0,1,.18-6.92Zm22.51,0a45.47,45.47,0,0,1,.1,9.68.3.3,0,0,1,0,.1c-.42.45-.17.61.29.7a7.76,7.76,0,0,0,4.82-.62,2.47,2.47,0,0,0,.79-4.05c-.18-.2-.31-.49-.54-.61-.51-.28-.25-.43,0-.65a2.17,2.17,0,0,0,.69-2.58,2.7,2.7,0,0,0-2.24-1.95A28.13,28.13,0,0,0,38.17,453.87Zm84.33,6.57v-2.72a4.47,4.47,0,0,1-1.81.28c-.77.07-.77-.41-.73-.94s-.2-1.11.7-1.07a3.92,3.92,0,0,1,2.4.55c0-.85,0-1.48,0-2.12,0-.36-.06-.62-.5-.62h-5c-.23,0-.48,0-.36.41.65,2.47.25,5,.31,7.49a3.63,3.63,0,0,1-.42,2.35c-.33.49.21.45.5.45h3.19c2.45,0,2.45,0,2.41-2.46,0-.06,0-.12-.1-.25a3.65,3.65,0,0,1-2.42.45c-.46,0-.69-.13-.73-.65-.12-1.38.18-1.69,1.57-1.46A7.13,7.13,0,0,1,122.5,460.44Zm47.1-2.7a5.44,5.44,0,0,1-1.76.26c-.84.09-.81-.42-.79-1s-.14-1.09.74-1a4.18,4.18,0,0,1,2.32.48c0-.71,0-1.27.1-1.83s-.21-.87-.84-.86c-1.24,0-2.48,0-3.72,0s-1.33,0-1.08,1.25a3.4,3.4,0,0,1,.08.63c0,2.3,0,4.6,0,6.9a2.11,2.11,0,0,1-.33,1.31c-.44.59,0,.62.42.62h3.18c2.54,0,2.54,0,2.28-2.61a5.71,5.71,0,0,1-2.56.35c-.38,0-.54-.16-.59-.56-.18-1.41.15-1.76,1.56-1.56.32.05.64.17,1,.26Zm-62.11,6.76c.48-.11,1.26.31,1.59-.22s-.46-.85-.65-1.34c-1.15-2.85-2.34-5.68-3.52-8.53-.11-.28-.1-.72-.5-.69s-.34.46-.48.74c-1.46,3.09-2.36,6.44-4.14,9.39-.28.46-.17.65.35.65.67,0,1.35,0,2,0s.81-.1.61-.74.11-1.06.86-1c.46,0,.92,0,1.38,0,.72,0,1,.4.8,1s.1.77.64.75Zm46-10.62c1.91,3.41,3.2,7,4.86,10.42.06.13.11.27.27.27s.27-.28.35-.46c1.27-2.88,2.55-5.75,3.79-8.63.23-.53.73-.94.77-1.64-.54,0-1,0-1.53,0-.8,0-1.91-.38-1.59,1.19,0,.2-.16.46-.25.69l-1.53,3.77c-.42-2-1.87-3.53-1.81-5.62Zm-71.28,2.78a17.72,17.72,0,0,1,0-2c.08-.72-.22-.89-.9-.87-1.59,0-3.18,0-4.77,0-2.52,0-2.52,0-2.32,2.56,0,0,0,.06.13.24.43-.83,1.18-.6,1.86-.67s.81.25.8.86c0,1.95-.09,3.9,0,5.83,0,.67-1,1.31-.23,1.76.52.32,1.38.06,2.09.06h.21c.68,0,1.13,0,.49-.83a1.57,1.57,0,0,1-.16-.91c0-1.77-.07-3.53-.08-5.3,0-1.58,0-1.56,1.55-1.47A2.18,2.18,0,0,1,82.16,456.66Zm26,0a4.09,4.09,0,0,1,.47-.44,2.34,2.34,0,0,1,2-.14c.47.16.2.82.21,1.26,0,1.52,0,3,0,4.56a3.18,3.18,0,0,1-.41,2c-.3.4,0,.55.4.55h1.69c.7,0,1.8.29.87-1.08a2.07,2.07,0,0,1-.12-1c0-1.66,0-3.32,0-5,0-1.33.89-1.85,2.16-1.27.2.09.26.46.64.29,0-.54,0-1.1,0-1.66.07-.73-.17-1-.93-1-1.59.05-3.19,0-4.78,0C107.73,453.79,107.73,453.79,108.15,456.68Zm-7.17,0c0-.91,0-1.58,0-2.25,0-.46-.19-.64-.63-.64h-6.8c-.38,0-.6.13-.59.55,0,.72,0,1.45,0,2.33l.4-.3a2.13,2.13,0,0,1,2.2-.27c.52.14.21.88.23,1.34a25.41,25.41,0,0,1,0,2.76c-.09,1.28.23,2.61-.47,3.83-.21.36.13.47.45.47h1.7c.7,0,1.8.31.84-1.07a2.4,2.4,0,0,1-.13-1.25c0-1.59,0-3.18,0-4.78,0-1.38,1-1.91,2.23-1.19A4.67,4.67,0,0,1,101,456.69Zm-9.39.12c0-.84.11-1.51.13-2.17,0-.31,0-.6-.4-.75a3.81,3.81,0,0,0-4,1.23,3.17,3.17,0,0,0,.06,3.75,10.11,10.11,0,0,0,1.89,1.81.93.93,0,0,1,.34,1.13c-.19.41-.59.45-1,.48a2,2,0,0,1-1.85-1.06c0,.72-.08,1.2-.1,1.69,0,1.17.31,1.54,1.5,1.62a3.82,3.82,0,0,0,1.17,0c2.2-.56,3.73-2.32,2.42-4.71a8,8,0,0,0-2-2.1c-.4-.35-.73-.77-.36-1.28a1.1,1.1,0,0,1,1.52-.24A6.13,6.13,0,0,1,91.59,456.81Zm93.94.07c0-.91,0-1.61,0-2.31,0-.27,0-.52-.33-.68a3.88,3.88,0,0,0-4.08,1.21,3.06,3.06,0,0,0,0,3.73,8.82,8.82,0,0,0,1.81,1.75c.4.35.68.78.4,1.3s-.76.43-1.22.43c-.67,0-1.06-.56-1.62-.95,0,.56-.06,1-.07,1.4,0,1.43.29,1.75,1.77,1.8a3.36,3.36,0,0,0,.84,0c2.43-.56,3.79-2.49,2.41-4.85a8.84,8.84,0,0,0-2.07-2.07.87.87,0,0,1-.35-1,1.06,1.06,0,0,1,1.06-.56C184.66,456,184.93,456.46,185.53,456.88Zm-128.18-3a2.81,2.81,0,0,1,.59,1.71c0,2.2,0,4.39,0,6.58a2.65,2.65,0,0,1-.34,1.73c-.25.34-.06.58.39.57,1.66,0,3.32,0,5,0,.38,0,.51-.2.51-.52,0-.72,0-1.44,0-2.42-.73.88-1.54.65-2.29.71s-.94-.21-.92-.91c0-1.66,0-3.32,0-5a3.84,3.84,0,0,1,.53-2.47Zm92.07,0a3,3,0,0,1,.51,1.41c.12,2.54.08,5.08,0,7.62,0,.57-.83,1.08-.33,1.46s1.15.1,1.75.11h1.16c.35,0,.48-.27.29-.5-.69-.84-.43-1.83-.42-2.75,0-2.35-.35-4.73.32-7.05.09-.32,0-.39-.27-.39A17.47,17.47,0,0,0,149.42,453.9Zm38.06,0c.65,3.12.32,6.24.25,9.36a1,1,0,0,1-.26.56c-.49.65-.07.69.43.69s1.21,0,1.81,0c.79,0,1.45,0,.67-1a1.65,1.65,0,0,1-.15-.93c0-2.12.05-4.24-.06-6.35,0-.83.76-1.87.09-2.31s-1.71-.07-2.6-.06A.34.34,0,0,0,187.48,453.89Z" transform="translate(-0.19 -427.12)"/><path class="cls-3" d="M204.56,457.36c.4-1.07,1.33-1.9,1.33-3.15,0-.48.36-.35.61-.36.81,0,1.62,0,2.58,0-.85,1.45-1.59,2.83-2.44,4.13a6.82,6.82,0,0,0-1.09,4.53,2.46,2.46,0,0,0,.33,1.31c.51.65.07.68-.43.68h-1.07c-.52,0-1.19.18-1.55-.07-.59-.41.32-.72.33-1.21,0-1.66.1-3.29-.87-4.79s-1.52-2.87-2.59-4.35v2.28c-.41.28-.43-.08-.59-.16a2.61,2.61,0,0,0-2.06-.1c-.53.18-.23.88-.23,1.34,0,1.77.05,3.53.08,5.3a1.29,1.29,0,0,0,.08.63c.94,1.38-.14,1.12-.9,1.13h-.32c-.57,0-1.28.18-1.66-.09-.58-.41.35-.78.34-1.32-.06-2.2,0-4.39,0-6.58,0-.36-.14-.53-.5-.51-.75.06-1.58-.26-2.11.61-.1-.17-.16-.22-.16-.28-.1-2.49-.1-2.49,2.34-2.49,2.69,0,5.38,0,8.07,0,.6,0,1-.11,1,.87a7.82,7.82,0,0,0,1.16,2.66Z" transform="translate(-0.19 -427.12)"/><path class="cls-1" d="M28.48,460.3c-.12,1.35-.93,2.67,0,4.08a17.55,17.55,0,0,1-2.87.1c-.37,0-.44-.24-.31-.49,1-2,.84-4.19,1.23-6.29.2-1.11.3-2.24.45-3.37,0-.2,0-.48.24-.51s.38.24.49.46c1,2,2.46,3.78,3.37,6.11,1-2.3,2.41-4.09,3.47-6.07.12-.22.18-.54.45-.52s.24.43.27.68c.37,2.59.72,5.18,1.08,7.77,0,.31.11.63.19.93.33,1.3.33,1.3-1.09,1.3H34.7c-.64,0-1.05.17-.77-.9s-.1-2.21-.21-3.56c-.81,1.3-1.52,2.41-2.18,3.55-.42.72-.7.61-1.08,0C29.82,462.45,29.14,461.38,28.48,460.3Z" transform="translate(-0.19 -427.12)"/><path class="cls-1" d="M8.36,453.9c-.64,1.13-.33,2.32-.48,3.45-.06.47.12.65.58.6.18,0,.36,0,.53,0,.86-.1,2.15.41,2.48-.23a4.69,4.69,0,0,0-.1-3.21,4.82,4.82,0,0,0-.27-.61h3.31a3.25,3.25,0,0,0-.41,1.41c-.08,2.55-.08,5.09,0,7.64a1.15,1.15,0,0,1,0,.32c-.06.44.71.8.31,1.1s-.95.1-1.44.11-1.18.18-1.57-.05c-.69-.41.18-.83.24-1.3.37-3,.4-2.95-2.57-3-1,0-1.24.3-1.08,1.21s-.26,1.9.49,2.72c.2.22,0,.44-.34.43H5.4c-.42,0-.52-.27-.26-.54a2,2,0,0,0,.38-1.59c0-2.12,0-4.25,0-6.37a3.83,3.83,0,0,0-.46-2.08Z" transform="translate(-0.19 -427.12)"/><path class="cls-1" d="M51.24,453.68c2.65-.22,5.26,2.52,5.26,5.33a5.62,5.62,0,0,1-5.3,5.59,5.63,5.63,0,0,1-5.34-5.42C45.86,456.37,48.6,453.45,51.24,453.68Zm2.7,5.51a2.78,2.78,0,1,0-5.51,0,2.77,2.77,0,1,0,5.51,0Z" transform="translate(-0.19 -427.12)"/><path class="cls-1" d="M64.51,453.89c1.57,0,3-.19,4.38-.08a5.25,5.25,0,0,1,.41,10.35,12.54,12.54,0,0,1-4,.2c-.54-.05-1,0-.44-.72a2.38,2.38,0,0,0,.22-1.45c0-2.05,0-4.1,0-6.14A3.47,3.47,0,0,0,64.51,453.89Zm3,5.13c0,.81,0,1.62,0,2.43,0,.55.18.75.74.74A2.83,2.83,0,0,0,71,459.26c.07-1.91-.83-3.05-2.46-3.21-.77-.07-1.1.13-1,1A16.83,16.83,0,0,1,67.52,459Z" transform="translate(-0.19 -427.12)"/><path class="cls-3" d="M141.49,459.07c.06,1.68-.55,3.35.29,4.92.2.38,0,.51-.38.51h-1.17c-1.41,0-1.29,0-1.15-1.28a39.18,39.18,0,0,0,.12-4.34c0-1.53,0-3.05,0-4.57,0-.2-.05-.48.23-.51a.62.62,0,0,1,.45.23c1.41,1.69,3.26,2.92,4.73,4.54l.81.88c-.07-1.94.24-3.73-.4-5.53a9.59,9.59,0,0,1,2.68-.1c.25,0,.34.13.22.41-.52,1.26-.24,2.59-.27,3.89,0,1.8,0,3.61,0,5.41,0,.33.21.79-.21,1s-.44-.37-.66-.56c-1.47-1.28-2.92-2.58-4.36-3.88C142.08,459.75,141.79,459.4,141.49,459.07Z" transform="translate(-0.19 -427.12)"/><path class="cls-3" d="M134.23,453.8H137c.25,0,.51,0,.35.41-.59,1.61-.21,3.29-.29,4.94a15.06,15.06,0,0,1-.23,2.21,4.18,4.18,0,0,1-8.26-1.08c0-1.52,0-3,0-4.56a4.36,4.36,0,0,0,0-.63c-.21-1.3-.21-1.3,1.08-1.3H130c.81,0,1.48-.29,1.15,1.2a21.09,21.09,0,0,0-.07,5.39,1.6,1.6,0,0,0,1.68,1.68,1.58,1.58,0,0,0,1.81-1.53C134.74,458.34,135,456.11,134.23,453.8Z" transform="translate(-0.19 -427.12)"/><path class="cls-3" d="M174.81,460.58a5.29,5.29,0,0,0,0,3.27c.15.49,0,.66-.45.65h-.53c-.6,0-1.35.17-1.76-.11s.24-1,.23-1.51c-.09-2.86.31-5.72-.31-8.55-.1-.43.1-.52.4-.52,1.34,0,2.72-.29,4,.14,2.08.7,3.17,3.33,1.21,5.6-.49.57-.39.84,0,1.3a26.26,26.26,0,0,0,2.33,3c.14.13.25.26.19.45s-.27.17-.44.19c-1.46.16-2.71,0-3.4-1.6A17.59,17.59,0,0,0,174.81,460.58Zm-.38-3.22c.37.31-.37,1.16.57,1.18a1.16,1.16,0,0,0,1.22-1.31c0-.76-.35-1.23-1.14-1.21C174.06,456,174.73,456.88,174.43,457.36Z" transform="translate(-0.19 -427.12)"/><path class="cls-1" d="M15.66,453.89h3.26a19.89,19.89,0,0,0-.18,6.92,1.58,1.58,0,0,0,1.82,1.28,1.65,1.65,0,0,0,1.67-1.61,31.91,31.91,0,0,0,.07-3.39,5.56,5.56,0,0,0-.5-3.17H25c-.57,1.92-.24,3.9-.33,5.85a4.8,4.8,0,0,1-2.54,4.4c-2.09,1.22-5.43-.5-5.77-2.84a42.86,42.86,0,0,1-.17-5.19A3.81,3.81,0,0,0,15.66,453.89Z" transform="translate(-0.19 -427.12)"/><path class="cls-1" d="M38.17,453.87a28.13,28.13,0,0,1,3.89,0,2.7,2.7,0,0,1,2.24,1.95,2.17,2.17,0,0,1-.69,2.58c-.27.22-.53.37,0,.65.23.12.36.41.54.61a2.47,2.47,0,0,1-.79,4.05,7.76,7.76,0,0,1-4.82.62c-.46-.09-.71-.25-.29-.7a.3.3,0,0,0,0-.1A45.47,45.47,0,0,0,38.17,453.87Zm2.38,7.27c.17.36-.29,1.11.67,1.06.69,0,1.21-.32,1.22-1s-.55-1.05-1.27-1.09C40.25,460,40.69,460.7,40.55,461.14Zm0-4.17c.19.28-.38,1,.47,1a.94.94,0,0,0,1.09-1,1,1,0,0,0-1-1C40.35,455.9,40.64,456.52,40.57,457Z" transform="translate(-0.19 -427.12)"/><path class="cls-3" d="M122.5,460.44a7.13,7.13,0,0,0-1-.31c-1.39-.23-1.69.08-1.57,1.46,0,.52.27.66.73.65a3.65,3.65,0,0,0,2.42-.45c.05.13.1.19.1.25,0,2.46,0,2.46-2.41,2.46H117.6c-.29,0-.83,0-.5-.45a3.63,3.63,0,0,0,.42-2.35c-.06-2.5.34-5-.31-7.49-.12-.44.13-.41.36-.41h5c.44,0,.51.26.5.62,0,.64,0,1.27,0,2.12a3.92,3.92,0,0,0-2.4-.55c-.9,0-.67.58-.7,1.07s0,1,.73.94a4.47,4.47,0,0,0,1.81-.28Z" transform="translate(-0.19 -427.12)"/><path class="cls-3" d="M169.6,457.74v2.64c-.35-.09-.67-.21-1-.26-1.41-.2-1.74.15-1.56,1.56,0,.4.21.52.59.56a5.71,5.71,0,0,0,2.56-.35c.26,2.61.26,2.61-2.28,2.61h-3.18c-.46,0-.86,0-.42-.62a2.11,2.11,0,0,0,.33-1.31c0-2.3,0-4.6,0-6.9a3.4,3.4,0,0,0-.08-.63c-.25-1.25-.26-1.25,1.08-1.25s2.48,0,3.72,0c.63,0,.91.2.84.86s-.06,1.12-.1,1.83a4.18,4.18,0,0,0-2.32-.48c-.88-.06-.72.51-.74,1s-.05,1.07.79,1A5.44,5.44,0,0,0,169.6,457.74Z" transform="translate(-0.19 -427.12)"/><path class="cls-3" d="M107.49,464.5h-1c-.54,0-.9,0-.64-.75s-.08-1-.8-1c-.46,0-.92,0-1.38,0-.75,0-1.09.31-.86,1s-.09.75-.61.74-1.35,0-2,0c-.52,0-.63-.19-.35-.65,1.78-3,2.68-6.3,4.14-9.39.14-.28.1-.72.48-.74s.39.41.5.69c1.18,2.85,2.37,5.68,3.52,8.53.19.49.93.89.65,1.34S108,464.39,107.49,464.5Zm-3.18-5.81c-.21.64-.36,1-.47,1.44-.06.24-.35.57,0,.73a1.27,1.27,0,0,0,.84,0c.4-.17.08-.49,0-.73C104.66,459.73,104.51,459.34,104.31,458.69Z" transform="translate(-0.19 -427.12)"/><path class="cls-3" d="M153.44,453.88h3.33c-.06,2.09,1.39,3.63,1.81,5.62l1.53-3.77c.09-.23.29-.49.25-.69-.32-1.57.79-1.17,1.59-1.19.49,0,1,0,1.53,0,0,.7-.54,1.11-.77,1.64-1.24,2.88-2.52,5.75-3.79,8.63-.08.18-.06.44-.35.46s-.21-.14-.27-.27C156.64,460.88,155.35,457.29,153.44,453.88Z" transform="translate(-0.19 -427.12)"/><path class="cls-1" d="M82.16,456.66a2.18,2.18,0,0,0-1.28-.69c-1.56-.09-1.57-.11-1.55,1.47,0,1.77,0,3.53.08,5.3a1.57,1.57,0,0,0,.16.91c.64.8.19.86-.49.83h-.21c-.71,0-1.57.26-2.09-.06-.74-.45.26-1.09.23-1.76-.12-1.93-.06-3.88,0-5.83,0-.61-.1-.93-.8-.86s-1.43-.16-1.86.67c-.1-.18-.13-.21-.13-.24-.2-2.56-.2-2.56,2.32-2.56,1.59,0,3.18,0,4.77,0,.68,0,1,.15.9.87A17.72,17.72,0,0,0,82.16,456.66Z" transform="translate(-0.19 -427.12)"/><path class="cls-3" d="M108.15,456.68c-.42-2.89-.42-2.89,2.2-2.89,1.59,0,3.19,0,4.78,0,.76,0,1,.24.93,1,0,.56,0,1.12,0,1.66-.38.17-.44-.2-.64-.29-1.27-.58-2.17-.06-2.16,1.27,0,1.67,0,3.33,0,5a2.07,2.07,0,0,0,.12,1c.93,1.37-.17,1.06-.87,1.08h-1.69c-.4,0-.7-.15-.4-.55a3.18,3.18,0,0,0,.41-2c0-1.52,0-3,0-4.56,0-.44.26-1.1-.21-1.26a2.34,2.34,0,0,0-2,.14A4.09,4.09,0,0,0,108.15,456.68Z" transform="translate(-0.19 -427.12)"/><path class="cls-3" d="M101,456.69a4.67,4.67,0,0,0-.58-.48c-1.25-.72-2.23-.19-2.23,1.19,0,1.6,0,3.19,0,4.78a2.4,2.4,0,0,0,.13,1.25c1,1.38-.14,1.05-.84,1.07h-1.7c-.32,0-.66-.11-.45-.47.7-1.22.38-2.55.47-3.83a25.41,25.41,0,0,0,0-2.76c0-.46.29-1.2-.23-1.34a2.13,2.13,0,0,0-2.2.27l-.4.3c0-.88,0-1.61,0-2.33,0-.42.21-.55.59-.55h6.8c.44,0,.64.18.63.64C101,455.11,101,455.78,101,456.69Z" transform="translate(-0.19 -427.12)"/><path class="cls-3" d="M91.59,456.81a6.13,6.13,0,0,0-.74-.61,1.1,1.1,0,0,0-1.52.24c-.37.51,0,.93.36,1.28a8,8,0,0,1,2,2.1c1.31,2.39-.22,4.15-2.42,4.71a3.82,3.82,0,0,1-1.17,0c-1.19-.08-1.53-.45-1.5-1.62,0-.49.05-1,.1-1.69a2,2,0,0,0,1.85,1.06c.39,0,.79-.07,1-.48a.93.93,0,0,0-.34-1.13,10.11,10.11,0,0,1-1.89-1.81,3.17,3.17,0,0,1-.06-3.75,3.81,3.81,0,0,1,4-1.23c.43.15.41.44.4.75C91.7,455.3,91.64,456,91.59,456.81Z" transform="translate(-0.19 -427.12)"/><path class="cls-3" d="M185.53,456.88c-.6-.42-.87-.88-1.44-.85a1.06,1.06,0,0,0-1.06.56.87.87,0,0,0,.35,1,8.84,8.84,0,0,1,2.07,2.07c1.38,2.36,0,4.29-2.41,4.85a3.36,3.36,0,0,1-.84,0c-1.48-.05-1.8-.37-1.77-1.8,0-.42,0-.84.07-1.4.56.39.95.94,1.62.95.46,0,1,0,1.22-.43s0-.95-.4-1.3a8.82,8.82,0,0,1-1.81-1.75,3.06,3.06,0,0,1,0-3.73,3.88,3.88,0,0,1,4.08-1.21c.37.16.33.41.33.68C185.53,455.27,185.53,456,185.53,456.88Z" transform="translate(-0.19 -427.12)"/><path class="cls-1" d="M57.35,453.89h3.49a3.84,3.84,0,0,0-.53,2.47c0,1.67,0,3.33,0,5,0,.7.23,1,.92.91s1.56.17,2.29-.71c0,1,0,1.7,0,2.42,0,.32-.13.52-.51.52-1.67,0-3.33,0-5,0-.45,0-.64-.23-.39-.57a2.65,2.65,0,0,0,.34-1.73c0-2.19,0-4.38,0-6.58A2.81,2.81,0,0,0,57.35,453.89Z" transform="translate(-0.19 -427.12)"/><path class="cls-3" d="M149.42,453.9a17.47,17.47,0,0,1,3-.09c.23,0,.36.07.27.39-.67,2.32-.3,4.7-.32,7.05,0,.92-.27,1.91.42,2.75.19.23.06.49-.29.5h-1.16c-.6,0-1.37.18-1.75-.11s.32-.89.33-1.46c0-2.54.09-5.08,0-7.62A3,3,0,0,0,149.42,453.9Z" transform="translate(-0.19 -427.12)"/><path class="cls-3" d="M187.48,453.89a.34.34,0,0,1,.18,0c.89,0,2-.34,2.6.06s-.13,1.48-.09,2.31c.11,2.11,0,4.23.06,6.35a1.65,1.65,0,0,0,.15.93c.78,1,.12,1-.67,1-.6,0-1.2,0-1.81,0s-.92,0-.43-.69a1,1,0,0,0,.26-.56C187.8,460.13,188.13,457,187.48,453.89Z" transform="translate(-0.19 -427.12)"/><path class="cls-2" d="M53.94,459.19a2.77,2.77,0,1,1-5.51,0,2.78,2.78,0,1,1,5.51,0Z" transform="translate(-0.19 -427.12)"/><path class="cls-2" d="M67.52,459a16.83,16.83,0,0,0,0-2c-.09-.83.24-1,1-1,1.63.16,2.53,1.3,2.46,3.21a2.83,2.83,0,0,1-2.72,2.93c-.56,0-.76-.19-.74-.74C67.54,460.64,67.52,459.83,67.52,459Z" transform="translate(-0.19 -427.12)"/><path class="cls-2" d="M174.43,457.36c.3-.48-.37-1.32.65-1.34.79,0,1.14.45,1.14,1.21a1.16,1.16,0,0,1-1.22,1.31C174.06,458.52,174.8,457.67,174.43,457.36Z" transform="translate(-0.19 -427.12)"/><path class="cls-2" d="M40.55,461.14c.14-.44-.3-1.13.62-1.07.72,0,1.28.3,1.27,1.09s-.53,1-1.22,1C40.26,462.25,40.72,461.5,40.55,461.14Z" transform="translate(-0.19 -427.12)"/><path class="cls-2" d="M40.57,457c.07-.45-.22-1.07.55-1a1,1,0,0,1,1,1,.94.94,0,0,1-1.09,1C40.19,457.94,40.76,457.25,40.57,457Z" transform="translate(-0.19 -427.12)"/><path class="cls-2" d="M104.31,458.69c.2.65.35,1,.45,1.44,0,.24.37.56,0,.73a1.27,1.27,0,0,1-.84,0c-.4-.16-.11-.49,0-.73C104,459.73,104.1,459.33,104.31,458.69Z" transform="translate(-0.19 -427.12)"/></svg>