<?xml version="1.0" encoding="UTF-8" standalone="no"?>
<!DOCTYPE svg PUBLIC "-//W3C//DTD SVG 1.1//EN" "http://www.w3.org/Graphics/SVG/1.1/DTD/svg11.dtd">
<svg version="1.1" xmlns="http://www.w3.org/2000/svg" xmlns:xlink="http://www.w3.org/1999/xlink" preserveAspectRatio="xMidYMid meet" viewBox="0 0 646 646" width="646" height="646"><defs><path d="M0.08 298.34C0.08 297.6 0.25 297.42 0.99 297.42C5.87 297.42 10.7 297.42 15.6 297.42C15.68 298.04 15.18 298.2 14.79 298.33C12.77 298.99 12.03 300.63 11.64 302.5C10.92 305.93 12.22 308.64 15 309.56C17.49 310.39 20.76 309.68 22.04 308.04C24.36 305.06 23.12 299.83 19.75 298.26C19.37 298.09 18.83 298.06 18.88 297.42C25.89 297.42 81.95 297.42 88.96 297.42C88.96 298.16 88.38 298.31 87.88 298.5C86.6 299.1 85.67 300.25 85.34 301.63C84.9 303.26 84.9 304.99 85.34 306.62C85.55 307.49 86.08 308.26 86.82 308.78C88.97 310.4 93.37 310.12 95.25 308.23C96.89 306.59 96.71 304.51 96.45 302.49C96.38 300.48 95.03 298.75 93.1 298.18C92.73 298.07 92.16 298.05 92.2 297.4C365.45 297.4 584.05 297.4 638.7 297.4C639.77 297.4 640.08 297.65 640.06 298.77C640 320 640.06 336.99 640.06 341.24C640.06 342.26 639.87 342.46 638.85 342.46C572.24 342.46 518.94 342.46 505.61 342.46C253.54 342.46 51.86 342.46 1.44 342.46C0.37 342.46 0.06 342.21 0.08 341.09C0.08 329.01 0.08 316.95 0.08 304.87C0.21 304.78 0.4 304.8 0.51 304.93C0.6 305.04 0.67 305.17 0.72 305.32C1.54 309.4 4.46 309.96 8.75 309.79C9.3 309.79 9.71 309.51 9.73 308.89C9.74 308.28 9.33 308.03 8.77 307.99C8.2 307.95 7.37 307.99 6.68 307.91C5.11 307.91 3.84 306.63 3.84 305.06C3.84 305.01 3.85 304.95 3.85 304.89C3.85 304.34 3.85 303.82 3.85 303.26C3.79 301.73 4.97 300.44 6.49 300.37C7.23 300.3 7.98 300.26 8.72 300.27C9.25 300.34 9.74 299.96 9.81 299.43C9.82 299.33 9.82 299.23 9.8 299.13C9.8 298.43 9.38 298.17 8.72 298.16C7.53 298.07 6.34 298.09 5.15 298.22C3.42 298.36 1.93 299.51 1.35 301.14C1.18 301.82 0.89 302.46 0.51 303.04C0.4 303.17 0.21 303.2 0.08 303.1C0.08 301.52 0.08 299.87 0.08 298.34Z" id="b1ra7jO3Xc"></path><path d="M18.8 297.49C18.89 297.6 18.97 297.76 19.07 297.79C22.65 299.09 24.5 303.04 23.2 306.61C23 307.17 22.73 307.7 22.39 308.18C20.52 310.7 17.76 310.59 15.05 310.08C12.85 309.7 11.22 307.83 11.15 305.6C10.94 304.27 11.02 302.91 11.36 301.62C11.72 299.88 13 298.49 14.7 297.97C14.99 297.9 15.44 297.97 15.53 297.49C15.59 297.49 16.06 297.49 16.12 297.49C16.69 297.74 17.34 297.74 17.91 297.49C18.09 297.49 18.62 297.49 18.8 297.49Z" id="g1OUPkNtF"></path><path d="M92.12 297.49C92.12 297.56 92.22 297.69 92.28 297.71C95.91 298.87 97.92 302.75 96.77 306.38C96.64 306.79 96.47 307.2 96.26 307.58C95.88 308.4 95.24 309.07 94.44 309.48C92.12 310.72 89.33 310.72 87.01 309.48C84.67 308.25 84.45 305.94 84.55 303.68C84.66 300.93 85.63 298.61 88.63 297.84C88.72 297.84 88.78 297.63 88.84 297.51C88.93 297.51 89.65 297.51 89.74 297.51C90.31 297.76 90.96 297.76 91.53 297.51C91.65 297.5 92 297.49 92.12 297.49Z" id="ehZELvd88"></path><path d="M0.08 304.94L0.08 303.1C0.25 303.1 0.35 303.1 0.37 303.1C0.86 303.58 0.87 304.37 0.4 304.86C0.37 304.89 0.34 304.91 0.31 304.94C0.31 304.94 0.23 304.94 0.08 304.94Z" id="a10CnOO6Jj"></path><path d="M91.53 297.49C91.02 297.96 90.24 297.96 89.74 297.49C89.74 297.49 91.53 297.49 91.53 297.49Z" id="cogF35GK"></path><path d="M17.91 297.49C17.4 297.95 16.63 297.95 16.12 297.49C16.12 297.49 17.91 297.49 17.91 297.49Z" id="a34xpbeLzE"></path><path d="M315.03 314.93C315.9 313.85 317.2 313.19 318.58 313.13C319.1 313.03 319.62 312.96 320.15 312.94C323.29 312.73 326.45 312.88 329.6 312.85C330.68 312.85 331.27 313.39 331.13 314.51C330.99 315.63 331.54 316.67 330.69 317.62C327.85 317.92 325.01 317.67 322.17 317.76C321.72 317.7 321.26 317.82 320.89 318.08C320.44 318.25 320.16 318.68 320.19 319.16C320.3 320 319.78 321.13 321.21 321.37C321.36 321.39 321.51 321.42 321.66 321.47C322.73 321.74 324.02 321.14 325.03 322.01C325.26 323.14 325.26 324.32 325.03 325.46C324.04 326.17 322.87 325.66 321.86 325.81C321.09 325.78 320.35 326.11 319.85 326.71C319.83 326.74 319.67 327.01 319.65 327.04C319.44 327.74 319.44 328.49 319.65 329.2C319.83 329.44 319.91 329.79 320.23 329.94C320.31 329.97 320.89 330.24 320.96 330.28C321.48 330.34 321.99 330.35 322.51 330.33C324.09 330.33 325.67 330.4 327.24 330.26C327.4 330.21 327.54 330.09 327.63 329.94C327.78 327.86 327.82 325.78 327.75 323.7C327.81 321.85 327.95 321.66 329.84 321.7C331.96 321.58 334.09 321.64 336.2 321.87C336.74 323.26 336.71 324.81 336.12 326.18C335.62 326.64 334.86 326.24 334.33 326.66C334.11 327.16 334.04 327.71 334.14 328.25C334.14 332.09 334.14 335.92 334.14 339.76C334.14 340.39 334.24 341.07 333.59 341.5C331.8 341.74 329.99 341.74 328.2 341.5C327.62 340.95 327.8 340.23 327.75 339.55C327.62 338.19 328.02 336.81 327.48 335.47C327 335.21 326.44 335.12 325.9 335.22C323.29 335.28 320.7 335.12 318.09 335.07C315.8 334.66 313.94 332.99 313.29 330.76C313.17 329.54 313.17 328.32 313.29 327.11C313.52 326.15 314.06 325.29 314.82 324.66C315.07 324.42 315.44 324.36 315.67 324.08C315.67 324.08 315.67 324.08 315.67 324.08C315.9 323.81 316.25 323.69 316.6 323.75C315.61 323.32 314.8 322.56 314.3 321.6C314.03 321.12 313.88 320.59 313.86 320.04C313.74 319.22 313.74 318.39 313.86 317.56C313.76 316.61 314.15 315.66 314.91 315.06C314.93 315.04 315.02 314.95 315.03 314.93Z" id="f2mzd18gfu"></path><path d="M363.94 322.18C364.15 323.54 364.2 324.92 364.09 326.29C364.18 329.21 364 332.12 364.19 335.03C362.09 335.29 359.98 335.34 357.87 335.19C355.3 335.38 352.71 335.25 350.16 334.8C346.93 334.13 344.38 331.64 343.63 328.42C342.61 324.56 342.63 320.71 344.71 317.06C346.01 314.9 348.22 313.46 350.71 313.14C354.54 312.39 358.43 312.91 362.29 312.78C362.81 312.78 363 313.03 362.98 313.51C362.97 313.61 362.97 313.71 362.98 313.81C363.17 317.75 363.17 317.75 359.24 317.76C357.45 317.76 355.66 317.69 353.85 317.82C351.33 318.01 350.13 319.27 349.8 321.75C349.49 323.66 349.59 325.62 350.1 327.49C350.37 329.08 351.72 330.26 353.33 330.3C354.96 330.47 356.6 330.47 358.23 330.3C358.53 329.03 358.53 327.71 358.23 326.44C357.9 326.43 355.32 326.39 354.99 326.38C354.59 326.38 354.13 326.38 354.17 325.84C354.26 324.65 353.9 323.43 354.39 322.26C354.54 323.36 354.59 324.46 354.55 325.56C354.47 324.43 354.53 323.29 354.73 322.18C357.81 322.03 360.87 322.04 363.94 322.18Z" id="gixegLiyC"></path><path d="M0.7 314.12C0.7 313.14 0.87 312.73 1.98 312.74C7.15 312.81 12.31 312.8 17.47 312.74C18.45 312.74 18.73 313.01 18.74 313.99C18.74 317.8 18.8 317.8 14.99 317.8C12.83 317.8 10.67 317.8 8.58 317.8C7.81 317.8 7.45 317.92 7.43 318.88C7.36 321.66 7.32 321.66 10.08 321.66C12.06 321.66 14.05 321.66 16.03 321.66C16.87 321.66 17.26 321.76 17.27 322.74C17.27 325.97 17.34 325.97 14.1 325.97C12.22 325.97 10.33 325.97 8.44 325.97C7.66 325.97 7.46 326.24 7.43 327.05C7.32 330.38 7.29 330.37 10.58 330.37C13.06 330.37 15.54 330.37 18.02 330.37C18.79 330.37 19.01 330.6 19.04 331.39C19.18 335.35 19.2 335.35 15.3 335.35C10.93 335.35 6.57 335.35 2.2 335.35C1.12 335.35 0.66 335.12 0.69 333.89C0.75 330.5 0.7 327.22 0.7 323.95C0.7 320.71 0.7 317.4 0.7 314.12Z" id="d14xe7Mbv4"></path><path d="M154.12 313.88C154.12 313.05 154.32 312.8 155.19 312.8C160.46 312.8 165.73 312.8 170.99 312.8C171.77 312.8 171.98 313.02 172.01 313.8C172.18 317.84 172.2 317.84 168.22 317.84C166.13 317.84 164.05 317.84 161.95 317.84C160.97 317.84 160.7 318.12 160.71 319.11C160.71 321.67 160.71 321.67 163.29 321.67C165.33 321.67 167.37 321.67 169.4 321.67C170.26 321.67 170.6 321.8 170.6 322.75C170.6 325.98 170.66 325.98 167.44 325.98C165.6 325.98 163.77 325.98 161.93 325.98C161.06 325.98 160.71 326.16 160.71 327.13C160.71 330.36 160.64 330.36 163.83 330.36C166.21 330.36 168.6 330.42 170.98 330.36C171.98 330.36 172.34 330.57 172.33 331.64C172.33 335.35 172.33 335.35 168.63 335.35C164.21 335.35 159.79 335.35 155.37 335.35C154.4 335.35 154.09 335.09 154.12 334.1C154.16 330.65 154.12 327.33 154.12 324C154.12 320.63 154.12 317.25 154.12 313.88Z" id="c1LOJ91cIU"></path><path d="M581.22 319.28C585.28 319.28 587.48 321.21 587.69 325.23C587.87 328.25 587.69 331.28 587.77 334.31C587.77 334.95 587.52 335.19 586.9 335.18C585.41 335.18 583.91 335.18 582.42 335.18C581.47 335.18 581.58 334.6 581.58 334.01C581.58 331.42 581.58 328.84 581.58 326.25C581.58 324.33 581 323.9 579.16 323.86C578.26 323.86 577.95 324.05 577.97 325C578.04 327.99 577.97 330.97 577.97 333.94C577.97 334.97 577.65 335.25 576.7 335.18C575.71 335.11 574.71 335.11 573.72 335.18C572.76 335.26 572.57 334.86 572.58 333.98C572.58 331.15 572.63 328.31 572.58 325.49C572.58 324.95 573.18 323.95 571.94 323.89C570.87 323.89 569.69 323.64 569.21 325.06C569.02 325.67 568.94 326.32 568.97 326.97C568.97 329.3 568.97 331.63 568.97 333.97C568.97 334.83 568.83 335.25 567.89 335.19C566.55 335.11 565.21 335.19 563.87 335.19C563.22 335.19 562.79 335.09 562.85 334.32C562.95 331.08 562.63 327.85 563.04 324.61C563.49 321.06 565.51 319.29 569.13 319.22C571.23 319.28 573.33 319.28 575.41 319.28C576.57 319.28 580.64 319.28 581.22 319.28Z" id="b33QD6Kzy8"></path><path d="M449.29 312.79C454.46 312.79 459.63 312.79 464.79 312.79C465.87 312.79 466.12 313.08 466.12 314.11C466.12 317.84 466.12 317.84 462.43 317.84C460.28 317.84 458.12 317.84 456.03 317.84C455.15 317.84 454.83 318.02 454.83 318.98C454.83 321.66 454.83 321.66 457.43 321.66C459.51 321.66 461.6 321.66 463.68 321.66C464.48 321.66 464.67 321.9 464.69 322.67C464.76 325.97 464.79 325.97 461.45 325.97C459.61 325.97 457.78 325.97 455.94 325.97C455.15 325.97 454.86 326.12 454.8 327.05C454.72 330.37 454.69 330.36 457.96 330.36C460.44 330.36 462.93 330.36 465.41 330.36C466.16 330.36 466.41 330.54 466.43 331.35C466.57 335.34 466.6 335.34 462.58 335.34C458.27 335.34 454.03 335.34 449.76 335.34C449.29 335.34 448.77 335.54 448.34 335.17C448.55 330.31 448.41 325.47 448.42 320.57C448.53 318.05 448.51 315.52 448.35 313C448.59 312.6 448.98 312.79 449.29 312.79Z" id="d3u4nbddOa"></path><path d="M541.91 334.46C541.91 339.11 539.48 341.53 534.86 341.57C532.47 341.57 530.09 341.57 527.71 341.57C526.89 341.57 526.63 341.37 526.63 340.5C526.55 337.12 526.52 337.12 529.86 337.12C530.21 337.12 532.94 337.12 533.28 337.12C533.98 337.19 534.68 336.95 535.2 336.47C535.59 336.14 535.75 335.61 535.63 335.12C535.45 334.64 534.93 334.88 534.55 334.86C533.91 334.82 533.27 334.82 532.62 334.86C526.9 335.22 524.13 330.54 524.7 325.81C525.25 321.25 527.51 319.34 532.11 319.28C534.98 319.28 537.86 319.28 540.73 319.28C541.65 319.28 541.93 319.54 541.91 320.45C541.86 322.94 541.91 325.42 541.91 327.9C541.91 330.06 541.91 332.27 541.91 334.46Z" id="caBF4fi9m"></path><path d="M491.52 337.18C492.91 337.1 494.3 337.18 495.7 337.18C496.45 337.26 497.2 336.97 497.7 336.4C498.02 336.07 498.15 335.6 498.05 335.16C497.87 334.68 497.36 334.93 496.97 334.91C496.33 334.87 495.68 334.87 495.04 334.91C489.1 335.29 486.41 330.37 487.15 325.47C487.81 321.15 490.04 319.34 494.43 319.33C497.37 319.33 500.29 319.33 503.21 319.33C504.06 319.33 504.29 319.59 504.29 320.41C504.29 325.22 504.44 330.04 504.22 334.84C504.02 339.35 502.07 341.23 498.02 341.53C495.17 341.74 492.28 341.53 489.4 341.53C489.3 341.53 489.22 341.37 489.12 341.27C489.35 340 489.36 338.71 489.16 337.43C489.9 336.84 490.75 337.22 491.52 337.18Z" id="h6E0cMX1PU"></path><path d="M107.68 333.85C107.68 335.01 107.33 335.27 106.24 335.23C103.12 335.14 99.98 335.3 96.86 335.07C93.37 334.81 91.16 332.52 90.54 329.07C90.08 326.76 90.42 324.36 91.51 322.27C92.58 320.18 94.64 319.5 96.9 319.33C98.09 319.26 99.28 319.26 100.47 319.33C101.23 319.33 101.54 319.14 101.54 318.33C101.48 316.65 101.54 314.95 101.54 313.27C101.54 312.32 101.86 312.08 102.75 312.12C104.04 312.18 105.33 312.18 106.62 312.12C107.54 312.06 107.81 312.37 107.8 313.28C107.65 316.81 107.68 320.36 107.68 323.87C107.68 327.19 107.68 330.52 107.68 333.85Z" id="c88kLgLC6"></path><path d="M395.44 313.32C395.44 312.41 395.68 312.05 396.61 312.14C398.23 312.3 400.34 311.46 401.32 312.49C402.1 313.32 401.56 315.41 401.57 316.94C401.57 319.33 401.57 319.33 404.02 319.33C404.21 319.33 405.75 319.33 405.95 319.33C408.95 319.13 411.65 321.16 412.28 324.1C413.35 327.75 412.77 331.11 409.95 333.8C408.64 335.05 406.81 335.22 405.05 335.25C402.31 335.25 399.59 335.25 396.86 335.25C395.78 335.25 395.4 335 395.42 333.85C395.48 330.43 395.44 327 395.44 323.59C395.44 320.16 395.44 316.73 395.44 313.32Z" id="e5JgMwa57h"></path><path d="M190.34 312.17C190.85 312.17 190.76 312.63 190.76 312.96C190.76 323.67 190.76 332.23 190.76 334.37C190.76 335.04 190.5 335.23 189.89 335.22C186.52 335.13 183.15 335.33 179.78 335.09C176.78 334.79 174.34 332.55 173.78 329.6C173.15 327.11 173.46 324.48 174.67 322.22C175.74 320.16 177.83 319.47 180.06 319.33C181.14 319.26 182.33 319.33 183.47 319.33C183.94 319.33 184.55 319.5 184.78 318.9C185.08 316.74 185.1 314.55 184.82 312.39C186.64 311.83 188.5 312.24 190.34 312.17Z" id="bewJdEi3H"></path><path d="M133.62 334.89C130.77 334.43 129.31 332.26 128.6 329.65C127.93 327.17 128.24 324.54 129.45 322.27C130.53 320.24 132.5 319.58 134.65 319.32C134.89 319.32 135.15 319.32 135.4 319.32C136.71 319.22 138.44 319.9 139.24 319.03C140.03 318.16 139.45 316.47 139.46 315.15C139.46 312.14 139.46 312.11 142.47 312.16C143.45 312.16 144.49 311.83 145.43 312.42C145.28 314.21 145.25 316.01 145.34 317.81C145.35 323.51 145.23 329.27 145.39 335.03C141.48 335.44 137.53 335.39 133.62 334.89Z" id="c3oEm7qMzV"></path><path d="M289.21 320.8C289.21 319.72 289.42 319.23 290.66 319.28C293.44 319.39 296.22 319.28 299 319.28C303.79 319.28 305.79 321.1 306.05 325.92C306.22 328.69 306.05 331.48 306.13 334.25C306.13 334.99 305.86 335.26 305.17 335.18C305.14 335.18 304.9 335.18 304.87 335.18C303.29 335.18 301.23 335.7 300.25 334.91C299.27 334.12 300.01 331.94 299.94 330.37C299.88 328.81 299.94 327.4 299.88 325.91C299.77 324.26 296.92 322.98 295.56 323.95C295.2 324.23 295.37 324.69 295.36 325.02C295.36 328 295.36 330.99 295.36 333.96C295.36 334.85 295.16 335.21 294.22 335.16C292.88 335.08 291.53 335.09 290.19 335.16C289.41 335.16 289.12 334.91 289.12 334.08C289.23 331.87 289.21 329.53 289.21 327.2C289.21 325.05 289.27 322.89 289.21 320.8Z" id="b25WCdGoEY"></path><path d="M418.03 325.61C419.91 325.47 421.81 325.61 423.68 325.52C424.04 325.52 424.58 325.77 424.76 325.28C424.9 324.73 424.67 324.15 424.2 323.84C423.69 323.52 423.09 323.38 422.5 323.45C420.51 323.45 418.52 323.45 416.54 323.45C415.74 323.45 415.56 323.2 415.54 322.44C415.47 319.29 415.45 319.29 418.56 319.29C419.14 319.29 423.79 319.29 424.37 319.29C428.52 319.29 430.48 320.96 430.71 325.08C430.9 328.14 430.71 331.23 430.8 334.31C430.8 335.08 430.45 335.2 429.81 335.2C426.14 335.2 422.47 335.2 418.79 335.2C415.71 335.13 414.41 333.92 414.12 331.17C414.28 330.59 414.27 329.97 414.1 329.39C414.5 326.85 415.51 325.8 418.03 325.61Z" id="a8a2FDfD4"></path><path d="M232.27 325.61C234.15 325.47 236.04 325.61 237.92 325.52C238.28 325.52 238.8 325.76 239 325.27C239.13 324.77 238.94 324.25 238.54 323.94C238.02 323.53 237.36 323.36 236.72 323.45C234.73 323.45 232.75 323.45 230.76 323.45C230.08 323.45 229.84 323.28 229.8 322.54C229.62 319.31 229.59 319.31 232.75 319.31C233.31 319.31 237.79 319.31 238.35 319.31C242.79 319.31 244.66 320.93 244.94 325.33C245.14 328.33 244.94 331.36 245.03 334.39C245.03 335.06 244.76 335.22 244.14 335.22C240.38 335.22 236.6 335.29 232.84 335.17C229.9 335.08 228.79 334.04 228.36 331.46C228.56 330.79 228.57 330.07 228.37 329.39C228.68 326.9 229.74 325.8 232.27 325.61Z" id="fA0xkFXtb"></path><path d="M510.49 335.17C506.57 335.04 505.76 331.8 506.25 329.12C506.68 326.74 507.86 325.76 510.34 325.61C512.17 325.49 514.01 325.61 515.85 325.53C516.19 325.53 516.72 325.78 516.93 325.26C517.05 324.77 516.87 324.25 516.47 323.94C516 323.56 515.39 323.39 514.79 323.46C512.81 323.46 510.82 323.46 508.84 323.46C508.07 323.46 507.7 323.37 507.69 322.44C507.62 319.31 507.58 319.31 510.75 319.31C511.37 319.31 516.38 319.31 517 319.31C520.35 319.31 522.26 320.8 522.76 324.08C523.29 327.53 522.91 331.02 523 334.49C523 335.25 522.51 335.21 521.99 335.21C521.62 335.21 519.73 335.21 516.33 335.21C513.72 335.18 511.78 335.17 510.49 335.17Z" id="b7iaInhYc"></path><path d="M279.79 335.46C278.15 335.62 276.51 335.53 274.89 335.21C269.5 334.05 267.86 328.1 269.7 323.44C270.38 321.6 271.88 320.19 273.76 319.63C276.52 318.71 279.49 318.68 282.27 319.54C285 320.25 286.95 322.64 287.1 325.46C286.66 326.32 287.1 327.27 286.86 328.15C287.03 327.26 286.7 326.32 287.1 325.46C288.11 330.46 285.33 335.07 279.79 335.46Z" id="c1AH2J18mH"></path><path d="M381.02 335.2C376.37 334.12 374.43 329.47 375.48 324.78C376.05 321.75 378.56 319.46 381.63 319.19C383.78 318.78 385.99 318.86 388.1 319.43C393.49 321.02 395.41 328.53 391.61 332.8C389.58 335.07 387 335.45 384.25 335.54C383.17 335.55 382.08 335.44 381.02 335.2Z" id="btX370C6K"></path><path d="M596.03 328.74C596.02 329.98 597.01 331 598.25 331.01C598.35 331.02 598.45 331.01 598.55 331C600.5 331 602.43 331.05 604.36 331C605.34 331 605.62 331.27 605.62 332.25C605.62 335.22 605.62 335.27 602.66 335.21C600 335.21 597.33 335.44 594.67 334.85C592.4 334.34 590.6 332.61 589.99 330.36C589.08 327.65 589.34 324.68 590.72 322.17C591.31 321.12 592.25 320.31 593.38 319.89C596.26 318.73 599.45 318.61 602.4 319.55C605.79 320.55 606.59 323.32 606.82 326.37C607 328.75 606.95 328.75 604.54 328.75C602.84 328.75 597.73 328.75 596.03 328.74Z" id="brLzXOvOb"></path><path d="M64.29 328.74C62.8 328.74 61.32 328.74 59.83 328.74C58.84 328.74 58.9 329.15 59.21 329.82C59.63 330.65 60.53 331.13 61.45 331C63.38 331 65.32 331 67.26 331C68.15 331 68.57 331.13 68.56 332.19C68.56 335.22 68.56 335.25 65.52 335.21C63 335.33 60.48 335.24 57.97 334.94C55.69 334.52 53.81 332.89 53.05 330.7C51.62 327.29 52.67 322.38 55.2 320.57C57.97 318.56 64.14 318.42 67 320.27C69.15 321.71 69.67 323.98 69.78 326.36C69.89 328.74 69.78 328.75 67.51 328.75C66.86 328.75 64.93 328.75 64.29 328.74Z" id="a5n13Fhk2n"></path><path d="M83.19 335.2C82.43 335.2 82.5 334.67 82.5 334.12C82.5 331.7 82.5 329.26 82.5 326.82C82.5 324.2 80.98 323.12 78.5 323.88C77.82 324.09 78.07 324.58 78.07 324.96C78.07 327.89 78.07 330.82 78.07 333.75C78.07 334.83 77.9 335.3 76.7 335.19C75.41 335.12 74.12 335.12 72.83 335.19C72.07 335.19 71.75 334.94 71.81 334.11C71.81 327.18 71.81 321.63 71.81 320.25C71.81 319.49 72.01 319.17 72.81 319.17C76.14 319.17 79.47 319.11 82.79 319.17C86.43 319.28 88.45 321.52 88.55 325.33C88.3 328.55 88.27 331.8 88.49 335.03C86.73 335.24 84.96 335.3 83.19 335.2Z" id="aT7AyW1gc"></path><path d="M468.54 320.53C468.54 319.69 468.64 319.27 469.61 319.29C472.85 319.35 476.08 319.29 479.32 319.29C482.78 319.35 484.81 321.21 485.2 324.68C485.56 327.91 485.28 331.15 485.36 334.38C485.36 335.09 484.99 335.18 484.42 335.17C483.08 335.17 481.74 335.17 480.41 335.17C479.5 335.17 479.19 334.95 479.21 334.02C479.27 331.69 479.21 329.35 479.21 327.02C479.21 324.15 478.02 323.27 475.23 323.85C474.44 324.01 474.66 324.54 474.65 324.93C474.65 327.86 474.6 330.79 474.65 333.71C474.65 334.79 474.37 335.21 473.24 335.13C472.05 335.05 470.86 335.05 469.67 335.13C468.76 335.13 468.45 334.91 468.48 333.97C468.58 331.8 468.54 329.51 468.54 327.22C468.54 324.99 468.54 322.76 468.54 320.53Z" id="ag8glbt3B"></path><path d="M552.45 331.03C552.57 331.03 552.68 331.02 552.8 331C554.68 331 556.57 331.05 558.46 331C559.45 331 559.84 331.2 559.83 332.3C559.83 335.23 559.83 335.26 556.84 335.22C554.56 335.31 552.27 335.26 549.99 335.07C546.83 334.79 544.3 332.31 543.94 329.15C543.5 326.02 543.63 322.94 546.32 320.72C549 318.5 555.62 318.34 558.55 320.54C560.59 322.06 560.96 324.32 561 326.64C561 329.23 561.3 328.73 558.91 328.8C556.14 328.8 553.36 328.8 550.58 328.8C550.47 328.81 550.37 328.84 550.27 328.9C550.29 330.09 551.26 331.04 552.45 331.03Z" id="b1jZlH6etp"></path><path d="M619.59 319.28C623.2 319.35 625.41 321.32 625.62 324.88C625.8 328 625.71 331.14 625.78 334.25C625.78 335 625.49 335.19 624.81 335.18C623.42 335.18 622.03 335.13 620.64 335.18C619.84 335.18 619.62 334.92 619.63 334.1C619.63 331.62 619.63 329.14 619.63 326.66C619.63 324.63 619.04 323.92 617.56 323.83C615.06 323.66 615.06 323.66 615.06 326.16C615.06 328.66 615.06 331.22 615.06 333.7C615.06 334.86 614.72 335.17 613.63 335.09C612.39 335.02 611.15 335.02 609.91 335.09C609.1 335.09 608.91 334.81 608.91 334.02C608.91 329.4 608.91 324.79 608.91 320.17C608.91 319.28 609.24 319.09 609.98 319.09C611.71 319.34 613.35 319.28 614.98 319.28C616.52 319.28 618.06 319.28 619.59 319.28Z" id="e56FFPWAJt"></path><path d="M116 328.74C116.06 330.05 117.17 331.07 118.48 331.01C118.53 331.01 118.58 331 118.63 331C120.56 331 122.5 331.05 124.43 331C125.37 331 125.6 331.28 125.6 332.18C125.6 335.23 125.66 335.25 122.61 335.23C120.63 335.23 118.64 335.23 116.66 335.16C111.61 335 109.35 331.13 109.54 326.75C109.76 321.88 112.12 319.43 116.98 319.03C117.58 319 118.18 319 118.77 319.03C124.92 319.15 127 322.03 126.81 327.91C126.81 328.83 126.3 328.81 125.66 328.81C123.73 328.8 117.93 328.76 116 328.74Z" id="b1mRkZX8CW"></path><path d="M209.81 319.56C209.63 322.83 209.63 326.1 209.81 329.37C209.66 332.45 208.12 334.49 205.29 335.16C202.86 335.68 200.34 335.68 197.91 335.16C194.9 334.6 193.4 332.26 193.23 329.47C193.04 326.36 193.16 323.23 193.15 320.11C193.15 319.7 193.15 319.25 193.72 319.28C195.51 319.4 197.33 318.95 199.11 319.5C198.84 322.35 198.86 325.21 199.17 328.05C199.6 330.32 200.05 330.7 201.78 330.67C203.12 330.67 203.54 329.79 203.87 328.74C204.12 325.69 204.15 322.62 203.96 319.56C205.89 319.15 207.88 319.15 209.81 319.56Z" id="hGBsFCsal"></path><path d="M38.03 319.41C36.55 321.49 35.2 323.5 33.71 325.42C33.06 326.02 32.99 327.02 33.54 327.71C34.93 330.04 36.84 332.02 38.1 334.43C38.2 334.63 38.31 334.84 38.51 335.21C36.36 335.21 34.29 335.21 32.27 335.21C31.38 335.21 31.07 334.52 30.78 333.95C30.23 332.87 29.47 331.98 28.77 330.87C28.01 331.69 27.37 332.62 26.87 333.62C26.51 334.74 25.38 335.43 24.22 335.23C22.86 335.09 21.48 335.23 19.97 335.23C21.09 333.21 22.38 331.28 23.85 329.49C24.02 329.24 24.21 329.01 24.4 328.78C25.38 327.93 25.48 326.45 24.64 325.48C24.56 325.39 24.48 325.31 24.4 325.24C22.88 323.5 21.66 321.51 20.09 319.35C22.34 319.2 24.59 319.23 26.84 319.46C27.98 319.67 28.44 321.34 29.19 322.37C29.38 322.66 29.55 322.96 29.69 323.27C31.56 319.33 32.3 318.95 38.03 319.41Z" id="d22GmFkf9P"></path><path d="M41.05 325.29C41.19 324.03 41.05 323.14 39.4 323.44C38.83 323.55 38.59 323.25 38.6 322.67C38.64 321.98 38.64 321.29 38.6 320.59C38.51 319.68 38.75 319.13 39.8 319.31C40.84 319.49 41.1 319.09 41.07 318.1C41.07 316.93 40.53 315.36 41.26 314.66C42 313.96 43.62 314.45 44.85 314.43C47.17 314.43 47.18 314.43 47.18 316.75C47.18 319.31 47.18 319.37 49.76 319.29C50.96 319.29 51.4 319.51 51.35 320.8C51.27 323.44 51.35 323.5 48.71 323.42C47.47 323.42 47.03 323.72 47.15 324.97C47.27 326.22 47.15 327.26 47.15 328.4C47.22 330.32 47.67 330.82 49.56 330.77C50.64 330.77 50.98 331.06 50.97 332.18C50.9 335.21 50.97 335.21 47.91 335.21C47.32 335.25 46.73 335.25 46.14 335.21C42.9 334.88 41.29 333.26 41.06 329.96C40.98 329.02 41.06 328.09 41.06 327.14C41.01 326.49 41.01 325.89 41.05 325.29Z" id="kaQ8eE5S"></path><path d="M629.21 325.48C629.35 324.14 629.26 323.06 627.44 323.44C627.04 323.53 626.77 323.36 626.77 322.89C626.77 321.9 626.77 320.91 626.77 319.91C626.77 319.11 627.43 319.29 627.85 319.33C628.83 319.43 629.27 319.17 629.22 318.06C629.16 316.95 628.67 315.35 629.43 314.63C630.2 313.91 631.7 314.45 632.87 314.43C635.23 314.43 635.23 314.43 635.23 316.72C635.23 319.31 635.23 319.39 637.77 319.28C639.09 319.28 639.58 319.55 639.5 320.97C639.39 323.44 639.5 323.55 636.98 323.41C635.53 323.34 635.03 323.74 635.2 325.2C635.33 326.22 635.2 327.28 635.2 328.31C635.29 330.32 635.75 330.84 637.7 330.77C638.87 330.77 639.09 331.12 639.08 332.19C639.03 335.21 639.08 335.21 636.03 335.21C635.39 335.21 634.74 335.21 634.1 335.14C630.81 334.76 629.3 333.12 629.18 329.75C629.18 328.85 629.18 327.96 629.18 327.06C629.21 326.57 629.21 326.03 629.21 325.48Z" id="jAvGgoDd"></path><path d="M257.86 323.45C254.7 323.5 254.7 323.5 254.7 326.61C254.7 326.73 254.7 327.68 254.7 327.8C254.7 330.42 254.93 330.66 257.54 330.78C258.23 330.78 258.46 330.98 258.51 331.71C258.7 335.21 258.72 335.17 255.21 335.22C250.55 335.3 248.74 333.74 248.55 328.61C248.55 327.28 248.49 325.94 248.55 324.6C248.61 323.69 248.31 323.3 247.39 323.45C246.47 323.6 245.98 323.13 246.11 322.12C246.17 321.68 246.17 321.23 246.11 320.79C245.94 319.63 246.35 319.11 247.56 319.31C248.36 319.44 248.64 319.03 248.53 318.29C248.53 318.27 248.53 318.15 248.53 318.13C248.65 316.93 248.05 314.9 248.79 314.65C250.45 314.11 252.4 314.45 254.18 314.44C254.71 314.44 254.64 314.87 254.64 315.2C254.64 316.28 254.64 317.29 254.64 318.33C254.64 319.13 254.92 319.32 255.71 319.34C256.71 319.34 257.74 319.02 258.69 319.56C258.39 320.82 258.84 322.13 258.45 323.39C258.33 323.4 257.92 323.44 257.86 323.45Z" id="akjtLxLWU"></path><path d="M218.67 319.33C221.04 319.26 223.42 319.33 225.8 319.33C226.55 319.33 226.83 319.49 226.88 320.31C227 323.72 227.03 323.72 223.65 323.72C222.75 323.72 221.86 323.72 220.96 323.72C219.62 323.56 218.41 324.53 218.25 325.87C218.24 325.98 218.23 326.1 218.24 326.21C218.19 326.75 218.19 327.3 218.24 327.84C218.24 329.99 219.04 330.78 221.22 330.88C222.75 330.94 224.29 330.94 225.83 330.88C226.71 330.88 226.9 331.16 226.9 331.96C226.9 335.19 226.98 335.26 223.67 335.19C221.35 335.19 219.01 335.45 216.73 334.81C214.09 334.09 212.2 331.79 211.99 329.07C212.22 327.89 212.21 326.68 211.96 325.51C212.16 321.98 215.13 319.24 218.67 319.33Z" id="aNbYY2VN9"></path><path d="M372.63 312.15C373.22 312.15 373.14 312.65 373.14 313.03C373.14 323.68 373.14 332.2 373.14 334.33C373.14 334.81 373.14 335.25 372.45 335.21C370.64 335.11 368.81 335.46 367.06 335.02C367.11 327.48 367.18 319.95 366.99 312.41C368.85 311.8 370.76 312.27 372.63 312.15Z" id="a1qX5cBXW4"></path><path d="M439.09 312.16C439.66 312.16 439.58 312.68 439.58 313.06C439.58 315.18 439.58 332.18 439.58 334.31C439.58 334.78 439.58 335.23 438.91 335.2C437.11 335.11 435.27 335.45 433.52 335.02C433.69 329.25 433.52 323.48 433.58 317.7C433.67 315.93 433.62 314.16 433.44 312.4C435.3 311.81 437.2 312.26 439.09 312.16Z" id="a4vwtBG3K"></path><path d="M64.4 300.73C63.22 300.83 61.87 300.6 61.24 301.9C60.54 303.4 60.54 305.14 61.24 306.65C61.6 307.53 64.6 308.14 65.15 307.5C65.56 307.04 65.33 306.36 65.31 305.79C65.28 305.22 64.75 305.3 64.38 305.35C63.44 305.46 63.05 305.14 63.1 304.13C63.1 303.34 63.34 303.05 64.11 303.14C65.59 303.22 67.48 302.68 68.42 303.42C69.36 304.15 68.66 306.11 68.69 307.54C68.69 310.17 68.69 310.17 66.04 310.17C65.75 310.17 63.41 310.17 63.12 310.17C58.96 310.17 56.81 307.83 57.08 303.7C57.33 299.85 59.33 297.89 63.16 297.92C64.73 297.92 66.39 297.57 67.91 298.15C67.78 298.91 67.78 299.7 67.93 300.46C66.79 301.09 65.58 300.64 64.4 300.73Z" id="f17ZABtjhP"></path><path d="M266.52 319.34C267.08 319.34 267 319.87 267 320.25C267 321.66 267 332.96 267 334.37C267 334.87 266.95 335.29 266.31 335.26C264.5 335.15 262.69 335.49 260.92 335.07C261 329.87 261.08 324.67 260.86 319.56C262.73 319.02 264.63 319.42 266.52 319.34Z" id="f4X4ecE9A"></path><path d="M75.58 300.73C74.86 300.81 74.14 300.52 74.17 301.81C74.2 303.1 74.93 302.8 75.63 302.81C76.34 302.82 77.33 302.81 78.17 302.81C79.01 302.81 79.53 302.9 79.52 303.98C79.51 305.06 79.04 305.11 78.23 305.06C77.42 305 76.55 305.06 75.71 305.06C74.32 305.06 73.77 305.88 74.22 307.21C74.43 307.78 74.85 307.6 75.2 307.61C76.64 307.61 78.08 307.7 79.52 307.61C80.69 307.54 80.46 308.28 80.49 308.95C80.51 309.62 80.63 310.31 79.51 310.27C76.82 310.2 74.11 310.22 71.46 310.27C70.64 310.27 70.47 309.95 70.48 309.2C70.48 305.77 70.48 302.35 70.48 298.92C70.48 298.3 70.57 297.9 71.35 297.91C74.19 297.91 77.01 297.91 79.84 297.91C79.94 297.91 80.03 298.06 80.13 298.15C79.99 298.91 80 299.7 80.15 300.46C78.66 301.12 77.1 300.59 75.58 300.73Z" id="a2TOpOznuV"></path><path d="M46.23 298.91C46.23 298.22 46.3 297.83 47.17 297.83C51.12 297.92 54.27 297.83 55.06 297.83C56.52 297.83 55.91 298.84 56.01 299.49C56.11 300.15 56.07 300.84 54.93 300.77C53.55 300.68 52.16 300.77 50.77 300.77C50.03 300.77 49.83 301.05 49.86 301.72C49.88 302.4 49.86 302.9 50.78 302.8C51.71 302.71 52.87 302.8 53.91 302.8C54.94 302.8 55.17 303.02 55.19 304.02C55.21 305.02 54.61 305.1 53.89 305.05C53.17 304.99 52.19 305.05 51.35 305.05C50.51 305.05 49.82 305.05 49.82 306.34C49.82 307.63 50.44 307.64 51.38 307.61C52.66 307.61 53.95 307.61 55.25 307.61C56.32 307.56 56.09 308.31 56.09 308.91C56.09 309.5 56.35 310.25 55.26 310.24C51.15 310.24 47.88 310.24 47.06 310.24C46.29 310.24 46.18 309.9 46.19 309.25C46.25 307.42 46.23 305.71 46.23 303.98C46.23 302.29 46.23 300.59 46.23 298.91Z" id="e2171dWZTa"></path><path d="M103.58 300.72C102.66 300.72 102.17 300.72 102.17 301.95C102.17 303.18 102.65 303.23 103.57 303.17C104.49 303.1 105.36 303.17 106.26 303.17C107.15 303.17 107.66 303.01 107.65 304.25C107.64 305.49 107.09 305.47 106.19 305.47C104.92 305.47 103.29 304.93 102.46 305.68C101.63 306.44 102.26 308.03 102.24 309.26C102.24 309.98 101.99 310.17 101.3 310.2C98.58 310.35 98.58 310.38 98.58 307.61C98.58 306.75 98.58 299.85 98.58 298.99C98.58 298.45 98.47 297.91 99.35 297.91C102.23 297.91 105.11 297.91 107.98 297.91C107.98 297.91 108.09 298.05 108.14 298.12C108.01 298.9 108.01 299.69 108.16 300.46C106.66 301.13 105.1 300.65 103.58 300.72Z" id="aMUb246ab"></path><path d="M0.31 303.1C1.07 299.06 2.57 297.81 6.63 297.81C7.22 297.85 7.82 297.85 8.41 297.81C9.75 297.63 10.25 298.07 10.15 299.48C10.07 300.4 9.93 300.89 8.91 300.73C8.55 300.7 8.19 300.7 7.83 300.73C4.41 300.73 2.9 303.18 4.37 306.31C4.77 307.07 5.57 307.54 6.44 307.51C7.17 307.61 7.92 307.61 8.66 307.51C9.94 307.33 10.09 307.95 10.09 309.02C10.09 310.1 9.74 310.21 8.87 310.16C8.01 310.1 7.19 310.16 6.35 310.16C2.57 310.15 0.87 308.7 0.31 304.94C0.31 304.57 0.31 303.29 0.31 303.1Z" id="a1fSrVBrts"></path><path d="M25.09 298.91C25.09 298.05 25.36 297.83 26.17 297.83C28.72 297.83 28.72 297.76 28.72 300.29C28.72 302.37 28.72 304.46 28.72 306.54C28.72 307.32 28.96 307.62 29.8 307.57C30.94 307.51 32.09 307.57 33.23 307.57C34.37 307.57 34.12 308.2 34.1 308.82C34.08 309.43 34.42 310.25 33.2 310.22C30.81 310.16 28.43 310.22 26.05 310.22C25.29 310.22 25.13 309.91 25.15 309.24C25.11 307.42 25.09 305.71 25.09 303.98C25.09 302.3 25.09 300.6 25.09 298.91Z" id="a49q3Hg8Fs"></path><path d="M35.71 299.1C35.71 298.19 35.87 297.8 36.92 297.82C39.35 297.82 39.35 297.82 39.35 300.23C39.35 302.25 39.41 304.29 39.35 306.32C39.35 307.25 39.53 307.67 40.56 307.58C41.6 307.49 42.64 307.58 43.68 307.58C44.71 307.58 44.76 308.1 44.76 308.85C44.76 309.61 44.97 310.26 43.81 310.23C41.43 310.17 39.05 310.23 36.68 310.23C35.94 310.23 35.76 309.93 35.77 309.26C35.73 307.47 35.71 305.75 35.71 304.01C35.71 302.37 35.71 300.78 35.71 299.1Z" id="c279mdbq22"></path><path d="M260.52 313.96C260.46 312.39 260.92 311.88 262.46 312.06C263.54 312.18 264.62 312.18 265.7 312.06C266.88 311.95 267.22 312.43 267.04 313.49C267.03 313.59 267.03 313.69 267.04 313.79C267.07 317.12 267.07 317.12 263.68 317.12C260.57 317.12 260.65 317.12 260.52 313.96Z" id="a3e0odANGc"></path><path d="M330.78 313.84C330.78 313.03 330.15 313.25 329.7 313.25C326.41 313.25 323.11 313.25 319.82 313.25C319.54 313.07 319.2 313.25 318.92 313.08C318.83 312.98 318.83 312.84 318.92 312.74C322.82 312.28 326.73 312.65 330.65 312.53C331.23 312.53 331.47 312.75 331.41 313.33C331.41 313.37 331.41 313.42 331.41 313.47C331.41 314.95 331.89 316.83 331.16 317.78C330.44 318.73 328.47 317.95 327.06 318.06C324.95 318.23 322.8 317.66 320.73 318.46C320.59 318.35 320.56 318.15 320.66 318.01C320.82 317.53 321.19 317.48 321.61 317.52C324.6 317.71 327.59 317.69 330.57 317.47C331.04 316.28 330.71 315.05 330.78 313.84Z" id="a2v901P1Y"></path><path d="M336.19 321.96C336.19 321.67 336.38 321.5 336.54 321.29C337.37 322.91 336.83 324.63 336.84 326.3C336.84 326.97 336.02 326.7 335.6 326.65C334.6 326.57 334.35 326.93 334.36 327.89C334.36 332.11 334.36 336.32 334.36 340.54C334.36 341.62 334.03 341.98 332.93 341.92C331.4 341.82 329.86 341.87 328.32 341.92C327.55 341.92 327.24 341.69 327.29 340.91C327.29 339.52 327.24 338.12 327.29 336.74C327.36 335.72 326.96 335.53 326.03 335.53C324.21 335.64 322.37 335.6 320.56 335.41C320.98 334.92 321.55 335.05 322.05 335.06C323.85 334.97 325.65 335.02 327.44 335.2C328.12 336.09 327.71 337.11 327.79 338.06C327.87 339.01 327.79 339.74 327.79 340.58C327.79 341.01 327.79 341.47 328.42 341.47C328.81 341.47 332 341.47 332.39 341.47C332.86 341.47 333.39 341.64 333.74 341.12C333.96 340.21 334.01 339.26 333.89 338.33C333.89 334.52 333.89 330.71 333.89 326.89C333.89 326.35 334.19 326.3 334.63 326.25C335.06 326.21 335.55 326.48 335.88 326.07C336.57 324.74 336.06 323.33 336.19 321.96Z" id="g6itekB4LG"></path><path d="M336.19 321.96C333.9 321.96 331.62 321.96 329.34 321.9C328.38 321.9 328.04 322.13 328.07 323.14C328.16 325.12 328.07 327.11 328.07 329.09C328.07 329.55 328.3 330.08 327.88 330.49C327.57 328.33 327.82 326.07 327.74 323.86C327.79 323.38 327.79 322.89 327.74 322.4C327.74 324.83 327.74 327.53 327.67 330.23C325.97 330.64 324.24 330.32 322.53 330.42C322.17 330.42 321.83 330.42 321.45 330.42C321.07 330.42 321.2 330.2 321.3 330.02C322.93 330.02 324.53 329.94 326.18 330.02C327.08 330.02 327.39 329.82 327.36 328.87C327.29 326.65 327.36 324.42 327.36 322.2C327.36 321.56 327.46 321.19 328.24 321.21C331 321.25 333.77 321.26 336.54 321.29C336.57 321.57 336.43 321.83 336.19 321.96Z" id="aMLJQneUJ"></path><path d="M433.7 313.48C433.7 323.75 433.7 331.91 433.7 333.96C433.77 334.31 433.69 334.66 433.48 334.94C433.31 334.48 433.27 333.98 433.34 333.5C433.34 331.52 433.34 315.7 433.34 313.72C433.34 313.28 433.41 312.81 433.44 312.4C433.79 312.71 433.7 313.12 433.7 313.48Z" id="a3SBLGn590"></path><path d="M367.23 313.49C367.23 323.74 367.23 331.92 367.23 333.97C367.29 334.32 367.21 334.68 367.01 334.97C367.01 331 366.94 327.03 366.93 323.11C366.93 319.55 366.97 315.98 366.99 312.41C367.32 312.72 367.23 313.14 367.23 313.49Z" id="d1BEuxMki"></path><path d="M145.18 333.89C145.18 323.71 145.18 315.57 145.18 313.53C145.18 313.14 145.08 312.73 145.41 312.45C145.51 319.95 145.56 327.48 145.39 335.03C145.1 334.7 145.19 334.28 145.18 333.89Z" id="bxjjcWWSA"></path><path d="M448.6 314.08C448.6 323.98 448.6 331.89 448.6 333.87C448.6 334.25 448.69 334.66 448.37 335C448.37 335 448.31 334.91 448.31 334.87C448.19 327.6 448.09 320.36 448.35 313C448.69 313.32 448.6 313.72 448.6 314.08Z" id="c1VuahNp5r"></path><path d="M320.64 335.4C320.08 335.51 319.5 335.5 318.95 335.34C318.49 335 317.87 335.34 317.44 335.07C317.44 335.07 317.44 335.07 317.44 335.07C317.39 334.79 317.44 334.62 317.78 334.75C321.16 334.93 324.56 334.54 327.92 335.02C327.92 335.04 327.92 335.17 327.92 335.19C327.83 335.28 327.72 335.33 327.6 335.34C326.2 335.35 321.34 335.39 320.64 335.4Z" id="b5X7SSt7Jb"></path><path d="M261.13 320.52C261.13 321.89 261.13 332.83 261.13 334.2C261.17 334.5 261.08 334.8 260.89 335.03C260.66 333.18 260.62 331.31 260.75 329.44C260.76 326.15 260.58 322.85 260.86 319.56C261.1 319.81 261.2 320.17 261.13 320.52Z" id="aTS0hXQH"></path><path d="M317.45 335.05C315.16 334.85 314.03 333.27 313.14 331.41C313.14 331.12 313.03 330.64 313.63 330.85C314.46 332.63 315.95 334.03 317.8 334.73C317.73 334.79 317.48 335.02 317.45 335.05Z" id="eD2kcZ5ed"></path><path d="M363.96 333.46C363.96 329.69 363.96 325.91 363.96 322.18C364.24 322.08 364.31 322.29 364.31 322.47C364.24 326.65 364.5 330.85 364.19 335.03C363.79 334.56 363.97 333.95 363.96 333.46Z" id="j3kjBvWKCp"></path><path d="M324.89 321.96C324.92 321.77 325.04 321.61 325.22 321.53C325.34 321.5 325.48 321.53 325.56 321.63C325.56 322.86 325.56 324.08 325.63 325.3C325.63 325.95 325.37 326.17 324.76 326.15C323.82 326.09 322.89 326.15 321.97 326.08C321.88 325.98 321.89 325.82 321.99 325.73C322.02 325.71 322.04 325.69 322.08 325.68C322.98 325.49 323.99 325.99 324.89 325.39C324.89 324.71 324.89 322.31 324.89 321.96Z" id="ggdTPRTeh"></path><path d="M314.14 317.46C313.92 318.34 313.92 319.26 314.14 320.14C314.18 320.28 314.46 321.36 314.5 321.5C314.65 321.74 314.63 322.05 314.44 322.26C313.87 321.74 313.54 320.99 313.54 320.22C313.35 319.29 313.35 318.34 313.54 317.41C313.64 316.41 313.5 315.27 314.91 315.06C314.75 315.89 313.96 316.52 314.14 317.46Z" id="b46tEFixH"></path><path d="M313.15 331.41C312.69 329.74 312.73 327.98 313.26 326.33C313.45 326.37 313.61 326.52 313.67 326.72C313.45 328.08 313.44 329.48 313.64 330.85C313.4 330.94 313.22 331.15 313.15 331.41Z" id="c1p6XFGsxF"></path><path d="M209.59 326.77C209.66 324.37 209.25 321.95 209.81 319.56C209.97 322.84 209.94 326.1 209.83 329.37C209.46 328.55 209.38 327.64 209.59 326.77Z" id="g3684AWTOl"></path><path d="M88.27 328.19C88.27 327.3 87.93 326.34 88.55 325.5C88.75 328.67 88.72 331.86 88.49 335.03C87.95 332.77 88.34 330.47 88.27 328.19Z" id="a3X9BAYpN5"></path><path d="M318.96 312.99C318.86 313.13 318.71 313.22 318.64 313.37C317.4 313.76 316.21 314.29 315.08 314.93C314.8 314.05 315.56 313.85 316.07 313.58C316.93 313.03 317.93 312.73 318.96 312.72C318.96 312.81 318.96 312.9 318.96 312.99Z" id="jbfUAegR2"></path><path d="M203.88 328.79C203.91 325.75 203.93 322.63 203.96 319.56C204.39 322.62 204.36 325.73 203.88 328.79Z" id="b2MqwlYdbg"></path><path d="M198.89 328.43C198.97 325.47 198.49 322.49 199.12 319.55C199.32 322.39 199.35 325.25 199.18 328.1C199.11 328.25 198.89 328.49 198.89 328.43Z" id="h3ZYfNJCbt"></path><path d="M314.52 321.5C315.4 322.25 315.9 323.54 317.45 323.42C317 323.92 316.32 324.15 315.66 324.03C315.75 323.12 314.36 323.2 314.46 322.26C314.47 322.11 314.51 321.58 314.52 321.5Z" id="gl1oDbrEy"></path><path d="M185.03 318.93C184.99 318.95 184.95 318.95 184.91 318.93C184.86 318.92 184.82 318.89 184.78 318.86C184.63 316.7 184.65 314.54 184.82 312.39C185.44 314.54 185.05 316.7 185.03 318.93Z" id="e2Wm6Dk24i"></path><path d="M313.26 326.33C313.4 325.44 313.96 324.68 314.75 324.27C314.97 324.3 315.15 324.46 315.2 324.68C314.59 325.28 314.08 325.97 313.67 326.72C313.58 326.64 313.3 326.37 313.26 326.33Z" id="j4zFUY9HBH"></path><path d="M321.94 326.08C321.09 326.15 320.32 326.6 319.84 327.3C319.64 327.16 319.52 326.93 319.53 326.68C319.84 325.97 320.57 325.51 321.35 325.55C321.51 325.75 321.82 325.58 321.94 325.83C321.94 325.88 321.94 326.06 321.94 326.08Z" id="bdBzJCJ78"></path><path d="M319.85 318.95C320.65 318.95 320.31 319.63 320.5 320.03C320.7 320.43 320.5 320.57 320.74 320.78C320.77 320.81 321 321.07 321.03 321.1C321.12 321.16 321.19 321.26 321.2 321.37C321.18 321.47 321.12 321.55 321.04 321.61C319.29 321.33 319.82 320.02 319.85 318.95Z" id="d5k1tC9PA"></path><path d="M321.04 321.07C322.26 321.07 323.48 321.07 324.68 321.15C325.03 321.15 325.53 320.98 325.54 321.63C325.23 321.63 322.76 321.63 322.45 321.63C321.96 321.69 321.46 321.57 321.04 321.3C321.05 321.23 321.05 321.15 321.04 321.07Z" id="c1sTqdhXI6"></path><path d="M354.73 325.75L354.42 325.75C354.42 323.66 354.42 322.5 354.42 322.26C354.5 322.06 354.6 322.05 354.73 322.18C354.73 322.65 354.73 323.84 354.73 325.75Z" id="c4t3ZDp0O"></path><path d="M358.26 326.42C358.8 327.64 358.8 329.05 358.26 330.28C358.26 330.28 358.26 326.42 358.26 326.42Z" id="b5YZleOTF"></path><path d="M319.84 327.3C319.77 328.09 319.88 328.88 320.17 329.62C320.28 329.76 320.25 329.96 320.11 330.07C319.82 329.96 319.6 329.7 319.54 329.39C319.33 328.5 319.33 327.57 319.54 326.68C319.54 326.68 319.81 327.24 319.84 327.3Z" id="b21lkpJ7sC"></path><path d="M258.69 319.56C258.68 320.84 259.12 322.15 258.45 323.39C258.58 322.11 258.15 320.81 258.69 319.56Z" id="a2VuXdDlwK"></path><path d="M489.16 341.29C489.04 340.01 489.04 338.72 489.16 337.43C489.62 338.68 489.62 340.05 489.16 341.29Z" id="d2HuI1XnzY"></path><path d="M211.96 329.08C211.73 327.9 211.73 326.69 211.96 325.51C212.42 326.65 212.42 327.93 211.96 329.08Z" id="cJZ360AA7"></path><path d="M319.85 318.95C319.85 318.39 320.07 317.99 320.71 317.99C320.71 318.04 320.76 318.4 320.77 318.45C320.78 318.54 320.78 318.63 320.77 318.72C320.3 319.12 320.82 319.74 320.42 320.14C319.95 319.88 320.34 319.2 319.85 318.95Z" id="b9le0KIJC"></path><path d="M313.56 320.22C313.2 319.32 313.2 318.31 313.56 317.41C313.56 317.97 313.56 319.94 313.56 320.22Z" id="a3V7lu2lI7"></path><path d="M67.93 300.46C67.55 299.72 67.55 298.85 67.93 298.1C67.93 298.1 67.93 300.46 67.93 300.46Z" id="c96ODi50p"></path><path d="M80.15 300.46C79.78 299.72 79.78 298.84 80.15 298.1C80.15 298.1 80.15 300.46 80.15 300.46Z" id="c3qkZfd0N9"></path><path d="M108.16 300.46C107.79 299.72 107.79 298.85 108.16 298.1C108.16 298.1 108.16 300.46 108.16 300.46Z" id="bgHasARqw"></path><path d="M228.37 331.46C228.22 330.78 228.22 330.07 228.37 329.39C228.77 330.02 228.77 330.83 228.37 331.46Z" id="a1aRXboPMA"></path><path d="M320.42 320.14C320.42 319.65 320.29 319.06 320.76 318.72C320.76 319.4 320.76 320.08 320.76 320.74C320.69 320.62 320.48 320.26 320.42 320.14Z" id="aAmIZuNsJ"></path><path d="M414.1 331.16C414.1 330.57 414.1 329.98 414.1 329.39C414.49 329.92 414.49 330.63 414.1 331.16Z" id="aTasfX9lL"></path><path d="M320.17 329.61L321.37 330.06C321.37 330.2 321.37 330.28 321.37 330.3C321.2 330.48 320.92 330.51 320.72 330.36C320.45 330.32 320.22 330.33 320.11 330.06C320.12 330 320.14 329.85 320.17 329.61Z" id="jIjwT5Ol1"></path><path d="M314.75 324.26C314.99 323.9 315.35 323.96 315.69 323.99C315.78 324.27 315.62 324.56 315.34 324.65C315.29 324.66 315.24 324.67 315.2 324.67C315.11 324.59 314.8 324.3 314.75 324.26Z" id="al9iPDg8z"></path><path d="M318.95 335.34C318.43 335.46 317.89 335.36 317.44 335.07C317.96 335.07 318.52 334.88 318.95 335.34Z" id="a4weYEgN5u"></path><path d="M19.57 305.95C19.35 307.36 18.4 307.78 17.12 307.75C16.01 307.83 15.05 306.99 14.97 305.88C14.97 305.87 14.97 305.85 14.97 305.83C14.77 304.82 14.74 303.77 14.89 302.75C15.19 301.15 15.86 300.47 17.28 300.47C18.71 300.47 19.44 301.16 19.71 302.72C19.75 303.2 19.77 303.69 19.76 304.18C19.71 304.68 19.67 305.33 19.57 305.95Z" id="b1Wf8mfxKy"></path><path d="M90.87 300.48C91.89 300.46 92.8 301.16 93.03 302.16C93.37 303.5 93.37 304.91 93.03 306.25C92.79 307.27 91.8 307.93 90.77 307.76C89.74 307.93 88.74 307.28 88.49 306.26C88.3 305.55 88.22 304.81 88.25 304.06C88.25 301.46 89.01 300.39 90.87 300.48Z" id="e1FVKSrBeZ"></path><path d="M334.1 339.74C334.1 340.27 334.29 340.82 333.85 341.29C333.8 341.4 333.67 341.45 333.56 341.39C333.52 341.37 333.48 341.34 333.46 341.29C333.77 340.85 333.89 340.3 333.78 339.76C333.78 335.63 333.78 331.49 333.78 327.35C333.78 326.94 333.44 326.35 334.14 326.11C334.25 326.18 334.28 326.24 334.25 326.32C334.22 326.39 334.21 326.4 334.17 326.4C334.17 330.86 334.17 335.3 334.1 339.74Z" id="b74DuaHCW"></path><path d="M330.57 317.47C329.76 318.06 328.84 317.75 327.98 317.73C325.83 317.67 323.75 318.04 321.66 317.51C323.44 317.5 328.79 317.47 330.57 317.47Z" id="cNHW4iGr7"></path><path d="M327.6 322.27L327.84 322.27L327.84 330.49C327.67 330.53 327.57 330.55 327.55 330.56C327.44 330.49 327.41 330.44 327.44 330.37C327.48 330.31 327.55 330.28 327.6 330.28C327.6 329.21 327.6 326.54 327.6 322.27Z" id="e4izixiKg"></path><path d="M327.65 340.95C327.92 339.01 327.6 337.06 327.83 335.13C327.84 335.11 327.92 335.01 327.93 335C328.36 337.07 327.85 339.17 328.22 341.23C328.3 341.28 328.33 341.37 328.3 341.46C328.26 341.53 328.24 341.56 328.21 341.56C327.78 341.56 327.61 341.36 327.65 340.95Z" id="anZ3uUUz6"></path><path d="M325.2 321.65C325.17 321.68 324.88 321.95 324.85 321.98C323.65 321.83 322.43 322.13 321.27 321.68C321.61 321.3 322.1 321.62 322.45 321.43C323.37 321.43 324.32 321.14 325.2 321.65Z" id="bh5kSMTkO"></path><path d="M328.21 341.23L333.45 341.23C333.68 341.23 333.81 341.23 333.84 341.23C331.99 341.92 330.09 341.45 328.21 341.56C328.21 341.52 328.21 341.41 328.21 341.23Z" id="b1ZDqL5cT1"></path><path d="M327.6 330.28L327.6 330.56C324.36 330.56 322.56 330.56 322.2 330.56C322.1 330.49 322.06 330.44 322.1 330.37C322.13 330.31 322.16 330.28 322.19 330.28C322.91 330.28 324.71 330.28 327.6 330.28Z" id="f5ntKhl9Cj"></path><path d="M321.35 325.55C321.71 325.54 324.54 325.41 324.89 325.39C324.01 326.24 322.91 325.57 321.94 325.83C321.71 325.83 321.48 325.83 321.35 325.55Z" id="d3U2t2BDJ"></path><path d="M314.16 317.46C314.17 318.35 314.16 319.28 314.16 320.14C313.71 319.3 313.71 318.29 314.16 317.46Z" id="a4D1BO3MX"></path><path d="M319.53 329.39C319.01 328.56 319.01 327.51 319.53 326.68C319.53 327.59 319.53 328.5 319.53 329.39Z" id="ger8yjsxD"></path><path d="M334.17 326.09C335.21 326.09 335.78 326.09 335.9 326.09C335.97 326.19 336.52 326.22 336.04 326.37C335.42 326.47 334.79 326.48 334.17 326.4C334.17 326.36 334.17 326.26 334.17 326.09Z" id="a668x7ejF"></path><path d="M318.63 313.37L318.3 313.13C318.69 313.05 318.91 313 318.95 312.99C319.26 312.99 319.6 312.94 319.83 313.23C319.67 313.25 319.27 313.29 318.63 313.37Z" id="a5nwxjnCZ8"></path><path d="M322.23 330.28C322.22 330.37 322.22 330.46 322.23 330.56C321.69 330.69 321.13 330.6 320.66 330.31C320.71 330.3 320.93 330.28 321.32 330.24C321.8 330.26 322.11 330.27 322.23 330.28Z" id="abzA5Lqng"></path><path d="M322.45 321.43C322.11 321.78 321.66 321.56 321.27 321.68C321.26 321.68 321.22 321.68 321.14 321.68L321.03 321.61L321.03 321.3C321.79 321.37 322.26 321.42 322.45 321.43Z" id="f2C8kmF8YO"></path><path d="M535.77 327.31C535.84 327.7 535.84 328.1 535.77 328.49C535.48 329.23 536.67 330.64 534.81 330.64C532.28 330.76 531.42 330.26 531.17 328.49C531.11 328.05 531.08 327.6 531.08 327.16C531 324.2 532.34 323.09 535.24 323.64C535.84 323.75 535.8 324.06 535.79 324.46C535.79 325.03 535.78 326.74 535.77 327.31Z" id="ab32GNgp9"></path><path d="M498.2 327.25C498.27 327.63 498.27 328.03 498.2 328.42C497.87 329.16 499.14 330.58 497.32 330.68C494.66 330.88 493.92 330.42 493.63 328.44C493.53 327.91 493.48 327.37 493.47 326.82C493.54 324.18 495.22 322.98 497.79 323.68C498.27 323.82 498.24 324.1 498.25 324.43C498.24 324.99 498.21 326.68 498.2 327.25Z" id="a8lnkYepqs"></path><path d="M101.42 328.82C101.18 329.55 102.23 330.84 100.59 330.98C98.3 331.19 97.2 330.61 96.91 328.98C96.7 327.86 96.7 326.71 96.91 325.58C97.19 324 99.88 322.86 101.22 323.71C101.53 323.91 101.45 324.23 101.46 324.51C101.48 325.47 101.42 326.4 101.42 327.34C101.5 327.83 101.5 328.33 101.42 328.82Z" id="a5PuQ3KMx"></path><path d="M401.55 327.29C401.55 326.89 401.42 326.43 401.55 326.11C401.94 325.33 400.47 323.75 402.55 323.68C405.25 323.59 406.09 324.18 406.24 326.33C406.28 326.87 406.28 327.41 406.24 327.96C406.14 330.54 404.52 331.7 402.02 331.01C401.47 330.86 401.53 330.5 401.52 330.1C401.52 329.54 401.54 327.85 401.55 327.29Z" id="d2rpuPwpj7"></path><path d="M181.8 330.92C180.33 330.68 179.73 329.25 179.92 326.61C180.06 324.58 180.67 323.77 182.18 323.7C183.02 323.7 183.87 323.7 184.71 323.7C185.25 324.51 184.96 325.41 184.94 326.26C184.91 327.83 185.24 329.36 184.74 330.85C183.78 331.09 182.77 331.12 181.8 330.92Z" id="d1CaPIHgfh"></path><path d="M184.74 323.75C185.14 323.9 185.15 324.26 185.15 324.61C185.15 325.15 185.15 329.47 185.15 330.01C185.12 330.32 185.12 330.67 184.74 330.85C184.74 329.43 184.74 324.46 184.74 323.75Z" id="dw46g8mh2"></path><path d="M139.47 328.91C139.25 329.61 140.27 330.81 138.71 331C136.47 331.26 135.31 330.76 134.95 329.28C134.61 327.98 134.61 326.61 134.95 325.3C135.3 323.97 138.33 322.93 139.34 323.77C139.61 323.99 139.51 324.32 139.51 324.6C139.47 325.55 139.47 326.49 139.47 327.43C139.55 327.92 139.55 328.42 139.47 328.91Z" id="b5Mqg3XEVw"></path><path d="M420.99 331.25C420.34 331.16 419.88 330.57 419.97 329.92C420.03 329.41 420.41 329 420.91 328.91C422.05 328.8 423.18 328.78 424.32 328.85C425.16 328.92 424.78 329.69 424.81 330.16C424.83 330.62 425.09 331.23 424.26 331.23C423.72 331.23 423.18 331.23 422.63 331.23C422.08 331.25 421.55 331.25 420.99 331.25Z" id="fhsbo3nqC"></path><path d="M235.26 331.25C234.68 331.25 234.21 330.8 234.18 330.22C234.13 329.54 234.38 328.98 235.09 328.93C236.26 328.79 237.45 328.77 238.62 328.87C239.46 328.97 238.99 329.83 239.08 330.35C239.16 330.87 239.18 331.28 238.48 331.28C238.38 331.28 237.83 331.28 236.86 331.28C236.15 331.26 235.62 331.25 235.26 331.25Z" id="b7SurEMkzS"></path><path d="M513.26 331.23C512.7 331.24 512.24 330.82 512.18 330.26C512.11 329.67 512.26 329.05 512.86 328.96C514.28 328.78 515.75 328.44 517.17 329.13C517.45 329.78 517.42 330.52 517.09 331.14C515.82 331.3 514.54 331.33 513.26 331.23Z" id="b8srk9vayH"></path><path d="M517.09 329.13C517.64 329.69 517.64 330.58 517.09 331.14C517.09 330.74 517.09 329.33 517.09 329.13Z" id="b13XbJsgoZ"></path><path d="M275.45 325.55C275.48 324.3 276.52 323.3 277.77 323.32C277.83 323.32 277.88 323.33 277.93 323.33C279.67 323.28 280.49 323.86 280.81 325.43C281 326.41 281.03 327.41 280.91 328.4C280.71 330.45 279.83 331.29 278.05 331.26C276.27 331.22 275.51 330.33 275.4 328.23C275.4 327.88 275.4 327.54 275.4 327.15C275.36 326.64 275.39 326.09 275.45 325.55Z" id="a36mOJ3ZYQ"></path><path d="M287.1 328.41C286.89 328.41 286.77 328.41 286.74 328.41C286.92 327.43 286.41 326.42 287.1 325.47C287.1 325.46 287.1 326.45 287.1 328.41Z" id="e2lc8Ypdql"></path><path d="M387.24 327.29C387.14 327.97 387.08 328.66 386.94 329.34C386.49 330.78 384.95 331.59 383.51 331.14C382.65 330.87 381.98 330.2 381.71 329.34C381.52 328.31 381.47 327.27 381.58 326.23C381.69 324.18 382.44 323.37 384.19 323.35C386.12 323.35 386.98 324.16 387.14 326.25C387.14 326.6 387.14 326.95 387.14 327.33C387.16 327.32 387.22 327.3 387.24 327.29Z" id="akAizo221"></path><path d="M600.57 323.72C600.9 324.17 601.02 324.74 600.88 325.28C600.64 325.88 600.02 325.53 599.57 325.56C598.88 325.61 598.19 325.61 597.5 325.56C596.98 325.56 596.23 325.87 596.01 325.32C595.88 324.62 596.12 323.91 596.65 323.44C596.96 323.05 597.42 322.81 597.92 322.77C598.29 322.51 598.78 322.51 599.15 322.77C599.75 322.84 600.28 323.19 600.57 323.72Z" id="b57eIPq4E"></path><path d="M597.92 322.77C598.33 321.97 598.74 321.98 599.15 322.77C598.9 322.77 598.04 322.77 597.92 322.77Z" id="b3ORw1QEfB"></path><path d="M63.3 323.45C63.77 323.92 63.97 324.58 63.83 325.23C63.62 325.91 62.9 325.51 62.42 325.55C61.72 325.61 61.03 325.61 60.34 325.55C59.87 325.55 59.17 325.82 58.98 325.35C58.81 324.71 58.99 324.04 59.45 323.57C59.77 323.12 60.27 322.82 60.82 322.76C61.19 322.51 61.67 322.52 62.04 322.77C62.54 322.81 63 323.05 63.3 323.45Z" id="a4pw5rsCfR"></path><path d="M60.82 322.77C61.22 321.98 61.63 321.97 62.04 322.77C61.8 322.77 60.94 322.77 60.82 322.77Z" id="d5Gig6r5Xb"></path><path d="M554.72 323.6C555.05 324.15 555.42 324.81 555.16 325.38C554.9 325.95 554.25 325.54 553.78 325.56C553.14 325.61 552.5 325.61 551.87 325.56C551.32 325.51 550.5 325.9 550.28 325.28C550.12 324.49 550.44 323.68 551.1 323.21C551.39 323.03 551.7 322.88 552.02 322.78C552.48 322.47 553.08 322.47 553.54 322.78C554.02 322.89 554.44 323.19 554.72 323.6Z" id="fvTCwJFkG"></path><path d="M552.02 322.78C552.53 321.9 553.03 321.91 553.54 322.78C553.24 322.78 552.17 322.78 552.02 322.78Z" id="aZ2yeQZSi"></path><path d="M120.34 323.43C120.76 324 121.18 324.69 120.91 325.33C120.64 325.96 119.94 325.53 119.43 325.56C118.7 325.56 117.95 325.56 117.21 325.56C115.81 325.56 115.61 325.22 116.27 323.95C116.55 323.36 117.07 322.93 117.71 322.77C118.17 322.44 118.8 322.45 119.26 322.78C119.69 322.85 120.08 323.08 120.34 323.43Z" id="c2V6ZkJEOZ"></path><path d="M117.75 322.78C118.26 321.92 118.75 321.9 119.26 322.78C118.96 322.78 117.9 322.78 117.75 322.78Z" id="cnYchtxRL"></path><path d="M327.84 335.13C327.84 337.07 328.15 339.02 327.66 340.95C327.66 339.07 327.66 337.21 327.61 335.34C327.65 335.3 327.8 335.17 327.84 335.13Z" id="bxja4b8nM"></path></defs><g><g><g><use xlink:href="#b1ra7jO3Xc" opacity="1" fill="#fefefe" fill-opacity="1"></use><g><use xlink:href="#b1ra7jO3Xc" opacity="1" fill-opacity="0" stroke="#000000" stroke-width="1" stroke-opacity="0"></use></g></g><g><use xlink:href="#g1OUPkNtF" opacity="1" fill="#275629" fill-opacity="1"></use><g><use xlink:href="#g1OUPkNtF" opacity="1" fill-opacity="0" stroke="#000000" stroke-width="1" stroke-opacity="0"></use></g></g><g><use xlink:href="#ehZELvd88" opacity="1" fill="#275629" fill-opacity="1"></use><g><use xlink:href="#ehZELvd88" opacity="1" fill-opacity="0" stroke="#000000" stroke-width="1" stroke-opacity="0"></use></g></g><g><use xlink:href="#a10CnOO6Jj" opacity="1" fill="#e1e7e1" fill-opacity="1"></use><g><use xlink:href="#a10CnOO6Jj" opacity="1" fill-opacity="0" stroke="#000000" stroke-width="1" stroke-opacity="0"></use></g></g><g><use xlink:href="#cogF35GK" opacity="1" fill="#9db29e" fill-opacity="1"></use><g><use xlink:href="#cogF35GK" opacity="1" fill-opacity="0" stroke="#000000" stroke-width="1" stroke-opacity="0"></use></g></g><g><use xlink:href="#a34xpbeLzE" opacity="1" fill="#9db29e" fill-opacity="1"></use><g><use xlink:href="#a34xpbeLzE" opacity="1" fill-opacity="0" stroke="#000000" stroke-width="1" stroke-opacity="0"></use></g></g><g><use xlink:href="#f2mzd18gfu" opacity="1" fill="#fefefe" fill-opacity="1"></use><g><use xlink:href="#f2mzd18gfu" opacity="1" fill-opacity="0" stroke="#000000" stroke-width="1" stroke-opacity="0"></use></g></g><g><use xlink:href="#gixegLiyC" opacity="1" fill="#275629" fill-opacity="1"></use><g><use xlink:href="#gixegLiyC" opacity="1" fill-opacity="0" stroke="#000000" stroke-width="1" stroke-opacity="0"></use></g></g><g><use xlink:href="#d14xe7Mbv4" opacity="1" fill="#275629" fill-opacity="1"></use><g><use xlink:href="#d14xe7Mbv4" opacity="1" fill-opacity="0" stroke="#000000" stroke-width="1" stroke-opacity="0"></use></g></g><g><use xlink:href="#c1LOJ91cIU" opacity="1" fill="#275629" fill-opacity="1"></use><g><use xlink:href="#c1LOJ91cIU" opacity="1" fill-opacity="0" stroke="#000000" stroke-width="1" stroke-opacity="0"></use></g></g><g><use xlink:href="#b33QD6Kzy8" opacity="1" fill="#275629" fill-opacity="1"></use><g><use xlink:href="#b33QD6Kzy8" opacity="1" fill-opacity="0" stroke="#000000" stroke-width="1" stroke-opacity="0"></use></g></g><g><use xlink:href="#d3u4nbddOa" opacity="1" fill="#275629" fill-opacity="1"></use><g><use xlink:href="#d3u4nbddOa" opacity="1" fill-opacity="0" stroke="#000000" stroke-width="1" stroke-opacity="0"></use></g></g><g><use xlink:href="#caBF4fi9m" opacity="1" fill="#275629" fill-opacity="1"></use><g><use xlink:href="#caBF4fi9m" opacity="1" fill-opacity="0" stroke="#000000" stroke-width="1" stroke-opacity="0"></use></g></g><g><use xlink:href="#h6E0cMX1PU" opacity="1" fill="#275629" fill-opacity="1"></use><g><use xlink:href="#h6E0cMX1PU" opacity="1" fill-opacity="0" stroke="#000000" stroke-width="1" stroke-opacity="0"></use></g></g><g><use xlink:href="#c88kLgLC6" opacity="1" fill="#275629" fill-opacity="1"></use><g><use xlink:href="#c88kLgLC6" opacity="1" fill-opacity="0" stroke="#000000" stroke-width="1" stroke-opacity="0"></use></g></g><g><use xlink:href="#e5JgMwa57h" opacity="1" fill="#275629" fill-opacity="1"></use><g><use xlink:href="#e5JgMwa57h" opacity="1" fill-opacity="0" stroke="#000000" stroke-width="1" stroke-opacity="0"></use></g></g><g><use xlink:href="#bewJdEi3H" opacity="1" fill="#275629" fill-opacity="1"></use><g><use xlink:href="#bewJdEi3H" opacity="1" fill-opacity="0" stroke="#000000" stroke-width="1" stroke-opacity="0"></use></g></g><g><use xlink:href="#c3oEm7qMzV" opacity="1" fill="#275629" fill-opacity="1"></use><g><use xlink:href="#c3oEm7qMzV" opacity="1" fill-opacity="0" stroke="#000000" stroke-width="1" stroke-opacity="0"></use></g></g><g><use xlink:href="#b25WCdGoEY" opacity="1" fill="#275629" fill-opacity="1"></use><g><use xlink:href="#b25WCdGoEY" opacity="1" fill-opacity="0" stroke="#000000" stroke-width="1" stroke-opacity="0"></use></g></g><g><use xlink:href="#a8a2FDfD4" opacity="1" fill="#275629" fill-opacity="1"></use><g><use xlink:href="#a8a2FDfD4" opacity="1" fill-opacity="0" stroke="#000000" stroke-width="1" stroke-opacity="0"></use></g></g><g><use xlink:href="#fA0xkFXtb" opacity="1" fill="#275629" fill-opacity="1"></use><g><use xlink:href="#fA0xkFXtb" opacity="1" fill-opacity="0" stroke="#000000" stroke-width="1" stroke-opacity="0"></use></g></g><g><use xlink:href="#b7iaInhYc" opacity="1" fill="#275629" fill-opacity="1"></use><g><use xlink:href="#b7iaInhYc" opacity="1" fill-opacity="0" stroke="#000000" stroke-width="1" stroke-opacity="0"></use></g></g><g><use xlink:href="#c1AH2J18mH" opacity="1" fill="#275629" fill-opacity="1"></use><g><use xlink:href="#c1AH2J18mH" opacity="1" fill-opacity="0" stroke="#000000" stroke-width="1" stroke-opacity="0"></use></g></g><g><use xlink:href="#btX370C6K" opacity="1" fill="#275629" fill-opacity="1"></use><g><use xlink:href="#btX370C6K" opacity="1" fill-opacity="0" stroke="#000000" stroke-width="1" stroke-opacity="0"></use></g></g><g><use xlink:href="#brLzXOvOb" opacity="1" fill="#275629" fill-opacity="1"></use><g><use xlink:href="#brLzXOvOb" opacity="1" fill-opacity="0" stroke="#000000" stroke-width="1" stroke-opacity="0"></use></g></g><g><use xlink:href="#a5n13Fhk2n" opacity="1" fill="#275629" fill-opacity="1"></use><g><use xlink:href="#a5n13Fhk2n" opacity="1" fill-opacity="0" stroke="#000000" stroke-width="1" stroke-opacity="0"></use></g></g><g><use xlink:href="#aT7AyW1gc" opacity="1" fill="#275629" fill-opacity="1"></use><g><use xlink:href="#aT7AyW1gc" opacity="1" fill-opacity="0" stroke="#000000" stroke-width="1" stroke-opacity="0"></use></g></g><g><use xlink:href="#ag8glbt3B" opacity="1" fill="#275629" fill-opacity="1"></use><g><use xlink:href="#ag8glbt3B" opacity="1" fill-opacity="0" stroke="#000000" stroke-width="1" stroke-opacity="0"></use></g></g><g><use xlink:href="#b1jZlH6etp" opacity="1" fill="#275629" fill-opacity="1"></use><g><use xlink:href="#b1jZlH6etp" opacity="1" fill-opacity="0" stroke="#000000" stroke-width="1" stroke-opacity="0"></use></g></g><g><use xlink:href="#e56FFPWAJt" opacity="1" fill="#275629" fill-opacity="1"></use><g><use xlink:href="#e56FFPWAJt" opacity="1" fill-opacity="0" stroke="#000000" stroke-width="1" stroke-opacity="0"></use></g></g><g><use xlink:href="#b1mRkZX8CW" opacity="1" fill="#275629" fill-opacity="1"></use><g><use xlink:href="#b1mRkZX8CW" opacity="1" fill-opacity="0" stroke="#000000" stroke-width="1" stroke-opacity="0"></use></g></g><g><use xlink:href="#hGBsFCsal" opacity="1" fill="#275629" fill-opacity="1"></use><g><use xlink:href="#hGBsFCsal" opacity="1" fill-opacity="0" stroke="#000000" stroke-width="1" stroke-opacity="0"></use></g></g><g><use xlink:href="#d22GmFkf9P" opacity="1" fill="#275629" fill-opacity="1"></use><g><use xlink:href="#d22GmFkf9P" opacity="1" fill-opacity="0" stroke="#000000" stroke-width="1" stroke-opacity="0"></use></g></g><g><use xlink:href="#kaQ8eE5S" opacity="1" fill="#275629" fill-opacity="1"></use><g><use xlink:href="#kaQ8eE5S" opacity="1" fill-opacity="0" stroke="#000000" stroke-width="1" stroke-opacity="0"></use></g></g><g><use xlink:href="#jAvGgoDd" opacity="1" fill="#275629" fill-opacity="1"></use><g><use xlink:href="#jAvGgoDd" opacity="1" fill-opacity="0" stroke="#000000" stroke-width="1" stroke-opacity="0"></use></g></g><g><use xlink:href="#akjtLxLWU" opacity="1" fill="#275629" fill-opacity="1"></use><g><use xlink:href="#akjtLxLWU" opacity="1" fill-opacity="0" stroke="#000000" stroke-width="1" stroke-opacity="0"></use></g></g><g><use xlink:href="#aNbYY2VN9" opacity="1" fill="#275629" fill-opacity="1"></use><g><use xlink:href="#aNbYY2VN9" opacity="1" fill-opacity="0" stroke="#000000" stroke-width="1" stroke-opacity="0"></use></g></g><g><use xlink:href="#a1qX5cBXW4" opacity="1" fill="#275629" fill-opacity="1"></use><g><use xlink:href="#a1qX5cBXW4" opacity="1" fill-opacity="0" stroke="#000000" stroke-width="1" stroke-opacity="0"></use></g></g><g><use xlink:href="#a4vwtBG3K" opacity="1" fill="#275629" fill-opacity="1"></use><g><use xlink:href="#a4vwtBG3K" opacity="1" fill-opacity="0" stroke="#000000" stroke-width="1" stroke-opacity="0"></use></g></g><g><use xlink:href="#f17ZABtjhP" opacity="1" fill="#275629" fill-opacity="1"></use><g><use xlink:href="#f17ZABtjhP" opacity="1" fill-opacity="0" stroke="#000000" stroke-width="1" stroke-opacity="0"></use></g></g><g><use xlink:href="#f4X4ecE9A" opacity="1" fill="#275629" fill-opacity="1"></use><g><use xlink:href="#f4X4ecE9A" opacity="1" fill-opacity="0" stroke="#000000" stroke-width="1" stroke-opacity="0"></use></g></g><g><use xlink:href="#a2TOpOznuV" opacity="1" fill="#28572a" fill-opacity="1"></use><g><use xlink:href="#a2TOpOznuV" opacity="1" fill-opacity="0" stroke="#000000" stroke-width="1" stroke-opacity="0"></use></g></g><g><use xlink:href="#e2171dWZTa" opacity="1" fill="#28562a" fill-opacity="1"></use><g><use xlink:href="#e2171dWZTa" opacity="1" fill-opacity="0" stroke="#000000" stroke-width="1" stroke-opacity="0"></use></g></g><g><use xlink:href="#aMUb246ab" opacity="1" fill="#28562a" fill-opacity="1"></use><g><use xlink:href="#aMUb246ab" opacity="1" fill-opacity="0" stroke="#000000" stroke-width="1" stroke-opacity="0"></use></g></g><g><use xlink:href="#a1fSrVBrts" opacity="1" fill="#28572a" fill-opacity="1"></use><g><use xlink:href="#a1fSrVBrts" opacity="1" fill-opacity="0" stroke="#000000" stroke-width="1" stroke-opacity="0"></use></g></g><g><use xlink:href="#a49q3Hg8Fs" opacity="1" fill="#28572a" fill-opacity="1"></use><g><use xlink:href="#a49q3Hg8Fs" opacity="1" fill-opacity="0" stroke="#000000" stroke-width="1" stroke-opacity="0"></use></g></g><g><use xlink:href="#c279mdbq22" opacity="1" fill="#28572a" fill-opacity="1"></use><g><use xlink:href="#c279mdbq22" opacity="1" fill-opacity="0" stroke="#000000" stroke-width="1" stroke-opacity="0"></use></g></g><g><use xlink:href="#a3e0odANGc" opacity="1" fill="#28572a" fill-opacity="1"></use><g><use xlink:href="#a3e0odANGc" opacity="1" fill-opacity="0" stroke="#000000" stroke-width="1" stroke-opacity="0"></use></g></g><g><use xlink:href="#a2v901P1Y" opacity="1" fill="#215524" fill-opacity="1"></use><g><use xlink:href="#a2v901P1Y" opacity="1" fill-opacity="0" stroke="#000000" stroke-width="1" stroke-opacity="0"></use></g></g><g><use xlink:href="#g6itekB4LG" opacity="1" fill="#2f5e33" fill-opacity="1"></use><g><use xlink:href="#g6itekB4LG" opacity="1" fill-opacity="0" stroke="#000000" stroke-width="1" stroke-opacity="0"></use></g></g><g><use xlink:href="#aMLJQneUJ" opacity="1" fill="#28572a" fill-opacity="1"></use><g><use xlink:href="#aMLJQneUJ" opacity="1" fill-opacity="0" stroke="#000000" stroke-width="1" stroke-opacity="0"></use></g></g><g><use xlink:href="#a3SBLGn590" opacity="1" fill="#1e4e20" fill-opacity="1"></use><g><use xlink:href="#a3SBLGn590" opacity="1" fill-opacity="0" stroke="#000000" stroke-width="1" stroke-opacity="0"></use></g></g><g><use xlink:href="#d1BEuxMki" opacity="1" fill="#174919" fill-opacity="1"></use><g><use xlink:href="#d1BEuxMki" opacity="1" fill-opacity="0" stroke="#000000" stroke-width="1" stroke-opacity="0"></use></g></g><g><use xlink:href="#bxjjcWWSA" opacity="1" fill="#174c19" fill-opacity="1"></use><g><use xlink:href="#bxjjcWWSA" opacity="1" fill-opacity="0" stroke="#000000" stroke-width="1" stroke-opacity="0"></use></g></g><g><use xlink:href="#c1VuahNp5r" opacity="1" fill="#204f21" fill-opacity="1"></use><g><use xlink:href="#c1VuahNp5r" opacity="1" fill-opacity="0" stroke="#000000" stroke-width="1" stroke-opacity="0"></use></g></g><g><use xlink:href="#b5X7SSt7Jb" opacity="1" fill="#245627" fill-opacity="1"></use><g><use xlink:href="#b5X7SSt7Jb" opacity="1" fill-opacity="0" stroke="#000000" stroke-width="1" stroke-opacity="0"></use></g></g><g><use xlink:href="#aTS0hXQH" opacity="1" fill="#1d4e1e" fill-opacity="1"></use><g><use xlink:href="#aTS0hXQH" opacity="1" fill-opacity="0" stroke="#000000" stroke-width="1" stroke-opacity="0"></use></g></g><g><use xlink:href="#eD2kcZ5ed" opacity="1" fill="#346034" fill-opacity="1"></use><g><use xlink:href="#eD2kcZ5ed" opacity="1" fill-opacity="0" stroke="#000000" stroke-width="1" stroke-opacity="0"></use></g></g><g><use xlink:href="#j3kjBvWKCp" opacity="1" fill="#174c19" fill-opacity="1"></use><g><use xlink:href="#j3kjBvWKCp" opacity="1" fill-opacity="0" stroke="#000000" stroke-width="1" stroke-opacity="0"></use></g></g><g><use xlink:href="#ggdTPRTeh" opacity="1" fill="#355e35" fill-opacity="1"></use><g><use xlink:href="#ggdTPRTeh" opacity="1" fill-opacity="0" stroke="#000000" stroke-width="1" stroke-opacity="0"></use></g></g><g><use xlink:href="#b46tEFixH" opacity="1" fill="#3a653b" fill-opacity="1"></use><g><use xlink:href="#b46tEFixH" opacity="1" fill-opacity="0" stroke="#000000" stroke-width="1" stroke-opacity="0"></use></g></g><g><use xlink:href="#c1p6XFGsxF" opacity="1" fill="#1b4f1c" fill-opacity="1"></use><g><use xlink:href="#c1p6XFGsxF" opacity="1" fill-opacity="0" stroke="#000000" stroke-width="1" stroke-opacity="0"></use></g></g><g><use xlink:href="#g3684AWTOl" opacity="1" fill="#174b19" fill-opacity="1"></use><g><use xlink:href="#g3684AWTOl" opacity="1" fill-opacity="0" stroke="#000000" stroke-width="1" stroke-opacity="0"></use></g></g><g><use xlink:href="#a3X9BAYpN5" opacity="1" fill="#205222" fill-opacity="1"></use><g><use xlink:href="#a3X9BAYpN5" opacity="1" fill-opacity="0" stroke="#000000" stroke-width="1" stroke-opacity="0"></use></g></g><g><use xlink:href="#jbfUAegR2" opacity="1" fill="#3c663c" fill-opacity="1"></use><g><use xlink:href="#jbfUAegR2" opacity="1" fill-opacity="0" stroke="#000000" stroke-width="1" stroke-opacity="0"></use></g></g><g><use xlink:href="#b2MqwlYdbg" opacity="1" fill="#205022" fill-opacity="1"></use><g><use xlink:href="#b2MqwlYdbg" opacity="1" fill-opacity="0" stroke="#000000" stroke-width="1" stroke-opacity="0"></use></g></g><g><use xlink:href="#h3ZYfNJCbt" opacity="1" fill="#215023" fill-opacity="1"></use><g><use xlink:href="#h3ZYfNJCbt" opacity="1" fill-opacity="0" stroke="#000000" stroke-width="1" stroke-opacity="0"></use></g></g><g><use xlink:href="#gl1oDbrEy" opacity="1" fill="#255625" fill-opacity="1"></use><g><use xlink:href="#gl1oDbrEy" opacity="1" fill-opacity="0" stroke="#000000" stroke-width="1" stroke-opacity="0"></use></g></g><g><use xlink:href="#e2Wm6Dk24i" opacity="1" fill="#1d501f" fill-opacity="1"></use><g><use xlink:href="#e2Wm6Dk24i" opacity="1" fill-opacity="0" stroke="#000000" stroke-width="1" stroke-opacity="0"></use></g></g><g><use xlink:href="#j4zFUY9HBH" opacity="1" fill="#39633a" fill-opacity="1"></use><g><use xlink:href="#j4zFUY9HBH" opacity="1" fill-opacity="0" stroke="#000000" stroke-width="1" stroke-opacity="0"></use></g></g><g><use xlink:href="#bdBzJCJ78" opacity="1" fill="#315e31" fill-opacity="1"></use><g><use xlink:href="#bdBzJCJ78" opacity="1" fill-opacity="0" stroke="#000000" stroke-width="1" stroke-opacity="0"></use></g></g><g><use xlink:href="#d5k1tC9PA" opacity="1" fill="#265624" fill-opacity="1"></use><g><use xlink:href="#d5k1tC9PA" opacity="1" fill-opacity="0" stroke="#000000" stroke-width="1" stroke-opacity="0"></use></g></g><g><use xlink:href="#c1sTqdhXI6" opacity="1" fill="#466d45" fill-opacity="1"></use><g><use xlink:href="#c1sTqdhXI6" opacity="1" fill-opacity="0" stroke="#000000" stroke-width="1" stroke-opacity="0"></use></g></g><g><use xlink:href="#c4t3ZDp0O" opacity="1" fill="#215223" fill-opacity="1"></use><g><use xlink:href="#c4t3ZDp0O" opacity="1" fill-opacity="0" stroke="#000000" stroke-width="1" stroke-opacity="0"></use></g></g><g><use xlink:href="#b5YZleOTF" opacity="1" fill="#154a17" fill-opacity="1"></use><g><use xlink:href="#b5YZleOTF" opacity="1" fill-opacity="0" stroke="#000000" stroke-width="1" stroke-opacity="0"></use></g></g><g><use xlink:href="#b21lkpJ7sC" opacity="1" fill="#114915" fill-opacity="1"></use><g><use xlink:href="#b21lkpJ7sC" opacity="1" fill-opacity="0" stroke="#000000" stroke-width="1" stroke-opacity="0"></use></g></g><g><use xlink:href="#a2VuXdDlwK" opacity="1" fill="#154a17" fill-opacity="1"></use><g><use xlink:href="#a2VuXdDlwK" opacity="1" fill-opacity="0" stroke="#000000" stroke-width="1" stroke-opacity="0"></use></g></g><g><use xlink:href="#d2HuI1XnzY" opacity="1" fill="#1b4e1d" fill-opacity="1"></use><g><use xlink:href="#d2HuI1XnzY" opacity="1" fill-opacity="0" stroke="#000000" stroke-width="1" stroke-opacity="0"></use></g></g><g><use xlink:href="#cJZ360AA7" opacity="1" fill="#1d501f" fill-opacity="1"></use><g><use xlink:href="#cJZ360AA7" opacity="1" fill-opacity="0" stroke="#000000" stroke-width="1" stroke-opacity="0"></use></g></g><g><use xlink:href="#b9le0KIJC" opacity="1" fill="#346034" fill-opacity="1"></use><g><use xlink:href="#b9le0KIJC" opacity="1" fill-opacity="0" stroke="#000000" stroke-width="1" stroke-opacity="0"></use></g></g><g><use xlink:href="#a3V7lu2lI7" opacity="1" fill="#4e724e" fill-opacity="1"></use><g><use xlink:href="#a3V7lu2lI7" opacity="1" fill-opacity="0" stroke="#000000" stroke-width="1" stroke-opacity="0"></use></g></g><g><use xlink:href="#c96ODi50p" opacity="1" fill="#1d511f" fill-opacity="1"></use><g><use xlink:href="#c96ODi50p" opacity="1" fill-opacity="0" stroke="#000000" stroke-width="1" stroke-opacity="0"></use></g></g><g><use xlink:href="#c3qkZfd0N9" opacity="1" fill="#1c4f1e" fill-opacity="1"></use><g><use xlink:href="#c3qkZfd0N9" opacity="1" fill-opacity="0" stroke="#000000" stroke-width="1" stroke-opacity="0"></use></g></g><g><use xlink:href="#bgHasARqw" opacity="1" fill="#1f4e21" fill-opacity="1"></use><g><use xlink:href="#bgHasARqw" opacity="1" fill-opacity="0" stroke="#000000" stroke-width="1" stroke-opacity="0"></use></g></g><g><use xlink:href="#a1aRXboPMA" opacity="1" fill="#1a4e1c" fill-opacity="1"></use><g><use xlink:href="#a1aRXboPMA" opacity="1" fill-opacity="0" stroke="#000000" stroke-width="1" stroke-opacity="0"></use></g></g><g><use xlink:href="#aAmIZuNsJ" opacity="1" fill="#fefefe" fill-opacity="1"></use><g><use xlink:href="#aAmIZuNsJ" opacity="1" fill-opacity="0" stroke="#000000" stroke-width="1" stroke-opacity="0"></use></g></g><g><use xlink:href="#aTasfX9lL" opacity="1" fill="#154918" fill-opacity="1"></use><g><use xlink:href="#aTasfX9lL" opacity="1" fill-opacity="0" stroke="#000000" stroke-width="1" stroke-opacity="0"></use></g></g><g><use xlink:href="#jIjwT5Ol1" opacity="1" fill="#2a5625" fill-opacity="1"></use><g><use xlink:href="#jIjwT5Ol1" opacity="1" fill-opacity="0" stroke="#000000" stroke-width="1" stroke-opacity="0"></use></g></g><g><use xlink:href="#al9iPDg8z" opacity="1" fill="#325f33" fill-opacity="1"></use><g><use xlink:href="#al9iPDg8z" opacity="1" fill-opacity="0" stroke="#000000" stroke-width="1" stroke-opacity="0"></use></g></g><g><use xlink:href="#a4weYEgN5u" opacity="1" fill="#577a56" fill-opacity="1"></use><g><use xlink:href="#a4weYEgN5u" opacity="1" fill-opacity="0" stroke="#000000" stroke-width="1" stroke-opacity="0"></use></g></g><g><use xlink:href="#b1Wf8mfxKy" opacity="1" fill="#fdfdfd" fill-opacity="1"></use><g><use xlink:href="#b1Wf8mfxKy" opacity="1" fill-opacity="0" stroke="#000000" stroke-width="1" stroke-opacity="0"></use></g></g><g><use xlink:href="#e1FVKSrBeZ" opacity="1" fill="#fdfdfd" fill-opacity="1"></use><g><use xlink:href="#e1FVKSrBeZ" opacity="1" fill-opacity="0" stroke="#000000" stroke-width="1" stroke-opacity="0"></use></g></g><g><use xlink:href="#b74DuaHCW" opacity="1" fill="#003700" fill-opacity="1"></use><g><use xlink:href="#b74DuaHCW" opacity="1" fill-opacity="0" stroke="#000000" stroke-width="1" stroke-opacity="0"></use></g></g><g><use xlink:href="#cNHW4iGr7" opacity="1" fill="#004600" fill-opacity="1"></use><g><use xlink:href="#cNHW4iGr7" opacity="1" fill-opacity="0" stroke="#000000" stroke-width="1" stroke-opacity="0"></use></g></g><g><use xlink:href="#e4izixiKg" opacity="1" fill="#1c4f1d" fill-opacity="1"></use><g><use xlink:href="#e4izixiKg" opacity="1" fill-opacity="0" stroke="#000000" stroke-width="1" stroke-opacity="0"></use></g></g><g><use xlink:href="#anZ3uUUz6" opacity="1" fill="#245627" fill-opacity="1"></use><g><use xlink:href="#anZ3uUUz6" opacity="1" fill-opacity="0" stroke="#000000" stroke-width="1" stroke-opacity="0"></use></g></g><g><use xlink:href="#bh5kSMTkO" opacity="1" fill="#28572a" fill-opacity="1"></use><g><use xlink:href="#bh5kSMTkO" opacity="1" fill-opacity="0" stroke="#000000" stroke-width="1" stroke-opacity="0"></use></g></g><g><use xlink:href="#b1ZDqL5cT1" opacity="1" fill="#1a4f1c" fill-opacity="1"></use><g><use xlink:href="#b1ZDqL5cT1" opacity="1" fill-opacity="0" stroke="#000000" stroke-width="1" stroke-opacity="0"></use></g></g><g><use xlink:href="#f5ntKhl9Cj" opacity="1" fill="#2a5625" fill-opacity="1"></use><g><use xlink:href="#f5ntKhl9Cj" opacity="1" fill-opacity="0" stroke="#000000" stroke-width="1" stroke-opacity="0"></use></g></g><g><use xlink:href="#d3U2t2BDJ" opacity="1" fill="#0a4a0f" fill-opacity="1"></use><g><use xlink:href="#d3U2t2BDJ" opacity="1" fill-opacity="0" stroke="#000000" stroke-width="1" stroke-opacity="0"></use></g></g><g><use xlink:href="#a4D1BO3MX" opacity="1" fill="#4e724e" fill-opacity="1"></use><g><use xlink:href="#a4D1BO3MX" opacity="1" fill-opacity="0" stroke="#000000" stroke-width="1" stroke-opacity="0"></use></g></g><g><use xlink:href="#ger8yjsxD" opacity="1" fill="#315e31" fill-opacity="1"></use><g><use xlink:href="#ger8yjsxD" opacity="1" fill-opacity="0" stroke="#000000" stroke-width="1" stroke-opacity="0"></use></g></g><g><use xlink:href="#a668x7ejF" opacity="1" fill="#245524" fill-opacity="1"></use><g><use xlink:href="#a668x7ejF" opacity="1" fill-opacity="0" stroke="#000000" stroke-width="1" stroke-opacity="0"></use></g></g><g><use xlink:href="#a5nwxjnCZ8" opacity="1" fill="#0a490a" fill-opacity="1"></use><g><use xlink:href="#a5nwxjnCZ8" opacity="1" fill-opacity="0" stroke="#000000" stroke-width="1" stroke-opacity="0"></use></g></g><g><use xlink:href="#abzA5Lqng" opacity="1" fill="#3d653d" fill-opacity="1"></use><g><use xlink:href="#abzA5Lqng" opacity="1" fill-opacity="0" stroke="#000000" stroke-width="1" stroke-opacity="0"></use></g></g><g><use xlink:href="#f2C8kmF8YO" opacity="1" fill="#1b511e" fill-opacity="1"></use><g><use xlink:href="#f2C8kmF8YO" opacity="1" fill-opacity="0" stroke="#000000" stroke-width="1" stroke-opacity="0"></use></g></g><g><use xlink:href="#ab32GNgp9" opacity="1" fill="#fefefe" fill-opacity="1"></use><g><use xlink:href="#ab32GNgp9" opacity="1" fill-opacity="0" stroke="#000000" stroke-width="1" stroke-opacity="0"></use></g></g><g><use xlink:href="#a8lnkYepqs" opacity="1" fill="#fefefe" fill-opacity="1"></use><g><use xlink:href="#a8lnkYepqs" opacity="1" fill-opacity="0" stroke="#000000" stroke-width="1" stroke-opacity="0"></use></g></g><g><use xlink:href="#a5PuQ3KMx" opacity="1" fill="#fefefe" fill-opacity="1"></use><g><use xlink:href="#a5PuQ3KMx" opacity="1" fill-opacity="0" stroke="#000000" stroke-width="1" stroke-opacity="0"></use></g></g><g><use xlink:href="#d2rpuPwpj7" opacity="1" fill="#fdfdfd" fill-opacity="1"></use><g><use xlink:href="#d2rpuPwpj7" opacity="1" fill-opacity="0" stroke="#000000" stroke-width="1" stroke-opacity="0"></use></g></g><g><use xlink:href="#d1CaPIHgfh" opacity="1" fill="#fcfdfc" fill-opacity="1"></use><g><use xlink:href="#d1CaPIHgfh" opacity="1" fill-opacity="0" stroke="#000000" stroke-width="1" stroke-opacity="0"></use></g></g><g><use xlink:href="#dw46g8mh2" opacity="1" fill="#1d501f" fill-opacity="1"></use><g><use xlink:href="#dw46g8mh2" opacity="1" fill-opacity="0" stroke="#000000" stroke-width="1" stroke-opacity="0"></use></g></g><g><use xlink:href="#b5Mqg3XEVw" opacity="1" fill="#fdfdfd" fill-opacity="1"></use><g><use xlink:href="#b5Mqg3XEVw" opacity="1" fill-opacity="0" stroke="#000000" stroke-width="1" stroke-opacity="0"></use></g></g><g><use xlink:href="#fhsbo3nqC" opacity="1" fill="#fbfcfb" fill-opacity="1"></use><g><use xlink:href="#fhsbo3nqC" opacity="1" fill-opacity="0" stroke="#000000" stroke-width="1" stroke-opacity="0"></use></g></g><g><use xlink:href="#b7SurEMkzS" opacity="1" fill="#fafbfb" fill-opacity="1"></use><g><use xlink:href="#b7SurEMkzS" opacity="1" fill-opacity="0" stroke="#000000" stroke-width="1" stroke-opacity="0"></use></g></g><g><use xlink:href="#b8srk9vayH" opacity="1" fill="#f8f9f8" fill-opacity="1"></use><g><use xlink:href="#b8srk9vayH" opacity="1" fill-opacity="0" stroke="#000000" stroke-width="1" stroke-opacity="0"></use></g></g><g><use xlink:href="#b13XbJsgoZ" opacity="1" fill="#1f5121" fill-opacity="1"></use><g><use xlink:href="#b13XbJsgoZ" opacity="1" fill-opacity="0" stroke="#000000" stroke-width="1" stroke-opacity="0"></use></g></g><g><use xlink:href="#a36mOJ3ZYQ" opacity="1" fill="#fefefe" fill-opacity="1"></use><g><use xlink:href="#a36mOJ3ZYQ" opacity="1" fill-opacity="0" stroke="#000000" stroke-width="1" stroke-opacity="0"></use></g></g><g><use xlink:href="#e2lc8Ypdql" opacity="1" fill="#205222" fill-opacity="1"></use><g><use xlink:href="#e2lc8Ypdql" opacity="1" fill-opacity="0" stroke="#000000" stroke-width="1" stroke-opacity="0"></use></g></g><g><use xlink:href="#akAizo221" opacity="1" fill="#fdfdfd" fill-opacity="1"></use><g><use xlink:href="#akAizo221" opacity="1" fill-opacity="0" stroke="#000000" stroke-width="1" stroke-opacity="0"></use></g></g><g><use xlink:href="#b57eIPq4E" opacity="1" fill="#fcfdfc" fill-opacity="1"></use><g><use xlink:href="#b57eIPq4E" opacity="1" fill-opacity="0" stroke="#000000" stroke-width="1" stroke-opacity="0"></use></g></g><g><use xlink:href="#b3ORw1QEfB" opacity="1" fill="#547956" fill-opacity="1"></use><g><use xlink:href="#b3ORw1QEfB" opacity="1" fill-opacity="0" stroke="#000000" stroke-width="1" stroke-opacity="0"></use></g></g><g><use xlink:href="#a4pw5rsCfR" opacity="1" fill="#fdfdfd" fill-opacity="1"></use><g><use xlink:href="#a4pw5rsCfR" opacity="1" fill-opacity="0" stroke="#000000" stroke-width="1" stroke-opacity="0"></use></g></g><g><use xlink:href="#d5Gig6r5Xb" opacity="1" fill="#547955" fill-opacity="1"></use><g><use xlink:href="#d5Gig6r5Xb" opacity="1" fill-opacity="0" stroke="#000000" stroke-width="1" stroke-opacity="0"></use></g></g><g><use xlink:href="#fvTCwJFkG" opacity="1" fill="#fcfdfc" fill-opacity="1"></use><g><use xlink:href="#fvTCwJFkG" opacity="1" fill-opacity="0" stroke="#000000" stroke-width="1" stroke-opacity="0"></use></g></g><g><use xlink:href="#aZ2yeQZSi" opacity="1" fill="#537855" fill-opacity="1"></use><g><use xlink:href="#aZ2yeQZSi" opacity="1" fill-opacity="0" stroke="#000000" stroke-width="1" stroke-opacity="0"></use></g></g><g><use xlink:href="#c2V6ZkJEOZ" opacity="1" fill="#fdfdfd" fill-opacity="1"></use><g><use xlink:href="#c2V6ZkJEOZ" opacity="1" fill-opacity="0" stroke="#000000" stroke-width="1" stroke-opacity="0"></use></g></g><g><use xlink:href="#cnYchtxRL" opacity="1" fill="#577b58" fill-opacity="1"></use><g><use xlink:href="#cnYchtxRL" opacity="1" fill-opacity="0" stroke="#000000" stroke-width="1" stroke-opacity="0"></use></g></g><g><use xlink:href="#bxja4b8nM" opacity="1" fill="#1a4f1c" fill-opacity="1"></use><g><use xlink:href="#bxja4b8nM" opacity="1" fill-opacity="0" stroke="#000000" stroke-width="1" stroke-opacity="0"></use></g></g></g></g></svg>